<?xml version="1.0" standalone="no"?>
<!DOCTYPE svg PUBLIC "-//W3C//DTD SVG 20010904//EN"
 "http://www.w3.org/TR/2001/REC-SVG-20010904/DTD/svg10.dtd">
<svg version="1.0" xmlns="http://www.w3.org/2000/svg"
 width="196.000000pt" height="196.000000pt" viewBox="0 0 196.000000 196.000000"
 preserveAspectRatio="xMidYMid meet">
<metadata>
Created by potrace 1.11, written by Peter Selinger 2001-2013
</metadata>
<g transform="translate(0.000000,196.000000) scale(0.100000,-0.100000)"
fill="#000000" stroke="none">
<path d="M615 1741 c-211 -35 -411 -140 -505 -265 -22 -28 -52 -78 -67 -111
-26 -55 -28 -70 -28 -175 0 -108 2 -119 31 -181 35 -73 131 -183 199 -226 l43
-27 -18 -36 c-10 -21 -44 -67 -74 -105 -60 -73 -65 -85 -40 -109 19 -20 64
-14 179 21 82 26 151 58 215 98 32 21 40 22 105 13 148 -20 377 13 517 75 137
61 267 180 321 294 27 59 32 81 35 168 4 117 -12 174 -80 275 -78 117 -249
225 -428 271 -94 24 -315 34 -405 20z"/>
<path d="M1644 1338 c15 -47 18 -204 6 -261 -49 -240 -289 -456 -594 -536 -98
-26 -270 -44 -336 -35 -30 4 -50 3 -50 -3 0 -13 133 -78 210 -102 110 -34 188
-43 350 -39 148 3 156 2 187 -20 82 -58 280 -126 350 -120 33 3 38 7 41 31 3
22 -6 39 -38 73 -39 42 -100 131 -100 145 0 3 31 29 69 58 258 191 281 505 54
724 -50 48 -130 107 -147 107 -4 0 -5 -10 -2 -22z"/>
</g>
</svg>
