<svg width="20px" height="20px" viewBox="919 397 20 20" version="1.1" xmlns="http://www.w3.org/2000/svg" xmlns:xlink="http://www.w3.org/1999/xlink">
    <defs>
        <polygon id="path-1" points="9.87194523 0.0194647202 0 0.0194647202 0 19.9514355 19.7438905 19.9514355 19.7438905 0.0194647202 9.87194523 0.0194647202"></polygon>
    </defs>
    <g id="office-copy-4" stroke="none" stroke-width="1" fill="none" fill-rule="evenodd" transform="translate(919.000000, 397.000000)">
        <mask id="mask-2" fill="white">
            <use xlink:href="#path-1"></use>
        </mask>
        <g id="Clip-2"></g>
        <path d="M16.9093738,1 L18.1115132,11.046948 L16.7622014,11.2029971 L15.6885083,2.23046274 L4.31131289,2.23046274 L3.23779861,11.2029971 L1.88848681,11.046948 L3.09044738,1 L16.9093738,1 Z M5.4233968,4.37502747 L14.5764244,4.37502747 L14.5764244,3.24994507 L5.4233968,3.24994507 L5.4233968,4.37502747 Z M5.4233968,6.62497253 L14.5764244,6.62497253 L14.5764244,5.49989014 L5.4233968,5.49989014 L5.4233968,6.62497253 Z M5.4233968,8.8749176 L14.5764244,8.8749176 L14.5764244,7.75005493 L5.4233968,7.75005493 L5.4233968,8.8749176 Z M5.4233968,11.1248627 L14.5764244,11.1248627 L14.5764244,10 L5.4233968,10 L5.4233968,11.1248627 Z M18.5809634,12.2499451 L1.41903661,12.2499451 C1.10444597,12.2499451 0.928312761,12.490105 1.02779831,12.7836583 L2.95431397,18.4662868 C3.05379952,18.75984 3.39265819,19 3.70724882,19 L16.2927512,19 C16.6073418,19 16.9462005,18.75984 17.045686,18.4662868 L18.9722017,12.7834825 C19.0716872,12.490105 18.895554,12.2499451 18.5809634,12.2499451 L18.5809634,12.2499451 Z M7.71178779,14.4998901 L12.2882122,14.4998901 L12.2882122,13.3750275 L7.71178779,13.3750275 L7.71178779,14.4998901 Z" id="Fill-1" fill="#000" mask="url(#mask-2)"></path>
    </g>
</svg>