<?xml version="1.0" encoding="utf-8"?>
<!-- Generator: Adobe Illustrator 19.2.1, SVG Export Plug-In . SVG Version: 6.00 Build 0)  -->
<svg version="1.1" id="Layer_1" xmlns="http://www.w3.org/2000/svg" xmlns:xlink="http://www.w3.org/1999/xlink" x="0px" y="0px"
	 viewBox="0 0 201.8 30.7" style="enable-background:new 0 0 201.8 30.7;" xml:space="preserve">
<style type="text/css">
	.st0{fill:#231F20;}
</style>
<title>clientcomm_icons_for_website</title>
<path class="st0" d="M19.2,28.2c-2.1,1.7-4.7,2.5-7.4,2.5C4.5,30.7,0,25.6,0,17.1S4.5,3.6,11.6,3.6c2.7,0,5.3,0.8,7.4,2.5
	c0.2,1.8-0.9,3.5-2.7,4c-1.2-1-2.7-1.6-4.3-1.5c-3.5,0-5.6,3-5.6,8.7s2,8.7,5.6,8.7c1.7,0,3.3-0.6,4.6-1.6
	C18.4,24.6,19.3,26.3,19.2,28.2z"/>
<path class="st0" d="M31.2,28.4c0,0.4-0.1,0.7-0.2,1.1c-1,0.8-2.2,1.2-3.5,1.2c-3,0-5-2.2-5-5.5V3.1c0.9-0.4,1.9-0.7,2.9-0.6
	c1,0,2,0.2,2.9,0.6v21.7c-0.1,0.5,0.2,1.1,0.8,1.2c0.1,0,0.1,0,0.2,0c0.3,0,0.6-0.1,0.9-0.2C30.8,26.5,31.2,27.5,31.2,28.4z"/>
<path class="st0" d="M33.4,3.5c0-1.9,1.6-3.5,3.5-3.5c1.9,0,3.5,1.5,3.5,3.5c0,1.9-1.6,3.5-3.5,3.5C34.9,6.9,33.4,5.4,33.4,3.5z
	 M33.9,29.5V10.7c1.9-0.8,4-0.8,5.9,0v18.8C37.9,30.3,35.8,30.3,33.9,29.5L33.9,29.5z"/>
<path class="st0" d="M48.7,21.9c0.4,2.8,2.1,4.3,4.8,4.3c1.5,0,3-0.4,4.3-1.2c1.8,0.3,2.4,1.6,2,3.5c-2.1,1.5-4.7,2.3-7.3,2.3
	c-6,0-9.7-4.1-9.7-10.7s3.7-10.7,9.7-10.7c5.5,0,8.7,3.7,8.7,9.8c0,0.9-0.1,1.8-0.2,2.6H48.7z M55.4,18.3c-0.1-3-1.2-4.6-3.2-4.6
	s-3.3,1.5-3.7,4.6H55.4L55.4,18.3z"/>
<path class="st0" d="M81.7,15.7v13.8c-0.9,0.4-2,0.7-3,0.6c-1,0-2-0.2-2.9-0.6V16.6c0-1.6-0.7-2.5-2-2.5c-1.5,0.1-2.7,1.1-3.2,2.5
	v12.9c-0.9,0.5-2,0.7-3,0.6c-1,0-2-0.2-2.9-0.6V10.7c0.8-0.4,1.7-0.6,2.6-0.6c0.9,0,1.7,0.2,2.5,0.6l0.6,1.9
	c1.3-1.9,3.4-3.1,5.7-3.1C79.4,9.4,81.7,11.9,81.7,15.7z"/>
<path class="st0" d="M86.9,24.3v-9.9h-2.4c-0.3-0.6-0.5-1.2-0.5-1.9c0-0.6,0.2-1.2,0.5-1.7l2.1-0.5c0.2-0.1,0.3-0.2,0.3-0.4l0.7-3.3
	c0.8-0.5,1.7-0.8,2.6-0.8c0.9,0,1.8,0.3,2.6,0.8v3.6h4.2c0.4,0.6,0.6,1.3,0.6,2.1c0,0.8-0.2,1.5-0.6,2.2h-4.2v9.4
	c0,1.5,0.6,2.3,1.9,2.3c0.8,0,1.5-0.2,2.3-0.5c0.9,0.4,1.4,1.3,1.3,2.3c0,0.5-0.1,1.1-0.4,1.5c-1.4,0.9-3,1.4-4.6,1.3
	c-3.3,0.2-6.2-2.4-6.4-5.8C86.8,24.7,86.8,24.5,86.9,24.3z"/>
<path class="st0" d="M119.3,28.2c-2.1,1.7-4.7,2.5-7.4,2.5c-7.2,0-11.7-5.2-11.7-13.6s4.5-13.6,11.6-13.6c2.7,0,5.3,0.8,7.4,2.4
	c0.2,1.8-0.9,3.5-2.7,4c-1.2-1-2.7-1.6-4.3-1.5c-3.5,0-5.6,3-5.6,8.7s2,8.7,5.6,8.7c1.7,0,3.3-0.6,4.6-1.6
	C118.5,24.6,119.4,26.3,119.3,28.2z"/>
<path class="st0" d="M140,20.1c0,6.5-3.7,10.7-9.7,10.7s-9.7-4.1-9.7-10.7s3.7-10.7,9.7-10.7S140,13.6,140,20.1z M134,20.1
	c0-3.9-1.3-6-3.6-6s-3.6,2.2-3.6,6s1.3,6,3.6,6S134,23.9,134,20.1z"/>
<path class="st0" d="M170.5,15.7v13.8c-0.9,0.5-2,0.7-3,0.6c-1,0-2-0.2-2.9-0.6V16.6c0-1.6-0.6-2.5-1.8-2.5s-2.1,0.8-2.9,2.3v13.1
	c-0.9,0.5-2,0.7-3,0.6c-1,0-2-0.2-2.9-0.6V16.6c0-1.7-0.6-2.5-1.7-2.5c-1.4,0.1-2.5,1-3,2.3v13.1c-0.9,0.5-2,0.7-3,0.6
	c-1,0-2-0.2-2.9-0.6V10.7c0.8-0.4,1.7-0.6,2.6-0.6c0.9,0,1.7,0.2,2.5,0.6l0.7,1.9c1.2-1.9,3.2-3.1,5.5-3.1c2.1-0.1,4.1,1.3,4.7,3.3
	c1.1-2,3.2-3.2,5.5-3.3C168.5,9.4,170.5,11.7,170.5,15.7z"/>
<path class="st0" d="M201.8,15.7v13.8c-0.9,0.5-2,0.7-3,0.6c-1,0-2-0.2-2.9-0.6V16.6c0-1.6-0.6-2.5-1.8-2.5s-2.1,0.8-2.9,2.3v13.1
	c-0.9,0.5-2,0.7-3,0.6c-1,0-2-0.2-2.9-0.6V16.6c0-1.7-0.6-2.5-1.7-2.5c-1.4,0.1-2.5,1-3,2.3v13.1c-0.9,0.5-2,0.7-3,0.6
	c-1,0-2-0.2-2.9-0.6V10.7c0.8-0.4,1.7-0.6,2.6-0.6c0.9,0,1.7,0.2,2.5,0.6l0.7,1.9c1.2-1.9,3.2-3.1,5.5-3.1c2.1-0.1,4.1,1.3,4.7,3.3
	c1.1-2,3.2-3.2,5.5-3.3C199.8,9.4,201.8,11.7,201.8,15.7z"/>
</svg>
