<svg id="Layer_1" data-name="Layer 1" xmlns="http://www.w3.org/2000/svg" xmlns:xlink="http://www.w3.org/1999/xlink" viewBox="0 0 101.05 99.97"><defs><style>.cls-1{fill:none;clip-rule:evenodd;}.cls-2{clip-path:url(#clip-path);}.cls-3{clip-path:url(#clip-path-2);}.cls-4{fill:#231f20;}</style><clipPath id="clip-path"><path class="cls-1" d="M-154,631a8,8,0,0,0-6.06-6.67,4.81,4.81,0,0,0,2.54-6.37,4.94,4.94,0,0,0-6.47-2.5,4.81,4.81,0,0,0-2.54,6.37,4.88,4.88,0,0,0,2.54,2.5,8,8,0,0,0-6,6.64,11.85,11.85,0,0,0,8,3.09,11.85,11.85,0,0,0,8-3.06"/></clipPath><clipPath id="clip-path-2"><path class="cls-1" d="M-154,682a8,8,0,0,0-6.06-6.67,4.81,4.81,0,0,0,2.54-6.37,4.94,4.94,0,0,0-6.47-2.5,4.81,4.81,0,0,0-2.54,6.37,4.88,4.88,0,0,0,2.54,2.5,8,8,0,0,0-6,6.64,11.85,11.85,0,0,0,8,3.09,11.85,11.85,0,0,0,8-3.06"/></clipPath></defs><title>clientcomm_icons_for_website</title><path class="cls-4" d="M57.12,0.43c-1-.13-1.94-0.23-2.92-0.3l-1.09,15c0.69,0.05,1.38.12,2.06,0.21Z"/><path class="cls-4" d="M62.89,1.53C61.95,1.29,61,1.08,60,.9L57.21,15.63c0.67,0.13,1.35.28,2,.45h0l1.21,0.33L64.62,2q-0.86-.25-1.72-0.47"/><path class="cls-4" d="M70.13,20.9L78.42,8.4c-1.3-.86-2.65-1.67-4-2.41l-7.1,13.21C68.26,19.73,69.21,20.3,70.13,20.9Z"/><path class="cls-4" d="M65.45,18.28l6.32-13.6C70.35,4,68.88,3.42,67.41,2.9L62.4,17C63.43,17.4,64.46,17.82,65.45,18.28Z"/><path class="cls-4" d="M82.09,11.08q-0.63-.5-1.27-1l-9,12q1.32,1,2.55,2.1L84.44,13.08c-0.76-.69-1.55-1.36-2.35-2h0Z"/><path class="cls-4" d="M38.58,17.06L33.52,2.94C32.6,3.27,31.69,3.63,30.79,4l5.87,13.81C37.29,17.55,37.93,17.3,38.58,17.06Z"/><path class="cls-4" d="M34.78,18.68L28.12,5.24c-0.87.43-1.74,0.9-2.59,1.38l7.43,13C33.56,19.31,34.17,19,34.78,18.68Z"/><path class="cls-4" d="M42.53,15.91L39.16,1.29c-1,.22-1.91.47-2.84,0.74l4.22,14.39C41.19,16.24,41.86,16.06,42.53,15.91Z"/><path class="cls-4" d="M31.2,20.72L23,8.15c-0.82.53-1.63,1.09-2.41,1.67L29.5,21.9C30.06,21.49,30.63,21.1,31.2,20.72Z"/><path class="cls-4" d="M16.1,13.56l10.23,11c0.5-.47,1-0.93,1.55-1.36L18.3,11.62C17.55,12.24,16.81,12.89,16.1,13.56Z"/><path class="cls-4" d="M48.65,15q1.2-.06,2.4,0L51.28,0H50.5c-0.87,0-1.76,0-2.63.07Z"/><path class="cls-4" d="M46.59,15.22L44.94,0.31C44,0.42,43,.55,42,0.71L44.55,15.5C45.22,15.39,45.91,15.29,46.59,15.22Z"/><path class="cls-4" d="M24.1,26.8l-11.16-10q-0.59.65-1.15,1.33l11.5,9.64Q23.68,27.26,24.1,26.8Z"/><path class="cls-4" d="M15,49.31L0,48.8q0,0.87,0,1.76H15Q15,49.93,15,49.31Z"/><path class="cls-4" d="M21.05,30.7L8.61,22.32q-0.49.73-1,1.48l12.72,7.95Q20.7,31.22,21.05,30.7Z"/><path class="cls-4" d="M15.53,44.38L0.76,41.8q-0.15.86-.27,1.74L15.34,45.6Q15.43,45,15.53,44.38Z"/><path class="cls-4" d="M16.72,39.58L2.45,35q-0.27.84-.51,1.69l14.42,4.12Q16.53,40.17,16.72,39.58Z"/><path class="cls-4" d="M18.57,35L5.09,28.42q-0.38.79-.74,1.6l13.7,6.1Q18.3,35.55,18.57,35Z"/><path class="cls-4" d="M20.23,69.12L7.44,77l0.63,1,12.6-8.14Z"/><path class="cls-4" d="M13.46,84.89l0.81,0.85L25,75.3l-0.57-.6Z"/><path class="cls-4" d="M15.42,56L0.6,58.34q0.09,0.58.19,1.15l14.77-2.63Q15.48,56.45,15.42,56Z"/><path class="cls-4" d="M17.17,62.82L3.09,68q0.2,0.55.42,1.1l14-5.5Z"/><path class="cls-4" d="M81.32,32.81l13-7.5a50.81,50.81,0,0,0-3.58-5.37L78.8,29A35.78,35.78,0,0,1,81.32,32.81Z"/><path class="cls-4" d="M101,48.85c-0.05-1.58-.18-3.16-0.38-4.73h0c-0.1-.78-0.21-1.55-0.35-2.32h0a51.36,51.36,0,0,0-1.23-5.33h0c-0.09-.32-0.19-0.63-0.28-0.95h0Q98.42,34.4,98,33.29h0c-0.33-.9-0.68-1.8-1.06-2.68h0c-0.47-1.1-1-2.19-1.53-3.24L82.11,34.26a35.53,35.53,0,0,1-5.36,40.27L87.82,84.65A50.47,50.47,0,0,0,101,48.85h0Z"/><path class="cls-4" d="M89.27,18.11c-1-1.14-2-2.25-3-3.3L75.64,25.41c0.74,0.74,1.46,1.52,2.13,2.33Z"/><path class="cls-4" d="M55.83,73A13.47,13.47,0,0,0,63.61,62.3a13.63,13.63,0,0,0-5.32-12.4,13,13,0,0,0-13-1.4,13.48,13.48,0,0,0-7.71,10.7,13.61,13.61,0,0,0,6,12.89,13,13,0,0,0,1.74.94,21.86,21.86,0,0,0-16,18.4A31,31,0,0,0,72,91.5,21.85,21.85,0,0,0,55.83,73Z"/></svg>