
<svg width="20px" height="20px" viewBox="855 22 20 20" version="1.1" xmlns="http://www.w3.org/2000/svg" xmlns:xlink="http://www.w3.org/1999/xlink">
    <defs>
        <polygon id="path-1" points="0.00292682927 0.0194647202 0.00292682927 19.9514355 19.9805854 19.9514355 19.9805854 0.0194647202 9.9917561 0.0194647202"></polygon>
    </defs>
    <g id="rotating-copy-3" stroke="none" stroke-width="0" fill="none" fill-rule="evenodd" transform="translate(855.000000, 22.000000)">
        <mask id="mask-2" fill="white">
            <use xlink:href="#path-1"></use>
        </mask>
        <g id="Clip-2"></g>
        <path d="M19.9805854,7.4940146 L12.4878049,7.4940146 L15.2882927,4.70009732 C13.8730732,3.28836983 11.9916098,2.51090024 9.99029268,2.51090024 C7.98892683,2.51090024 6.10726829,3.28836983 4.69209756,4.70009732 C3.27687805,6.11187348 2.4975122,7.98895377 2.4975122,9.98545012 C2.4975122,11.9818978 3.27687805,13.8587835 4.69209756,15.2707543 C6.10726829,16.6823358 7.98892683,17.4597567 9.99029268,17.4597567 C11.9916098,17.4597567 13.8730732,16.6823358 15.2882927,15.2705596 C15.406439,15.1527007 15.5198049,15.0314355 15.6290244,14.9072993 L17.5083902,16.5477372 C15.6772195,18.6337226 12.9881951,19.9514355 9.99029268,19.9514355 C4.47273171,19.9514355 0,15.4893431 0,9.98545012 C0,4.48131387 4.47273171,0.0194647202 9.99029268,0.0194647202 C12.7490244,0.0194647202 15.2461951,1.13527981 17.0539024,2.93878345 L19.9805854,0.0194647202 L19.9805854,7.4940146 Z" id="Fill-1" fill="#000" ></path>
    </g>
</svg>