<?xml version="1.0" encoding="utf-8"?>
<!-- Generator: Adobe Illustrator 19.2.1, SVG Export Plug-In . SVG Version: 6.00 Build 0)  -->
<svg version="1.1" id="Layer_1" xmlns="http://www.w3.org/2000/svg" xmlns:xlink="http://www.w3.org/1999/xlink" x="0px" y="0px"
	 viewBox="0 0 18.3 15" style="enable-background:new 0 0 18.3 15;" xml:space="preserve">
<style type="text/css">
	.st0{fill:#40B549;}
</style>
<title>SMS icons</title>
<path class="st0" d="M18,8l-7.3-7.2c-1-1-2.7-1-3.7,0L0.3,7.5c-0.4,0.4-0.4,1,0,1.4c0.4,0.4,1,0.4,1.4,0l1.6-1.6v6.8
	c0,0.5,0.4,0.9,0.9,0.9h9.9c0.5,0,0.9-0.4,0.9-0.9V7.9l1.6,1.6c0.4,0.4,1,0.4,1.4,0C18.4,9,18.4,8.4,18,8z M12.6,12.9H5.7v-1.1
	c0-1.4,0.9-2.7,2.2-3.2C7.3,8.2,6.9,7.7,6.7,7C6.6,6.2,6.8,5.4,7.4,4.8c1-1,2.5-1,3.5,0s1,2.5,0,3.5c-0.1,0.1-0.3,0.2-0.4,0.3
	c1.3,0.5,2.2,1.8,2.1,3.2V12.9z"/>
</svg>
