<?xml version="1.0" encoding="utf-8"?>
<!-- Generator: Adobe Illustrator 19.2.1, SVG Export Plug-In . SVG Version: 6.00 Build 0)  -->
<svg version="1.1" id="Layer_1" xmlns="http://www.w3.org/2000/svg" xmlns:xlink="http://www.w3.org/1999/xlink" x="0px" y="0px"
	 viewBox="0 0 385.4 101.7" style="enable-background:new 0 0 385.4 101.7;" xml:space="preserve">
<style type="text/css">
	.st0{opacity:0.46;fill:url(#SVGID_1_);enable-background:new    ;}
	.st1{enable-background:new    ;}
	.st2{fill:#40B549;}
	.st3{fill:#009454;}
	.st4{fill:url(#SVGID_2_);}
	.st5{fill:url(#SVGID_3_);}
	.st6{fill:#FFFFFF;}
</style>
<linearGradient id="SVGID_1_" gradientUnits="userSpaceOnUse" x1="84.0904" y1="102.2633" x2="340.5143" y2="102.2633" gradientTransform="matrix(1 0 0 -1 0 158.11)">
	<stop  offset="0" style="stop-color:#006600"/>
	<stop  offset="0.2198" style="stop-color:#139419;stop-opacity:0.7802"/>
	<stop  offset="0.4696" style="stop-color:#26C231;stop-opacity:0.5304"/>
	<stop  offset="0.692" style="stop-color:#34E342;stop-opacity:0.308"/>
	<stop  offset="0.8764" style="stop-color:#3CF84D;stop-opacity:0.1236"/>
	<stop  offset="1" style="stop-color:#3FFF51;stop-opacity:0"/>
</linearGradient>
<rect x="84.1" y="34.8" class="st0" width="256.4" height="42.1"/>
<title>SMS icons</title>
<g class="st1">
	<g>
		<path class="st2" d="M129.2,66.7c0,0.2-0.2,0.7-0.2,1.2c-0.7,0.5-1.9,0.7-3.3,1.2c-1.4,0.5-3.1,0.7-5.2,0.7
			c-1.9,0-3.5-0.2-5.2-0.7c-1.7-0.5-3.1-1.2-4.5-2.4c-1.4-1.2-2.4-2.4-3.1-4s-1.2-3.5-1.2-5.9s0.5-4.7,1.2-6.9
			c0.9-2.1,2.1-4,3.5-5.7c1.7-1.7,3.5-2.8,5.9-3.8c2.4-0.9,5-1.4,7.8-1.4c1.4,0,2.8,0,4.3,0.2c1.4,0.2,2.6,0.7,4,1.4
			c-0.5,0.7-0.7,1.2-0.9,1.7c-0.2,0.5-0.2,0.9-0.5,1.2c-0.2-0.2-0.5-0.5-0.9-0.9c-0.5-0.2-0.9-0.7-1.7-0.9s-1.4-0.7-2.4-0.9
			c-0.9-0.2-1.9-0.5-3.1-0.5c-2.4,0-4.3,0.5-5.9,1.4s-3.3,2.1-4.5,3.8c-1.2,1.4-2.1,3.3-2.6,5.2c-0.7,1.9-0.9,4-0.9,6.1
			s0.2,3.5,0.7,4.7c0.5,1.2,1.2,2.1,1.7,2.8c0.9,1.2,2.1,1.9,3.5,2.4c1.4,0.5,2.8,0.7,4.3,0.7c1.7,0,3.1-0.2,4.5-0.7
			c1.4-0.5,2.8-1.2,4.3-2.1l0.2,0.2C129.5,66,129.2,66.5,129.2,66.7z"/>
		<path class="st2" d="M134.7,56.6c0.5-1.4,1.4-2.8,2.4-4c0.9-1.2,2.4-2.1,3.8-2.8c1.4-0.7,3.1-1.2,5-1.2c1.7,0,3.1,0.2,4.3,0.7
			c1.2,0.5,2.1,1.2,2.8,1.9s1.2,1.7,1.7,2.6c0.5,0.9,0.5,2.1,0.5,3.1c0,1.7-0.2,3.1-0.9,4.7c-0.5,1.4-1.4,2.8-2.4,4
			c-0.9,1.2-2.4,2.1-3.8,2.8c-1.4,0.7-3.1,0.9-5,0.9c-1.9,0-3.3-0.2-4.5-0.7c-1.2-0.5-2.1-1.2-2.8-2.1c-0.7-0.9-1.2-1.9-1.4-2.8
			c-0.2-0.9-0.5-1.9-0.5-2.8C133.7,59.4,134,58,134.7,56.6z M138.4,66.5c0.9,1.2,2.1,1.7,4.3,1.7c1.7,0,3.1-0.5,4-1.4
			c0.9-0.9,2.1-1.9,2.8-3.3c0.7-1.2,1.2-2.6,1.7-4c0.2-1.4,0.5-2.6,0.5-3.8c0-0.9-0.2-1.7-0.5-2.4c-0.2-0.7-0.7-1.4-1.2-1.9
			c-0.5-0.5-1.2-0.9-1.9-1.4c-0.7-0.5-1.4-0.5-2.4-0.5c-1.7,0-2.8,0.5-4,1.2c-1.2,0.9-1.9,1.9-2.6,3.1c-0.7,1.2-1.2,2.6-1.4,4
			c-0.2,1.4-0.5,2.8-0.5,4C137,63.9,137.5,65.3,138.4,66.5z"/>
		<path class="st2" d="M164,52.1c0.2-0.2,0.5-0.5,0.9-0.9c0.5-0.5,0.9-0.7,1.4-1.2c0.5-0.5,1.2-0.7,1.9-0.9s1.7-0.5,2.6-0.5
			s1.9,0.2,2.6,0.5c0.7,0.2,1.2,0.7,1.7,1.2c0.5,0.5,0.7,0.9,0.9,1.4c0.2,0.5,0.2,0.9,0.5,1.4c0.2-0.5,0.7-0.9,1.2-1.4
			c0.5-0.5,0.9-0.9,1.7-1.4s1.2-0.7,2.1-0.9c0.7-0.2,1.7-0.5,2.6-0.5s1.7,0.2,2.4,0.5c0.7,0.2,1.2,0.7,1.7,0.9
			c0.5,0.2,0.7,0.9,0.9,1.4c0.2,0.5,0.2,1.2,0.2,1.7c0,0.5,0,0.9-0.2,1.7s-0.2,1.4-0.5,2.4l-1.7,7.8c0,1.2-0.2,2.1-0.2,2.8
			s-0.2,0.9-0.2,1.4c-0.2,0-0.5,0-0.7,0c-0.2,0-0.5,0-0.9,0c-0.2,0-0.7,0-0.9,0s-0.7,0-0.9,0c0-0.2,0.2-0.7,0.5-1.4s0.5-1.7,0.7-2.6
			c0.2-0.9,0.5-1.9,0.7-3.1c0.2-1.2,0.5-2.1,0.7-3.1c0.2-0.9,0.5-1.9,0.5-2.6c0.2-0.7,0.2-1.4,0.2-1.7c0-1.2-0.5-2.1-1.2-2.8
			s-1.7-0.9-2.8-0.9c-0.5,0-1.2,0-1.7,0.2c-0.5,0.2-1.2,0.5-1.7,0.9c-0.5,0.5-1.2,0.9-1.7,1.4c-0.5,0.5-0.9,1.4-1.2,2.4
			c-0.2,0.5-0.5,1.4-0.7,2.6c-0.2,1.2-0.5,2.4-0.7,3.8c-0.2,1.4-0.5,2.6-0.7,4c-0.2,1.4-0.5,2.4-0.5,3.1c-0.2,0-0.5,0-0.7,0
			c-0.2,0-0.5,0-0.9,0c-0.2,0-0.7,0-0.9,0c-0.2,0-0.7,0-0.9,0c0.2-0.5,0.2-0.9,0.5-1.9c0.2-0.7,0.5-1.7,0.7-2.6
			c0.2-0.9,0.5-1.9,0.7-3.1c0.2-0.9,0.5-2.1,0.7-3.1c0.2-0.9,0.5-1.9,0.5-2.6c0-0.7,0.2-1.4,0.2-1.9c0-0.7-0.2-1.2-0.5-1.7
			c-0.2-0.5-0.5-0.7-0.9-0.9s-0.7-0.5-1.2-0.5c-0.5,0-0.9-0.2-1.4-0.2c-0.2,0-0.7,0-1.2,0.2c-0.5,0-1.2,0.2-1.7,0.7
			c-0.5,0.5-1.2,0.7-1.9,1.4c-0.7,0.7-1.2,1.7-1.4,2.8c-0.2,0.5-0.5,1.4-0.7,2.6c-0.2,1.2-0.5,2.6-0.7,4c-0.2,1.4-0.5,2.8-0.7,4
			c0,0.7-0.2,1.7-0.2,2.1c-0.2,0-0.5,0-0.7,0c-0.2,0-0.7,0-0.9,0c-0.2,0-0.7,0-0.9,0c-0.2,0-0.5,0-0.7,0c0.2-0.7,0.5-1.7,0.7-2.8
			c0.2-1.2,0.5-2.4,0.9-3.5c0.2-1.2,0.5-2.6,0.9-3.8c0.2-1.4,0.5-2.6,0.7-3.8c0.2-1.2,0.5-2.4,0.7-3.5c0.2-1.2,0.2-2.1,0.5-2.8
			c0.2,0,0.5,0,0.7,0.2c0.2,0,0.5,0,0.7,0c0.7,0,1.2,0,1.7-0.2L164,52.1L164,52.1z"/>
		<path class="st2" d="M199.7,52.1c0.2-0.2,0.5-0.5,0.9-0.9c0.5-0.5,0.9-0.7,1.4-1.2c0.5-0.5,1.2-0.7,1.9-0.9s1.7-0.5,2.6-0.5
			s1.9,0.2,2.6,0.5c0.7,0.2,1.2,0.7,1.7,1.2c0.5,0.5,0.7,0.9,0.9,1.4c0.2,0.5,0.2,0.9,0.5,1.4c0.2-0.5,0.7-0.9,1.2-1.4
			c0.5-0.5,0.9-0.9,1.7-1.4s1.2-0.7,2.1-0.9c0.7-0.2,1.7-0.5,2.6-0.5s1.7,0.2,2.4,0.5c0.7,0.2,1.2,0.7,1.7,0.9
			c0.5,0.2,0.7,0.9,0.9,1.4c0.2,0.5,0.2,1.2,0.2,1.7c0,0.5,0,0.9-0.2,1.7s-0.2,1.4-0.5,2.4l-1.7,7.8c-0.2,1.2-0.5,2.1-0.5,2.8
			c0,0.7-0.2,0.9-0.2,1.4c-0.2,0-0.5,0-0.7,0c-0.2,0-0.5,0-0.9,0c-0.2,0-0.7,0-0.9,0c-0.2,0-0.7,0-0.9,0c0-0.2,0.2-0.7,0.5-1.4
			s0.5-1.7,0.7-2.6c0.2-0.9,0.5-1.9,0.7-3.1c0.2-1.2,0.5-2.1,0.7-3.1c0.2-0.9,0.5-1.9,0.5-2.6c0.2-0.7,0.2-1.4,0.2-1.7
			c0-1.2-0.5-2.1-1.2-2.8c-0.7-0.7-1.7-0.9-2.8-0.9c-0.5,0-1.2,0-1.7,0.2c-0.5,0.2-1.2,0.5-1.7,0.9c-0.5,0.5-1.2,0.9-1.7,1.4
			c-0.5,0.5-0.9,1.4-1.2,2.4c-0.2,0.5-0.5,1.4-0.7,2.6c-0.2,1.2-0.5,2.4-0.7,3.8c-0.2,1.4-0.5,2.6-0.7,4c-0.2,1.4-0.5,2.4-0.5,3.1
			c-0.2,0-0.5,0-0.7,0s-0.5,0-0.9,0c-0.2,0-0.7,0-0.9,0c-0.2,0-0.7,0-0.9,0c0.2-0.5,0.2-0.9,0.5-1.9c0.2-0.7,0.5-1.7,0.7-2.6
			c0.2-0.9,0.5-1.9,0.7-3.1c0.2-0.9,0.5-2.1,0.7-3.1c0.2-0.9,0.5-1.9,0.5-2.6c0-0.7,0.2-1.4,0.2-1.9c0-0.7-0.2-1.2-0.5-1.7
			c-0.2-0.5-0.5-0.7-0.9-0.9c-0.5-0.2-0.7-0.5-1.2-0.5c-0.5,0-0.9-0.2-1.4-0.2c-0.2,0-0.7,0-1.2,0.2c-0.5,0-1.2,0.2-1.7,0.7
			c-0.5,0.5-1.2,0.7-1.9,1.4c-0.7,0.7-1.2,1.7-1.4,2.8c-0.2,0.5-0.5,1.4-0.7,2.6c-0.2,1.2-0.5,2.6-0.7,4c-0.2,1.4-0.5,2.8-0.7,4
			s-0.5,2.1-0.5,2.8c-0.2,0-0.5,0-0.7,0c-0.2,0-0.7,0-0.9,0s-0.7,0-0.9,0s-0.5,0-0.7,0c0.2-0.7,0.5-1.7,0.7-2.8
			c0.2-1.2,0.5-2.4,0.9-3.5c0.2-1.2,0.5-2.6,0.9-3.8c0.2-1.4,0.5-2.6,0.7-3.8c0.2-1.2,0.5-2.4,0.7-3.5c0.2-1.2,0.2-2.1,0.5-2.8
			c0.2,0,0.5,0,0.7,0.2c0.2,0,0.5,0,0.7,0c0.7,0,1.2,0,1.7-0.2L199.7,52.1L199.7,52.1z"/>
		<path class="st2" d="M253.1,66.7c0,0.2-0.2,0.7-0.2,1.2c-0.7,0.5-1.9,0.7-3.3,1.2c-1.4,0.5-3.1,0.7-5.2,0.7
			c-1.9,0-3.5-0.2-5.2-0.7c-1.7-0.5-3.1-1.2-4.5-2.4c-1.4-1.2-2.4-2.4-3.1-4s-1.2-3.5-1.2-5.9s0.5-4.7,1.2-6.9
			c0.9-2.1,2.1-4,3.5-5.7c1.7-1.7,3.5-2.8,5.9-3.8c2.4-0.9,5-1.4,7.8-1.4c1.4,0,2.8,0,4.3,0.2c1.4,0.2,2.6,0.7,4,1.4
			c-0.5,0.7-0.7,1.2-0.9,1.7c-0.2,0.5-0.2,0.9-0.5,1.2c-0.2-0.2-0.5-0.5-0.9-0.9c-0.5-0.2-0.9-0.7-1.7-0.9c-0.7-0.2-1.4-0.7-2.4-0.9
			c-0.9-0.2-1.9-0.5-3.1-0.5c-2.4,0-4.3,0.5-5.9,1.4s-3.3,2.1-4.5,3.8c-1.2,1.4-2.1,3.3-2.6,5.2c-0.7,1.9-0.9,4-0.9,6.1
			s0.2,3.5,0.7,4.7c0.5,1.2,1.2,2.1,1.7,2.8c0.9,1.2,2.1,1.9,3.5,2.4c1.4,0.5,2.8,0.7,4.3,0.7c1.7,0,3.1-0.2,4.5-0.7
			c1.4-0.5,2.8-1.2,4.3-2.1l0.2,0.2C253.3,66,253.1,66.5,253.1,66.7z"/>
		<path class="st2" d="M258.5,56.6c0.5-1.4,1.4-2.8,2.4-4c0.9-1.2,2.4-2.1,3.8-2.8c1.4-0.7,3.1-1.2,5-1.2c1.7,0,3.1,0.2,4.3,0.7
			c1.2,0.5,2.1,1.2,2.8,1.9c0.7,0.7,1.2,1.7,1.7,2.6c0.5,0.9,0.5,2.1,0.5,3.1c0,1.7-0.2,3.1-0.9,4.7c-0.5,1.4-1.4,2.8-2.4,4
			c-0.9,1.2-2.4,2.1-3.8,2.8c-1.4,0.7-3.1,0.9-5,0.9c-1.9,0-3.3-0.2-4.5-0.7s-2.1-1.2-2.8-2.1c-0.7-0.9-1.2-1.9-1.4-2.8
			c-0.2-0.9-0.5-1.9-0.5-2.8C257.6,59.4,258,58,258.5,56.6z M262.3,66.5c0.9,1.2,2.1,1.7,4.3,1.7c1.7,0,3.1-0.5,4-1.4
			c0.9-0.9,2.1-1.9,2.8-3.3c0.7-1.2,1.2-2.6,1.7-4c0.2-1.4,0.5-2.6,0.5-3.8c0-0.9-0.2-1.7-0.5-2.4c-0.2-0.7-0.7-1.4-1.2-1.9
			s-1.2-0.9-1.9-1.4c-0.7-0.5-1.4-0.5-2.4-0.5c-1.7,0-2.8,0.5-4,1.2c-1.2,0.9-1.9,1.9-2.6,3.1c-0.7,1.2-1.2,2.6-1.4,4
			c-0.2,1.4-0.5,2.8-0.5,4C261.1,63.9,261.6,65.3,262.3,66.5z"/>
		<path class="st2" d="M288.3,52.1c0.2-0.5,0.7-0.7,1.2-1.2s0.9-0.7,1.7-1.2c0.7-0.2,1.2-0.7,2.1-0.9c0.7-0.2,1.4-0.2,2.4-0.2
			c0.7,0,1.4,0,2.1,0.2c0.7,0.2,1.4,0.5,1.9,0.9c0.5,0.5,0.9,0.9,1.4,1.7c0.2,0.7,0.5,1.4,0.5,2.4c0,0.2,0,0.5,0,0.7
			c0,0.2,0,0.5-0.2,0.9c0,0.5-0.2,0.9-0.2,1.4c-0.2,0.5-0.2,1.4-0.5,2.4c0,0.5-0.2,1.2-0.5,2.1c-0.2,0.9-0.5,1.9-0.7,2.8
			c-0.2,0.9-0.5,1.9-0.5,2.8c-0.2,0.9-0.2,1.7-0.2,1.9c-0.2,0-0.5,0-0.7,0c-0.2,0-0.5,0-0.9,0c-0.2,0-0.7,0-0.9,0s-0.7,0-0.9,0
			c0-0.2,0.2-0.7,0.5-1.4s0.5-1.4,0.7-2.4c0.2-0.9,0.5-1.9,0.7-3.1c0.2-0.9,0.5-2.1,0.7-3.1c0.2-0.9,0.5-1.9,0.5-2.8
			c0.2-0.9,0.2-1.4,0.2-1.9c0-0.7-0.2-1.2-0.5-1.7c-0.2-0.5-0.5-0.9-0.9-1.2c-0.5-0.2-0.9-0.5-1.4-0.7s-0.9-0.2-1.7-0.2
			c-0.2,0-0.7,0-1.4,0.2c-0.5,0-1.2,0.2-1.9,0.7c-0.7,0.2-1.2,0.7-1.7,1.4c-0.5,0.7-0.9,1.4-1.4,2.4c-0.2,0.5-0.5,1.2-0.5,1.9
			c-0.2,0.7-0.5,1.7-0.7,2.6c-0.2,0.9-0.5,1.9-0.7,2.8c-0.2,0.9-0.5,1.9-0.5,2.8c-0.2,0.9-0.2,1.7-0.5,2.4c0,0.7-0.2,0.9-0.2,1.2
			c-0.2,0-0.5,0-0.7,0c-0.2,0-0.5,0-0.9,0c-0.5,0-0.7,0-0.9,0s-0.5,0-0.7,0c0.2-0.5,0.5-1.4,0.7-2.6s0.5-2.4,0.9-3.5
			c0.2-1.4,0.5-2.6,0.9-4c0.2-1.4,0.5-2.8,0.9-4c0.2-1.2,0.5-2.4,0.7-3.5c0.2-0.9,0.2-1.9,0.5-2.4c0.5,0,0.9,0.2,1.7,0.2
			c0.2,0,0.5,0,0.7,0c0.2,0,0.5,0,0.7-0.2L288.3,52.1L288.3,52.1z"/>
		<path class="st2" d="M312.2,52.1c0.2-0.5,0.7-0.7,1.2-1.2c0.5-0.5,0.9-0.7,1.7-1.2c0.7-0.2,1.2-0.7,2.1-0.9
			c0.7-0.2,1.4-0.2,2.4-0.2c0.7,0,1.4,0,2.1,0.2c0.7,0.2,1.4,0.5,1.9,0.9c0.5,0.5,0.9,0.9,1.4,1.7c0.2,0.7,0.5,1.4,0.5,2.4
			c0,0.2,0,0.5,0,0.7c0,0.2,0,0.5-0.2,0.9c0,0.5-0.2,0.9-0.2,1.4c-0.2,0.5-0.2,1.4-0.5,2.4c0,0.5-0.2,1.2-0.5,2.1s-0.5,1.9-0.7,2.8
			c-0.2,0.9-0.5,1.9-0.5,2.8c-0.2,0.9-0.2,1.7-0.2,1.9c-0.2,0-0.5,0-0.7,0c-0.2,0-0.5,0-0.9,0c-0.2,0-0.7,0-0.9,0s-0.7,0-0.9,0
			c0-0.2,0.2-0.7,0.5-1.4c0.2-0.7,0.5-1.4,0.7-2.4c0.2-0.9,0.5-1.9,0.7-3.1c0.2-1.2,0.5-2.1,0.7-3.1c0.2-0.9,0.5-1.9,0.5-2.8
			c0.2-0.9,0.2-1.4,0.2-1.9c0-0.7-0.2-1.2-0.5-1.7c-0.2-0.5-0.5-0.9-0.9-1.2c-0.5-0.2-0.9-0.5-1.4-0.7c-0.5-0.2-0.9-0.2-1.7-0.2
			c-0.2,0-0.7,0-1.4,0.2s-1.2,0.2-1.9,0.7c-0.7,0.2-1.2,0.7-1.7,1.4c-0.5,0.7-0.9,1.4-1.4,2.4c-0.2,0.5-0.5,1.2-0.5,1.9
			c-0.2,0.7-0.5,1.7-0.7,2.6c-0.2,0.9-0.5,1.9-0.7,2.8c-0.2,0.9-0.5,1.9-0.5,2.8c-0.2,0.9-0.2,1.7-0.5,2.4c0,0.7-0.2,0.9-0.2,1.2
			c-0.2,0-0.5,0-0.7,0c-0.2,0-0.5,0-0.9,0s-0.7,0-0.9,0c-0.2,0-0.5,0-0.7,0c0.2-0.5,0.5-1.4,0.7-2.6c0.2-1.2,0.5-2.4,0.9-3.5
			c0.2-1.4,0.5-2.6,0.9-4c0.2-1.4,0.5-2.8,0.9-4c0.2-1.2,0.5-2.4,0.7-3.5c0.2-0.9,0.2-1.9,0.5-2.4c0.5,0,0.9,0.2,1.7,0.2
			c0.2,0,0.5,0,0.7,0c0.2,0,0.5,0,0.7-0.2L312.2,52.1L312.2,52.1z"/>
		<path class="st2" d="M341.5,69.1c-1.2,0.2-2.4,0.5-3.5,0.5c-0.9,0-1.9-0.2-2.8-0.5c-0.9-0.2-1.9-0.7-2.8-1.4
			c-0.9-0.7-1.7-1.7-2.1-2.6c-0.5-1.2-0.7-2.6-0.7-4.3c0-1.7,0.2-3.3,0.7-4.7c0.5-1.4,1.2-2.8,2.4-3.8c0.9-1.2,2.1-1.9,3.5-2.6
			s2.8-0.9,4.5-0.9c0.9,0,1.9,0.2,2.8,0.5c0.9,0.2,1.7,0.7,2.4,1.2s1.2,1.2,1.7,2.1c0.5,0.9,0.7,1.9,0.7,3.3c0,0.7,0,1.4-0.2,2.1
			c0,0.5-0.2,0.9-0.2,1.4c-0.7,0-1.2,0-1.7,0c-0.5,0-0.9,0-1.4,0c-0.5,0-0.9,0-1.4,0c-0.5,0-1.2,0-1.7,0h-3.1H337
			c-0.7,0-1.4,0-2.1,0c-0.7,0-1.2,0-1.9,0c0,0.2,0,0.7-0.2,0.9c-0.2,0.2,0,0.9,0,1.4c0,1.4,0.2,2.6,0.7,3.3c0.5,0.9,0.9,1.4,1.7,1.9
			s1.2,0.7,2.1,0.9c0.9,0.2,1.4,0.2,1.9,0.2c0.7,0,1.7,0,2.4-0.2c0.7-0.2,1.2-0.5,1.9-0.5c0.5-0.2,0.9-0.5,1.4-0.7
			c0.5-0.2,0.7-0.5,0.9-0.7h0.2l-0.5,1.9C343.8,68.4,342.6,68.8,341.5,69.1z M338.4,50.2c-0.7,0.2-1.4,0.7-2.1,1.2
			c-0.7,0.5-1.2,1.4-1.9,2.4c-0.5,0.9-0.9,2.1-1.4,3.8c0.9,0,1.9,0,2.8,0.2c0.9,0,2.1,0,2.8,0h1.4c0.7,0,1.4,0,2.4,0
			c0.7,0,1.4,0,2.1-0.2c0-0.2,0-0.5,0.2-0.9c0-0.5,0-0.7,0-1.4c0-0.9-0.2-1.7-0.5-2.4c-0.2-0.7-0.7-1.2-1.2-1.7
			c-0.5-0.5-0.9-0.7-1.4-0.9c-0.5-0.2-1.2-0.2-1.7-0.2S339.1,49.9,338.4,50.2z"/>
		<path class="st2" d="M360.6,69.6c-1.4,0-2.6-0.2-3.8-0.5s-2.1-0.9-3.1-1.7c-0.9-0.7-1.7-1.7-2.1-2.8c-0.5-1.2-0.7-2.4-0.7-4
			c0-1.4,0.2-2.8,0.7-4.3s1.2-2.8,2.1-4c0.9-1.2,2.4-2.1,4-3.1c1.7-0.7,3.5-1.2,5.9-1.2c1.7,0,2.8,0.2,4,0.5
			c1.2,0.2,1.9,0.5,2.6,0.9c-0.2,0.2-0.2,0.5-0.5,0.7c0,0.2-0.2,0.5-0.2,0.7s-0.2,0.5-0.2,0.7c0,0.2-0.2,0.5-0.2,0.9h-0.2
			c-0.5-0.9-1.4-1.7-2.4-2.4c-0.9-0.5-2.1-0.7-3.1-0.7c-1.4,0-2.6,0.2-3.8,0.9c-1.2,0.7-2.1,1.4-2.8,2.4c-0.7,0.9-1.4,2.1-1.9,3.5
			c-0.5,1.4-0.7,2.6-0.7,4c0,1.7,0.2,2.8,0.7,3.8c0.5,0.9,0.9,1.7,1.7,2.4c0.7,0.5,1.4,0.9,2.1,1.2s1.4,0.2,2.1,0.2
			c0.7,0,1.4,0,2.1-0.2s1.2-0.2,1.7-0.5c0.5-0.2,0.9-0.5,1.4-0.7c0.5-0.2,0.7-0.5,0.9-0.5h0.2l-0.7,1.9
			C365.1,69.1,363,69.6,360.6,69.6z"/>
		<path class="st2" d="M380.2,46.4c-0.2,0.9-0.5,1.9-0.7,3.1c0.7,0,1.4,0,2.1,0s1.7,0,2.4,0c-0.2,0.7-0.2,1.2-0.2,1.7
			c-0.7,0-1.4,0-2.4,0c-0.7,0-1.7,0-2.1,0l-1.7,8c0,0.5-0.2,0.9-0.2,1.4c0,0.5-0.2,1.2-0.2,1.7c0,0.5-0.2,1.2-0.2,1.7s0,0.9,0,1.2
			c0,0.5,0,0.9,0.2,1.4s0.5,0.7,0.7,0.9c0.2,0.2,0.7,0.5,0.9,0.5c0.2,0,0.7,0.2,0.9,0.2c0.5,0,0.9,0,1.4-0.2
			c0.5-0.2,0.9-0.5,1.4-0.7v1.2c-0.5,0.5-1.2,0.7-2.1,0.9c-0.9,0.2-1.7,0.2-2.4,0.2c-0.5,0-1.2,0-1.7-0.2c-0.5-0.2-0.9-0.5-1.4-0.7
			c-0.5-0.2-0.7-0.7-0.9-1.2c-0.2-0.5-0.5-1.2-0.5-1.7s0-1.2,0.2-1.9c0.2-0.7,0.2-1.4,0.5-2.1c0.2-1.4,0.5-2.6,0.7-3.5
			c0.2-0.9,0.5-1.7,0.5-2.4c0.2-0.7,0.2-1.4,0.5-2.1c0.2-0.7,0.2-1.7,0.5-2.8c-0.5,0-0.9,0-1.4,0c-0.5,0-0.9,0-1.4,0
			c0-0.2,0.2-0.5,0.2-0.7c0-0.2,0-0.5,0-0.9c0.5,0,0.9,0,1.4,0c0.5,0,0.9,0,1.2,0l0.7-4.5l3.8-1.4C380.5,44.5,380.2,45.4,380.2,46.4
			z"/>
	</g>
</g>
<g>
	<circle class="st2" cx="51.5" cy="50.6" r="48"/>
	<g>
		<path class="st3" d="M4.9,61.8c0,0-0.2-1.2-0.7-3.3c-0.2-1.2-0.5-2.4-0.5-4c0-0.7-0.2-1.7-0.2-2.6c0-0.9,0-1.9,0-2.8
			c0.2-4,0.7-9.2,2.8-14.7c1.9-5.4,5.2-11.3,9.9-16.5S27.6,8.1,35.2,5.3c1.9-0.7,3.8-1.2,5.9-1.7c2.1-0.7,4-1.2,6.1-1.2
			c4.3-0.5,8.7-0.2,13,0.5C64.7,3.6,69,5.3,73,7.2c4,2.1,8,4.7,11.3,7.8c3.5,3.3,6.4,6.9,8.7,11.1c2.4,4,4,8.5,5.4,13.2
			c0.9,4.5,1.4,9.5,1.2,14.2c-0.5,4.7-1.4,9.5-3.1,13.7s-4,8.5-6.6,12.3c-2.8,3.5-5.9,6.9-9.5,9.7c-7.1,5.4-15.4,8.5-23.6,9.5
			c-8,0.9-15.8-0.2-22.7-2.8c-6.6-2.6-12.1-6.4-16.3-10.2c-4.3-4-7.1-8.3-9-11.8c-0.5-0.9-0.9-1.9-1.4-2.6c-0.5-0.9-0.7-1.7-0.9-2.4
			c-0.7-1.4-1.2-2.8-1.4-3.8C5.2,62.7,4.9,61.8,4.9,61.8z M4.9,61.8c0,0,0.2,1.2,0.9,3.3c0.2,1.2,0.7,2.4,1.4,3.8
			c0.2,0.7,0.7,1.7,0.9,2.4c0.5,0.7,0.9,1.7,1.4,2.6c2.1,3.5,4.7,7.8,9,11.6c4.3,4,9.7,7.6,16.3,10.2c6.6,2.4,14.4,3.5,22.5,2.6
			c8-0.9,16.3-4.3,23.2-9.5c3.5-2.6,6.6-5.9,9.2-9.5c2.6-3.5,4.7-7.8,6.4-12.1s2.4-9,2.8-13.5c0.2-4.7-0.2-9.2-1.2-13.9
			c-1.2-4.5-2.8-9-5.2-13c-2.4-4-5.2-7.6-8.5-10.9C80.8,12.8,77,10.2,73,8.1c-4-1.9-8.3-3.5-12.5-4.3C51.7,2,43,2.9,35.4,5.7
			C27.8,8.3,21.2,12.8,16.5,18s-8,10.9-9.9,16.3C4.4,39.8,4,44.7,3.7,48.8c0,0.9,0,1.9,0,2.8c0,0.9,0.2,1.9,0.2,2.6
			c0,1.7,0.2,3.1,0.5,4C4.7,60.6,4.9,61.8,4.9,61.8z"/>
	</g>
	
		<linearGradient id="SVGID_2_" gradientUnits="userSpaceOnUse" x1="27.1971" y1="108.6443" x2="72.3372" y2="108.6443" gradientTransform="matrix(1 0 0 -1 0 158.11)">
		<stop  offset="0" style="stop-color:#006600"/>
		<stop  offset="0.2198" style="stop-color:#139419;stop-opacity:0.7802"/>
		<stop  offset="0.4696" style="stop-color:#26C231;stop-opacity:0.5304"/>
		<stop  offset="0.692" style="stop-color:#34E342;stop-opacity:0.308"/>
		<stop  offset="0.8764" style="stop-color:#3CF84D;stop-opacity:0.1236"/>
		<stop  offset="1" style="stop-color:#3FFF51;stop-opacity:0"/>
	</linearGradient>
	<path class="st4" d="M62.1,17.6L47.5,14l-9.9,3.5l-6.4,6.6l-4,13.9v16.1L33,72.9l8.7,8.5l9.7,3.5l7.8-0.9l10.6-6.1
		c0,0,2.4-37.1,2.4-37.6c0-0.5-6.6-22-6.6-22"/>
	
		<linearGradient id="SVGID_3_" gradientUnits="userSpaceOnUse" x1="-11.7762" y1="105.1809" x2="17.4646" y2="105.1809" gradientTransform="matrix(0.9892 -0.1464 -0.1464 -0.9892 68.708 170.3292)">
		<stop  offset="0" style="stop-color:#006600"/>
		<stop  offset="0.2198" style="stop-color:#139419;stop-opacity:0.7802"/>
		<stop  offset="0.4696" style="stop-color:#26C231;stop-opacity:0.5304"/>
		<stop  offset="0.692" style="stop-color:#34E342;stop-opacity:0.308"/>
		<stop  offset="0.8764" style="stop-color:#3CF84D;stop-opacity:0.1236"/>
		<stop  offset="1" style="stop-color:#3FFF51;stop-opacity:0"/>
	</linearGradient>
	<path class="st5" d="M62.1,51.1l-9.7-0.2l-6.1,2.6l-3.5,3.3l-1.7,6.4L42,70l5,7.6l6.1,2.8l6.4,0.5l5-1.2l6.4-3.5
		c0,0-0.9-16.3-0.9-16.5c0-0.2-5.7-8.7-5.7-8.7"/>
	<path class="st6" d="M70.9,73.3l-0.5-0.5c-0.7,0.9-1.4,1.9-2.4,3.1c-0.5,0.7-1.2,1.2-1.9,1.9c-0.5,0.2-0.7,0.5-0.9,0.5
		c-0.9,0.5-1.9,0.7-3.1,0.9c-1.2,0.2-2.4,0.5-3.8,0.2c-2.1,0-4.3-0.5-6.1-0.9c-1.9-0.7-3.5-1.4-4.7-2.8c-1.4-1.2-2.4-2.8-3.1-4.5
		c-0.7-1.9-0.9-4-0.9-6.4c0-2.6,0.5-4.7,1.4-6.4c0.9-1.9,1.9-3.3,3.3-4.5c1.4-1.2,3.1-1.9,5-2.6c1.9-0.5,4-0.7,6.1-0.7
		c1.4,0,2.6,0.2,3.8,0.5s2.1,0.7,3.1,0.9c0.9,0.5,1.7,0.9,2.6,1.2c0.7,0.5,0.7,2.4,1.2,2.6l0.9-1.7l-0.2-2.1
		c-0.2-0.2-0.9-0.5-1.7-0.9c-0.7-0.5-1.7-0.5-2.6-0.9c-0.9-0.2-2.1-0.5-3.3-0.7c-1.2-0.2-2.6-0.2-4-0.5c-2.8,0-5.7,0.2-8,0.7
		c-2.6,0.7-4.7,1.7-6.4,2.8c-1.9,1.4-3.3,3.1-4.3,5c-1.2,1.9-1.7,4.3-1.7,6.9c0,2.6,0.5,4.7,1.4,6.9c0.9,2.1,2.4,3.8,4,5.2
		c1.9,1.4,4,2.6,6.4,3.3c2.6,0.7,5.2,1.2,8.3,1.4c1.2,0,2.4-0.2,3.5-0.2c-0.5,0.2-0.7,0.5-1.2,0.7c-1.4,0.7-3.1,1.2-5,1.4
		c-3.1,0.2-5.9,0-8.7-1.2c-2.8-0.9-5.2-2.8-7.6-5.4s-4.3-5.9-5.9-9.9c-1.7-4-2.8-9-3.5-14.9c-0.7-5.7-0.9-10.9-0.2-15.1
		c0.5-4.3,1.7-8,3.3-10.9c1.7-3.1,3.5-5.2,6.1-6.9c2.4-1.7,5.2-2.6,8.3-2.8c1.9-0.2,3.5,0,5.2,0.5c1.7,0.5,3.1,1.2,4.5,2.1
		c1.4,0.9,2.6,1.7,3.5,2.6c1.2,0.9,1.9,1.9,2.6,2.6h0c0-1.2,0-2.6,0-4.3c0-1.7,0.2-3.1,0.5-4c-2.4-1.2-5-1.9-7.8-2.6
		c-2.8-0.7-6.1-0.7-9.5-0.5c-4.5,0.5-8.3,1.7-11.6,3.8c-3.3,2.1-6.1,4.7-8.3,8.3s-3.5,7.6-4.5,12.3s-0.9,10.2,0,16.1
		c0.7,5.9,2.1,11.1,4.3,15.6s4.5,8.3,7.3,11.1c2.8,2.8,6.1,5,9.9,6.1c3.5,1.2,7.6,1.7,11.6,1.2c1.9-0.2,3.8-0.7,5.4-1.2
		c1.7-0.7,3.3-1.2,4.5-1.9c1.4-0.7,2.6-1.4,3.3-2.1c0.9-0.7,1.7-1.4,1.9-2.1V73.3z"/>
</g>
</svg>
