<?xml version="1.0" encoding="utf-8"?>
<!-- Generator: Adobe Illustrator 19.2.1, SVG Export Plug-In . SVG Version: 6.00 Build 0)  -->
<svg version="1.1" id="Layer_1" xmlns="http://www.w3.org/2000/svg" xmlns:xlink="http://www.w3.org/1999/xlink" x="0px" y="0px"
	 viewBox="0 0 18.2 27" style="enable-background:new 0 0 18.2 27;" xml:space="preserve">
<style type="text/css">
	.st0{fill:#40B549;}
</style>
<title>SMS icons</title>
<path class="st0" d="M16.1,0h-14C0.9,0,0,0.9,0,2.1v22.8C0,26.1,0.9,27,2.1,27h14c1.2,0,2.1-0.9,2.1-2.1V2.1C18.2,0.9,17.3,0,16.1,0
	z M6.4,22.7c0,0.4-0.3,0.8-0.8,0.8H4.1c-0.4,0-0.8-0.3-0.8-0.8v-1.1c0-0.4,0.3-0.8,0.8-0.8h1.6c0.4,0,0.8,0.3,0.8,0.8V22.7z
	 M3.3,19.1V18c0-0.4,0.3-0.8,0.8-0.8h1.6c0.4,0,0.8,0.3,0.8,0.8v1.1c0,0.4-0.3,0.8-0.8,0.8H4.1C3.7,19.9,3.3,19.5,3.3,19.1z
	 M10.6,22.7c0,0.4-0.3,0.8-0.8,0.8H8.2c-0.4,0-0.8-0.3-0.8-0.8v-1.1c0-0.4,0.3-0.8,0.8-0.8h1.6c0.4,0,0.8,0.3,0.8,0.8V22.7z
	 M7.5,19.1V18c0-0.4,0.3-0.8,0.8-0.8h1.6c0.4,0,0.8,0.3,0.8,0.8v1.1c0,0.4-0.3,0.8-0.8,0.8H8.2C7.8,19.9,7.5,19.5,7.5,19.1z
	 M14.9,22.7c0,0.4-0.3,0.8-0.8,0.8h-1.6c-0.4,0-0.8-0.3-0.8-0.8v-1.1c0-0.4,0.3-0.8,0.8-0.8h1.6c0.4,0,0.8,0.3,0.8,0.8V22.7z
	 M11.8,19.1V18c0-0.4,0.3-0.8,0.8-0.8h1.6c0.4,0,0.8,0.3,0.8,0.8v1.1c0,0.4-0.3,0.8-0.8,0.8h-1.6C12.1,19.9,11.8,19.5,11.8,19.1z
	 M16.2,13.4c0,0.8-0.6,1.4-1.4,1.4H3.5c-0.8,0-1.4-0.6-1.4-1.4V4.5c0-0.8,0.6-1.4,1.4-1.4h11.2c0.8,0,1.4,0.6,1.4,1.4V13.4z"/>
</svg>
