<?xml version="1.0" standalone="no"?>
<!DOCTYPE svg PUBLIC "-//W3C//DTD SVG 1.1//EN" "http://www.w3.org/Graphics/SVG/1.1/DTD/svg11.dtd" >
<svg xmlns="http://www.w3.org/2000/svg" xmlns:xlink="http://www.w3.org/1999/xlink" version="1.1">
<metadata></metadata>
<defs>
<font id="SSCommunity" >
<font-face font-family="SS Community" units-per-em="2048" ascent="2176" descent="-640" />
<missing-glyph horiz-adv-x="512" />
<glyph unicode=" "  horiz-adv-x="512" />
<glyph unicode="&#x09;" horiz-adv-x="512" />
<glyph unicode="&#xa0;" horiz-adv-x="512" />
<glyph unicode="+" d="M1856 1024q0 -53 -37.5 -90.5t-90.5 -37.5h-576v-576q0 -53 -37.5 -90.5t-90.5 -37.5t-90.5 37.5t-37.5 90.5v576h-576q-53 0 -90.5 37.5t-37.5 90.5t37.5 90.5t90.5 37.5h576v576q0 53 37.5 90.5t90.5 37.5t90.5 -37.5t37.5 -90.5v-576h576q53 0 90.5 -37.5t37.5 -90.5z " />
<glyph unicode="-" d="M1856 1024q0 -53 -37.5 -90.5t-90.5 -37.5h-1408q-53 0 -90.5 37.5t-37.5 90.5t37.5 90.5t90.5 37.5h1408q53 0 90.5 -37.5t37.5 -90.5z" />
<glyph unicode="=" d="M1986 1408q0 -53 -37.5 -90.5t-90.5 -37.5h-1664q-38 0 -69.5 21.5t-45.5 55.5q-15 33 -10 69.5t29 64.5l384 448q34 39 87.5 43t92.5 -30q38 -34 42 -87.5t-30 -91.5l-205 -237h1389q53 0 90.5 -37.5t37.5 -90.5zM1570 109q-18 -22 -42 -33.5t-54 -11.5q-20 0 -41 8 t-42 24q-39 34 -43 87.5t30 91.5l205 237h-1389q-53 0 -90.5 37.5t-37.5 90.5t37.5 90.5t90.5 37.5h1664q38 0 69.5 -21.5t45.5 -55.5q15 -33 10 -69.5t-29 -64.5z" />
<glyph unicode="A" horiz-adv-x="1375" d="M450 607h455l-218 654zM813 1479l531 -1479h-218l-145 429h-595l-154 -429h-204l555 1479h230z" />
<glyph unicode="B" horiz-adv-x="1375" d="M1022 796q117 -41 191 -133.5t74 -219.5q0 -132 -64.5 -234.5t-168.5 -155.5q-52 -26 -108.5 -39.5t-118.5 -13.5h-680v1479h668q165 0 280 -99t119 -275q0 -100 -50 -187.5t-142 -121.5zM740 851q139 0 206 60.5t71 150.5q0 122 -62.5 181t-219.5 63h-384v-455h389z M1022 252q31 37 47.5 79t18.5 86q0 66 -14 111.5t-50 82.5q-37 37 -105.5 56t-171.5 20h-396v-519h462q69 0 123 23t86 61z" />
<glyph unicode="C" horiz-adv-x="1489" d="M1207 543h196q-11 -96 -44.5 -183t-88.5 -160q-56 -73 -128.5 -126.5t-166.5 -83.5q-48 -15 -98 -22.5t-104 -7.5q-150 0 -270.5 49t-196.5 128q-76 78 -127.5 183.5t-72.5 212.5q-10 53 -15.5 107.5t-5.5 110.5q0 116 27 225t83 206q55 97 134.5 170.5t191.5 118.5 q55 22 116 34t126 14q57 0 115.5 -9t125.5 -28q67 -20 127.5 -57.5t113.5 -88.5q52 -52 90 -130t52 -173h-195q-29 147 -137.5 225.5t-262.5 78.5q-105 0 -189 -31t-140 -84q-57 -53 -94.5 -128.5t-54.5 -159.5q-9 -43 -14 -88.5t-6 -94.5q2 -91 19 -177t53 -166 t87.5 -139.5t128.5 -95.5q38 -18 80.5 -27t88.5 -9q193 0 310 107t146 299z" />
<glyph unicode="D" horiz-adv-x="1489" d="M1340 1058q20 -60 31 -126.5t13 -139.5q0 -125 -24.5 -240.5t-73.5 -214.5q-50 -100 -119.5 -174t-165.5 -117q-49 -22 -101 -33.5t-108 -12.5h-628v1479h621q77 0 155.5 -22t157.5 -74q79 -53 140 -129.5t102 -195.5zM1130 467q24 69 36 146t12 162t-13.5 160.5 t-45.5 144.5q-32 68 -79.5 117.5t-119.5 79.5q-37 14 -77.5 21.5t-86.5 7.5h-389v-1138h413q119 0 210.5 81t139.5 218z" />
<glyph unicode="E" horiz-adv-x="1375" d="M1266 178v-178h-1093v1479h1081v-180h-879v-450h810v-178h-810v-493h891z" />
<glyph unicode="F" horiz-adv-x="1256" d="M1197 1479v-180h-822v-450h725v-178h-725v-671h-202v1479h1024z" />
<glyph unicode="G" horiz-adv-x="1598" d="M1446 787v-787h-128l-47 197q-70 -98 -200 -161.5t-286 -68.5q-146 0 -262 39t-195 109q-79 69 -131.5 168t-75.5 215q-12 58 -18 121.5t-6 131.5q0 112 26.5 219.5t83.5 205.5q57 97 137.5 170.5t197.5 118.5q58 22 121.5 33.5t132.5 11.5q113 0 217.5 -31t190.5 -90 t144.5 -152t73.5 -208h-192q-27 109 -95 180t-154 100q-43 14 -91.5 21t-102.5 7q-212 0 -349 -161.5t-137 -435.5q0 -295 134 -454.5t352 -159.5q87 0 164.5 26.5t145.5 79.5q91 74 125.5 158.5t38.5 225.5h-460v171h645z" />
<glyph unicode="H" horiz-adv-x="1489" d="M1332 1479v-1479h-201v687h-773v-687h-202v1479h202v-614h773v614h201z" />
<glyph unicode="I" horiz-adv-x="569" d="M386 1479v-1479h-201v1479h201z" />
<glyph unicode="J" horiz-adv-x="1029" d="M882 1479v-1081q0 -117 -33.5 -203t-93.5 -136t-134.5 -73.5t-165.5 -25.5q-93 0 -167 23t-121 60t-78 86.5t-43 99.5q-7 24 -10 49.5t-3 50.5v145h187v-104q0 -123 54.5 -181.5t168.5 -58.5q122 0 177.5 62t57.5 194v1093h204z" />
<glyph unicode="K" horiz-adv-x="1375" d="M730 882l633 -882h-258l-520 740l-232 -221v-519h-201v1479h201v-720l718 720h275z" />
<glyph unicode="L" horiz-adv-x="1147" d="M1105 178v-178h-953v1479h201v-1301h752z" />
<glyph unicode="M" horiz-adv-x="1711" d="M1567 1479v-1479h-197v1242l-412 -1242h-199l-422 1240v-1240h-190v1479h287l426 -1254l422 1254h285z" />
<glyph unicode="N" horiz-adv-x="1489" d="M1332 1479v-1479h-227l-754 1192v-1192h-195v1479h237l745 -1197v1197h194z" />
<glyph unicode="O" horiz-adv-x="1598" d="M1509 886q5 -36 7.5 -72.5t2.5 -73.5q0 -56 -5.5 -112t-23.5 -134q-18 -79 -48 -147t-85 -138q-55 -71 -127.5 -121.5t-182.5 -83.5q-55 -17 -115.5 -25.5t-127.5 -9.5q-145 0 -265.5 43t-202.5 117q-83 73 -140.5 172t-83.5 210q-14 55 -20.5 112.5t-6.5 116.5 q0 124 27 236t85 209t141.5 168.5t202.5 113.5q60 20 125.5 31t137.5 12q113 0 211 -25.5t170 -69.5q71 -44 129 -105t96 -129q37 -69 62.5 -145.5t36.5 -149.5zM804 147q241 0 377.5 162.5t136.5 430.5q0 264 -136.5 426t-377.5 166q-230 0 -372.5 -160.5t-142.5 -431.5 q0 -267 138 -428t377 -165z" />
<glyph unicode="P" horiz-adv-x="1375" d="M839 1479q188 0 311 -109t128 -308q0 -66 -14 -126t-47 -117t-82.5 -99t-125.5 -68q-38 -14 -80.5 -21t-89.5 -8h-464v-623h-202v1479h666zM773 792q148 0 222.5 67.5t75.5 202.5q0 122 -72.5 183t-218.5 61h-405v-514h398z" />
<glyph unicode="Q" horiz-adv-x="1598" d="M1508 886q6 -36 8.5 -72.5t2.5 -73.5q0 -179 -53.5 -321t-161.5 -248l201 -157l-97 -121l-228 178q-77 -51 -172 -76.5t-207 -25.5q-145 0 -265.5 43t-203.5 117q-83 73 -140.5 172t-83.5 210q-14 55 -20.5 112.5t-6.5 116.5q0 124 27 236t85 209t141.5 168.5 t203.5 113.5q59 20 125 31t138 12q113 0 210.5 -25.5t169.5 -69.5t130 -105t97 -129q38 -69 63.5 -145.5t36.5 -149.5zM1154 292q80 83 119.5 195t39.5 253q0 264 -135.5 426t-376.5 166q-231 0 -372.5 -160t-141.5 -432q0 -268 137 -428.5t377 -164.5q60 0 114 12t102 35 l-154 117l102 125z" />
<glyph unicode="R" horiz-adv-x="1489" d="M863 804q112 0 186.5 69t74.5 179q0 112 -58.5 181t-186.5 73h-523v-502h507zM1346 59q9 -21 18.5 -35.5t19.5 -23.5h-225q-26 57 -37.5 150t-14.5 187q-2 46 -3.5 74.5t-3.5 38.5q-13 89 -73.5 134.5t-168.5 46.5h-502v-631h-202v1479h709q89 0 169 -24t146 -71 q66 -48 106 -128.5t43 -184.5q0 -115 -53.5 -200.5t-161.5 -142.5q79 -25 126 -87t56 -153q6 -56 12.5 -157t14.5 -165q4 -33 10.5 -59.5t14.5 -47.5z" />
<glyph unicode="S" horiz-adv-x="1375" d="M941 804q166 -37 249 -134t83 -255q0 -145 -76.5 -247.5t-204.5 -150.5q-64 -24 -138 -36t-159 -12q-284 0 -438 127t-155 392h185q0 -78 24 -139t63 -98q38 -38 93 -63t110 -35q27 -6 56.5 -9t61.5 -4q59 0 112 7.5t104 25.5t88 45.5t60 71.5q11 21 16.5 46t5.5 53 q0 39 -8.5 69.5t-24.5 54.5q-16 23 -44.5 42t-63.5 34q-36 15 -88.5 29.5t-110.5 28.5q-29 6 -63.5 14t-74.5 17l-31.5 7t-23.5 5q-67 15 -119.5 32.5t-106.5 47.5t-90 67.5t-59 94.5q-12 28 -18.5 59.5t-7.5 65.5q0 92 30 171.5t90 143.5t161 101t231 37q111 0 201.5 -21 t148.5 -51q57 -30 101 -77.5t66 -84.5q21 -37 35.5 -89.5t17.5 -75.5q1 -11 2.5 -25.5t2.5 -32.5q1 -4 1 -7v-5h-185q0 63 -21.5 114t-56.5 85q-36 33 -85.5 56t-100.5 34q-25 5 -52 8t-56 4q-51 0 -96 -6.5t-90 -24.5q-46 -18 -78 -46.5t-52 -75.5q-11 -23 -16 -50t-5 -58 q0 -70 44.5 -115t133.5 -65z" />
<glyph unicode="T" horiz-adv-x="1256" d="M1230 1479v-180h-502v-1299h-202v1299h-498v180h1202z" />
<glyph unicode="U" horiz-adv-x="1489" d="M1327 1479v-993q0 -105 -35.5 -195.5t-105.5 -161.5q-71 -72 -187.5 -114t-268.5 -43q-282 0 -423.5 130.5t-145.5 373.5v1003h202v-965q0 -171 95 -269t272 -98q180 0 285.5 94.5t110.5 268.5v969h201z" />
<glyph unicode="V" horiz-adv-x="1375" d="M1128 1479h202l-538 -1479h-214l-538 1479h233l419 -1263z" />
<glyph unicode="W" horiz-adv-x="1941" d="M1688 1479h223l-392 -1479h-208l-337 1225l-346 -1225h-211l-384 1479h216l272 -1206l339 1206h216l339 -1206z" />
<glyph unicode="X" horiz-adv-x="1375" d="M815 756l517 -756h-249l-396 607l-410 -607h-239l529 759l-498 720h251l375 -566l376 566h240z" />
<glyph unicode="Y" horiz-adv-x="1375" d="M1119 1479h223l-557 -889v-590h-200v590l-554 889h242l422 -711z" />
<glyph unicode="Z" horiz-adv-x="1256" d="M1209 180v-180h-1162v164l906 1137h-839v178h1095v-173l-910 -1126h910z" />
<glyph unicode="a" horiz-adv-x="1147" d="M669 178q51 30 84.5 77.5t33.5 102.5v194q-29 -19 -84 -34t-111 -23q-57 -9 -118 -25.5t-108 -37.5t-77.5 -62t-30.5 -97q0 -78 52 -118.5t140 -40.5q51 0 109 17t110 47zM801 140q-77 -83 -174 -126.5t-215 -46.5q-151 0 -246 89t-95 214q0 60 15.5 109t39.5 83 q24 33 64 60t77 43q36 15 90.5 29t93.5 21q39 6 98 16t91 16q82 14 117 50.5t35 79.5q0 83 -63.5 133t-185.5 50q-110 0 -176.5 -53t-70.5 -160h-168q0 147 111.5 250.5t327.5 107.5q106 0 195.5 -32.5t150.5 -106.5q31 -37 46 -81.5t15 -97.5v-576q0 -60 22.5 -82t96.5 4 v-133q-28 -11 -58 -16t-61 -5q-84 0 -127 40.5t-46 120.5z" />
<glyph unicode="b" horiz-adv-x="1147" d="M631 1105q197 0 323.5 -149.5t133.5 -386.5q3 -85 -10.5 -166.5t-47.5 -161.5q-35 -80 -88.5 -140t-138.5 -97q-42 -19 -90 -28t-101 -9q-104 0 -187.5 42.5t-130.5 123.5l-14 -133h-164v1479h185v-538q59 78 138.5 119t191.5 45zM607 126q140 0 215.5 112.5t75.5 299.5 q0 198 -79 301.5t-222 103.5q-82 0 -143.5 -38.5t-94.5 -100.5q-34 -62 -49.5 -128.5t-15.5 -135.5q0 -202 78.5 -305.5t234.5 -108.5z" />
<glyph unicode="c" horiz-adv-x="1029" d="M815 379h176q-12 -111 -57 -194t-111 -129t-138 -67.5t-149 -21.5q-203 0 -340 158.5t-137 412.5q0 140 39.5 251t107.5 179q67 68 153 103.5t184 35.5q62 0 119.5 -11.5t114.5 -39.5q57 -29 100.5 -72t74.5 -112q16 -34 25.5 -73t13.5 -83h-173q-10 106 -83.5 166.5 t-184.5 60.5q-63 0 -114.5 -21t-93.5 -66q-43 -45 -67 -126t-24 -192q0 -170 85 -287.5t214 -117.5q109 0 176.5 62t88.5 184z" />
<glyph unicode="d" horiz-adv-x="1147" d="M556 943q-143 0 -222 -103.5t-79 -301.5q0 -187 75.5 -299.5t215.5 -112.5q157 5 235 108.5t78 305.5q0 69 -15.5 135.5t-48.5 128.5t-94.5 100.5t-144.5 38.5zM76 403q-7 40 -9.5 82t-1.5 84q7 237 133.5 386.5t323.5 149.5q113 -4 191.5 -45t138.5 -119v538h185v-1479 h-164v152q-48 -82 -139.5 -133.5t-192.5 -51.5q-106 0 -191 37t-138 97q-54 60 -88.5 140t-47.5 162z" />
<glyph unicode="e" horiz-adv-x="1147" d="M1025 804q27 -71 39.5 -153t9.5 -175h-804q0 -150 91.5 -246.5t226.5 -96.5q68 0 125 22t91 55q34 32 52.5 66t18.5 61h185q-30 -172 -161 -270t-321 -98q-114 0 -209 42.5t-157 116.5q-62 73 -97 170.5t-37 208.5q0 270 139.5 436t365.5 166q160 0 273.5 -81.5 t168.5 -223.5zM270 623h614q0 144 -87 234.5t-212 90.5q-128 0 -219 -95.5t-96 -229.5z" />
<glyph unicode="f" horiz-adv-x="569" d="M443 1505q28 0 51.5 -3t43.5 -9v-149q-15 3 -34 4t-42 1q-54 0 -76.5 -25t-22.5 -84v-164h175v-163h-175v-913h-185v913h-150v163h150v199q0 98 73.5 164t191.5 66z" />
<glyph unicode="g" horiz-adv-x="1228" d="M602 130q132 0 216 107.5t87 298.5q0 180 -82.5 283t-227.5 103q-56 0 -109 -23t-97 -67t-70.5 -116.5t-26.5 -163.5q0 -106 26.5 -189.5t71.5 -132.5t99 -74.5t113 -25.5zM1086 1083v-1036q0 -262 -128 -390.5t-358 -128.5q-33 0 -66 3t-75 12q-42 10 -79.5 25t-74.5 41 q-37 27 -63.5 61.5t-43.5 84.5q-8 26 -12.5 53.5t-5.5 58.5h180q0 -80 68 -125t160 -45q150 0 233.5 83t83.5 253v64q-65 -70 -145.5 -99t-183.5 -29q-84 0 -166.5 36.5t-150.5 103.5q-69 66 -112.5 171t-46.5 230q0 277 139.5 436t362.5 159q98 0 180 -42t123 -110v130h181 z" />
<glyph unicode="h" horiz-adv-x="1147" d="M1012 716v-716h-185v704q0 117 -50 178t-161 61q-61 0 -113.5 -21t-95.5 -62q-44 -42 -69 -112.5t-25 -162.5v-585h-185v1479h185v-547q55 85 147 128t187 47q55 0 104 -10.5t98 -37.5q49 -28 84 -71t57 -112q11 -35 16.5 -75t5.5 -85z" />
<glyph unicode="i" horiz-adv-x="460" d="M318 1474v-203h-185v203h185zM318 1076v-1076h-185v1076h185z" />
<glyph unicode="j" horiz-adv-x="543" d="M405 1479v-208h-185v208h185zM405 1076v-1261q0 -106 -70 -175t-200 -69q-29 0 -52 1.5t-40 5.5v157q21 -5 41.5 -7.5t41.5 -2.5q51 0 72.5 29t21.5 101v1221h185z" />
<glyph unicode="k" horiz-adv-x="1029" d="M576 664l453 -664h-230l-356 526l-130 -128v-398h-185v1479h185v-860l460 457h232z" />
<glyph unicode="l" horiz-adv-x="460" d="M320 1479v-1479h-187v1479h187z" />
<glyph unicode="m" horiz-adv-x="1711" d="M1586 742v-742h-185v695q0 124 -49.5 186t-149.5 62q-108 0 -177 -78t-74 -211v-654h-185v742q0 84 -42 142.5t-131 58.5q-53 0 -99.5 -18.5t-86.5 -57.5q-41 -40 -65.5 -112.5t-26.5 -169.5v-585h-185v1076h171v-152q57 89 144 135t186 46q113 0 179.5 -46t109.5 -127 q46 72 131 122.5t198 50.5q42 0 84 -8.5t89 -33.5t82 -63.5t59 -104.5q11 -34 17 -72t6 -81z" />
<glyph unicode="n" horiz-adv-x="1147" d="M1012 716v-716h-185v673q0 61 -10 107.5t-33 84.5t-65.5 58t-102.5 20q-130 0 -216.5 -88.5t-86.5 -240.5v-614h-185v1076h175v-156q15 24 43.5 52.5t72.5 60.5q43 31 103.5 51.5t124.5 20.5q166 0 265.5 -96t99.5 -293z" />
<glyph unicode="o" horiz-adv-x="1147" d="M848 1028q116 -79 174.5 -207t58.5 -283q0 -112 -34.5 -213t-97.5 -179q-63 -79 -159.5 -126.5t-213.5 -50.5q-94 0 -175 30.5t-140 84.5q-60 53 -102.5 124.5t-63.5 155.5q-11 42 -16.5 85.5t-5.5 88.5q0 155 58 283t174 207t271 79t272 -79zM817 256q35 59 53 129 t21 153q1 68 -16.5 136t-53.5 130q-36 61 -100 100.5t-145 41.5q-80 0 -143 -39t-98 -101q-36 -63 -54 -131.5t-18 -136.5q0 -81 18 -152.5t54 -130.5t98 -93t143 -34q82 0 143.5 34t97.5 94z" />
<glyph unicode="p" horiz-adv-x="1147" d="M600 133q143 0 222 103.5t79 301.5q0 187 -76 300t-216 113q-160 -6 -236.5 -114t-76.5 -301q0 -69 15.5 -135t48.5 -128q33 -63 95 -101.5t145 -38.5zM1080 674q7 -41 9.5 -82.5t0.5 -84.5q-7 -237 -134 -386t-325 -149q-112 3 -190 44t-138 119v-562h-187v1503h166 v-152q48 82 139.5 133.5t192.5 51.5q106 0 191 -37t139 -97q53 -60 88 -140t48 -161z" />
<glyph unicode="q" horiz-adv-x="1147" d="M505 -28q-201 0 -328 143.5t-132 391.5q0 85 14 166t49 162q34 80 86.5 139.5t136.5 97.5q42 18 89.5 27.5t100.5 9.5q103 0 186 -42.5t130 -123.5l16 133h166v-1503h-185v562q-62 -78 -140 -119t-189 -44zM526 951q-140 0 -215.5 -113t-75.5 -300q0 -198 80 -301.5 t223 -103.5q66 0 119 26t87 67q33 41 55 95.5t31 107.5q5 27 7 53.5t2 53.5q0 202 -78 306t-235 109z" />
<glyph unicode="r" horiz-adv-x="683" d="M609 1100v-187q-154 0 -250 -71.5t-96 -196.5v-645h-185v1076h178v-182q47 103 135.5 154.5t217.5 51.5z" />
<glyph unicode="s" horiz-adv-x="1029" d="M941 421q9 -22 14 -45.5t5 -50.5q0 -155 -113.5 -256.5t-310.5 -101.5q-97 0 -176 20.5t-142 64.5q-64 44 -102 118.5t-45 175.5h178q0 -110 72 -165t215 -55q101 0 172.5 43t71.5 125q0 44 -23 70t-102 55q-39 15 -101 32t-146 37q-48 12 -81.5 22.5t-77.5 32.5 q-45 22 -72.5 49t-47.5 72q-10 22 -15 47t-5 52q0 163 114.5 253.5t293.5 90.5q99 0 175.5 -26t118.5 -63t69.5 -86.5t36.5 -87.5q4 -19 6.5 -38t3.5 -38h-176q0 88 -64 134t-189 46q-15 0 -30 -1t-42 -5q-27 -5 -49 -15t-44 -26q-23 -16 -36 -43t-15 -62q0 -66 62.5 -95.5 t267.5 -78.5q12 -2 20.5 -4t14.5 -4q55 -15 95.5 -30t83.5 -39t70 -53t45 -71z" />
<glyph unicode="t" horiz-adv-x="569" d="M462 121q17 0 36 2t40 5v-152q-28 -6 -52 -9t-43 -3q-118 0 -191.5 67t-73.5 163v719h-140v163h140v304h185v-304h175v-163h-175v-681q0 -59 22.5 -85t76.5 -26z" />
<glyph unicode="u" horiz-adv-x="1147" d="M116 360v716h187v-673q0 -61 10 -107.5t33 -84.5t65.5 -58t102.5 -20q129 0 216.5 89t87.5 240v614h185v-1076h-178v156q-14 -24 -43 -52.5t-72 -59.5t-104 -51.5t-125 -20.5q-166 0 -265.5 95.5t-99.5 292.5z" />
<glyph unicode="v" horiz-adv-x="1029" d="M794 1076h194l-410 -1076h-194l-391 1076h206l294 -882z" />
<glyph unicode="w" horiz-adv-x="1489" d="M1278 1076h180l-311 -1076h-189l-216 832l-216 -832h-189l-309 1076h197l204 -848l220 848h202l211 -848z" />
<glyph unicode="x" horiz-adv-x="1029" d="M628 552l379 -552h-232l-265 405l-261 -405h-228l380 555l-361 521h233l248 -381l252 381h218z" />
<glyph unicode="y" horiz-adv-x="1029" d="M813 1076h194q-166 -472 -314.5 -865.5t-182.5 -461.5q-66 -133 -149 -171.5t-235 -4.5v166q35 -13 63.5 -18.5t60.5 -3.5q31 3 57.5 22.5t45.5 56.5l74 171l-403 1109h204l293 -879z" />
<glyph unicode="z" horiz-adv-x="1029" d="M965 147v-147h-901v140l647 784h-597v152h829v-149l-642 -780h664z" />
<glyph unicode="&#x201c;" d="M1792 1024q53 0 90.5 -37.5t37.5 -90.5v-512q0 -53 -37.5 -90.5t-90.5 -37.5h-384q-106 0 -181 75t-75 181v512q0 130 50 247.5t135 202.5q84 85 201.5 136.5t247.5 53.5q49 0 89 -31t45 -78q10 -57 -30 -102t-98 -45q-158 0 -271 -113t-113 -271h384zM768 1024 q53 0 90.5 -37.5t37.5 -90.5v-512q0 -53 -37.5 -90.5t-90.5 -37.5h-384q-106 0 -181 75t-75 181v512q0 130 50 247.5t135 202.5q84 85 201.5 136.5t247.5 53.5q49 0 89 -31t45 -78q10 -57 -30 -102t-98 -45q-158 0 -271 -113t-113 -271h384z" />
<glyph unicode="&#x2139;" d="M700 1791q154 65 324 65t324 -65q154 -66 265.5 -177.5t177.5 -265.5q65 -154 65 -324t-65 -324q-66 -154 -177.5 -265.5t-265.5 -176.5q-154 -66 -324 -66t-324 66q-154 65 -265.5 176.5t-176.5 265.5q-66 154 -66 324t66 324q65 154 176.5 265.5t265.5 177.5zM934 1382 q37 -38 90 -38t91 38q37 37 37 90t-37 91q-38 37 -91 37t-90 -37q-38 -38 -38 -91t38 -90zM896 448h256v768h-256v-768z" />
<glyph unicode="&#x21a9;" d="M1862 966q93 -92 139.5 -221.5t46.5 -296.5q0 -53 -37.5 -90.5t-90.5 -37.5t-90.5 37.5t-37.5 90.5q0 115 -27 200t-82 139q-63 64 -170.5 91.5t-258.5 17.5h-38v-512q0 -67 -37 -104t-85 -37q-18 0 -40 8t-49 24l-935 627q-33 20 -51.5 51.5t-18.5 70.5t18.5 70.5 t51.5 51.5l941 627q22 16 44.5 24t45.5 8q43 0 79 -37t36 -104v-512h32q204 11 357.5 -35.5t256.5 -150.5z" />
<glyph unicode="&#x21aa;" d="M947 243q-43 0 -79 37t-36 104v512h-53q-36 0 -59 -0.5t-66 -2.5q-44 -3 -78 -10t-74 -18q-40 -12 -74.5 -32t-62.5 -46q-54 -54 -81.5 -139t-27.5 -200q0 -53 -37.5 -90.5t-90.5 -37.5t-90.5 37.5t-37.5 90.5q0 167 48 298t144 227q40 38 88.5 68.5t92.5 49.5 q43 19 97.5 33t93.5 21q38 6 90 9.5t77 3.5h107v506q0 67 37 104t85 37q18 0 40.5 -8t49.5 -24l940 -627q26 -21 42 -53t16 -69q0 -39 -18.5 -70.5t-51.5 -51.5l-941 -627q-21 -16 -43.5 -24t-46.5 -8z" />
<glyph unicode="&#x21ba;" d="M64 1216v576q0 19 12 36t26 22q20 9 40.5 5t30.5 -18l192 -211q125 140 296.5 217t362.5 77q109 0 214.5 -26t197.5 -74q91 -48 170.5 -115t140.5 -151t103 -179t60 -203q9 -54 11.5 -108.5t-1.5 -109.5q-16 -194 -110 -363t-249 -286q-77 -58 -163.5 -97.5t-181.5 -60.5 q-215 -43 -424.5 15t-369.5 203q-37 33 -38.5 87t32.5 92q34 39 87 41.5t92 -35.5q86 -81 197 -123.5t232 -42.5q91 0 178.5 26t161.5 73q73 46 133 112.5t99 144.5q39 77 56 168.5t6 185.5q-16 139 -90.5 258.5t-191.5 198.5q-58 39 -122 64t-134 36q-170 28 -325.5 -31 t-263.5 -186l218 -237q16 -16 19.5 -33.5t-6.5 -37.5q-5 -18 -21.5 -28t-36.5 -10h-512q-53 0 -90.5 37.5t-37.5 90.5z" />
<glyph unicode="&#x21bb;" d="M1953 1850q18 -5 28 -21.5t10 -36.5v-576q0 -53 -37.5 -90.5t-90.5 -37.5h-512q-20 0 -36.5 10t-21.5 28q-9 20 -6 37.5t19 33.5l218 243q-108 127 -263.5 186.5t-325.5 31.5q-139 -23 -256 -101t-191 -197q-38 -60 -60.5 -124.5t-30.5 -134.5q-11 -96 5.5 -188.5 t55.5 -170.5q38 -79 98 -146t133 -113q73 -47 161 -73t181 -26q121 0 232.5 42.5t202.5 123.5q39 38 92 35.5t87 -41.5q35 -38 33.5 -92t-39.5 -87q-105 -96 -235.5 -155t-271.5 -75q-70 -8 -142 -5t-145 17q-192 41 -348.5 158t-250.5 286q-48 85 -75.5 175.5t-35.5 187.5 q-9 129 17.5 253.5t82.5 230.5q56 105 139.5 195t185.5 153q101 63 222 98.5t249 35.5q192 0 365.5 -77.5t293.5 -216.5l186 204q14 19 36 24.5t41 -4.5z" />
<glyph unicode="&#x21c6;" d="M1907 1568q23 -22 34 -46t11 -50q0 -30 -11 -54t-34 -42l-390 -333q-9 -9 -20.5 -14t-24.5 -5q-9 0 -15.5 1.5t-10.5 4.5q-18 5 -28 21.5t-10 36.5v256h-1216q-53 0 -90.5 37.5t-37.5 90.5t37.5 90.5t90.5 37.5h1216v256q0 20 10 36.5t28 21.5q20 10 37.5 6.5t33.5 -19.5 zM1984 576q0 -53 -37.5 -90.5t-90.5 -37.5h-1216v-256q0 -20 -10 -36.5t-28 -21.5q-17 -8 -35 -6.5t-36 13.5l-390 333q-22 22 -33.5 46t-11.5 50q0 30 11.5 54t33.5 42l390 332q9 13 20 19.5t25 6.5q10 0 16.5 -1.5t9.5 -4.5q12 -3 21 -12t13 -21q2 -6 3 -12t1 -13v-256 h1216q53 0 90.5 -37.5t37.5 -90.5z" />
<glyph unicode="&#x2260;" d="M1984 640q0 -53 -37.5 -90.5t-90.5 -37.5h-326l185 -320q25 -48 10.5 -98.5t-61.5 -74.5q-14 -9 -30 -14t-34 -5q-34 0 -64 17.5t-45 46.5l-1024 1792q-29 48 -16 98.5t61 74.5q48 29 98.5 16t74.5 -61l256 -448h915q53 0 90.5 -37.5t37.5 -90.5t-37.5 -90.5t-90.5 -37.5 h-768l294 -512h474q53 0 90.5 -37.5t37.5 -90.5zM192 1536h294l148 -256h-442q-53 0 -90.5 37.5t-37.5 90.5t37.5 90.5t90.5 37.5zM192 768h742l148 -256h-890q-53 0 -90.5 37.5t-37.5 90.5t37.5 90.5t90.5 37.5z" />
<glyph unicode="&#x22c6;" d="M1720 186q-5 -58 -43 -96.5t-91 -38.5q-9 0 -23.5 3.5t-34.5 9.5l-499 262l-493 -262q-34 -19 -69.5 -15.5t-64.5 28.5q-29 19 -42.5 54t-8.5 74l96 550l-397 391q-24 24 -33 59.5t1 74.5q6 22 22 41.5t37 32.5q11 6 21.5 10t21.5 6l551 83l249 499q14 33 45 51.5 t70 18.5t70 -18.5t46 -51.5l249 -499l551 -83q38 -5 65 -28.5t37 -61.5q9 -34 0.5 -69.5t-32.5 -64.5l-397 -391l90 -531q3 -6 4.5 -15.5t1.5 -22.5z" />
<glyph unicode="&#x2302;" d="M2005 1120q42 -38 45 -90.5t-32 -95.5q-19 -19 -43 -28.5t-53 -9.5q-23 0 -45.5 8t-44.5 24l-806 755l-806 -755q-39 -38 -92 -35.5t-88 41.5q-37 39 -34.5 92t41.5 88l806 755q72 67 173 67t173 -67zM386 896l640 576l640 -576v-704q0 -53 -37.5 -90.5t-90.5 -37.5h-320 v512h-384v-512h-320q-53 0 -90.5 37.5t-37.5 90.5v704z" />
<glyph unicode="&#x2316;" d="M1779 1152h141q53 0 90.5 -37.5t37.5 -90.5t-37.5 -90.5t-90.5 -37.5h-141q-25 -158 -113 -292t-222 -222q-67 -44 -140 -72t-152 -41v-141q0 -53 -37.5 -90.5t-90.5 -37.5t-90.5 37.5t-37.5 90.5v141q-158 25 -292 113t-222 222q-44 67 -72 140t-41 152h-141 q-53 0 -90.5 37.5t-37.5 90.5t37.5 90.5t90.5 37.5h141q25 158 113 292t222 222q67 44 140 72.5t152 40.5v141q0 53 37.5 90.5t90.5 37.5t90.5 -37.5t37.5 -90.5v-141q158 -25 292 -113t222 -222q44 -67 72.5 -140t40.5 -152zM768 581q118 -69 256 -69t256 69t187 187 t69 256t-69 256t-187 187t-256 69t-256 -69t-187 -187t-69 -256t69 -256t187 -187zM888 888q-56 56 -56 136t56 136t136 56t136 -56t56 -136t-56 -136t-136 -56t-136 56z" />
<glyph unicode="&#x2399;" d="M1408 2048q106 0 181 -75t75 -181v-128h-1280v128q0 106 75 181t181 75h768zM128 1536h1792q53 0 90.5 -37.5t37.5 -90.5v-832q0 -53 -37.5 -90.5t-90.5 -37.5h-320v-192q0 -106 -75 -181t-181 -75h-640q-106 0 -181 75t-75 181v192h-320q-53 0 -90.5 37.5t-37.5 90.5 v832q0 53 37.5 90.5t90.5 37.5zM1574 1062q37 -38 90 -38t91 38q37 37 37 90t-37 91q-38 37 -91 37t-90 -37q-38 -38 -38 -91t38 -90zM704 256h640v512h-640v-512z" />
<glyph unicode="&#x23cf;" d="M1845 909q-14 -38 -44.5 -57.5t-70.5 -19.5h-1408q-25 0 -48 10t-40 27q-9 9 -15.5 19t-11.5 21q-15 33 -10 72.5t29 68.5l704 768q38 38 95 38t91 -38l704 -768q24 -30 31.5 -66t-6.5 -75zM1858 384q0 -53 -37.5 -90.5t-90.5 -37.5h-1408q-53 0 -90.5 37.5t-37.5 90.5 t37.5 90.5t90.5 37.5h1408q53 0 90.5 -37.5t37.5 -90.5z" />
<glyph unicode="&#x23e9;" d="M1069 1587l576 -512q19 -19 19 -51t-19 -51l-576 -512q-26 -13 -45 -13t-26 6q-12 3 -21 12t-13 21q-2 6 -3 12.5t-1 12.5v365l-467 -416q-26 -13 -45 -13t-26 6q-18 5 -28 21.5t-10 36.5v1024q0 20 10 36.5t28 21.5q16 8 35.5 6t35.5 -13l467 -422v371q0 23 9.5 39 t28.5 25q23 6 41 3t30 -16z" />
<glyph unicode="&#x23ea;" d="M1555 1587q18 12 36 14t35 -7q9 -3 16.5 -8.5t12.5 -13.5q4 -8 6.5 -17t2.5 -19v-1018q0 -19 -9.5 -33t-28.5 -24q-3 -3 -9.5 -5t-16.5 -2q-16 0 -27 3.5t-18 9.5l-467 416v-371q0 -19 -9.5 -33.5t-28.5 -24.5q-3 -3 -9.5 -4.5t-16.5 -1.5q-16 0 -27 3.5t-18 9.5 l-576 512q-19 19 -19 51t19 51l576 512q18 12 36 14t35 -7q18 -5 28 -21.5t10 -36.5v-371z" />
<glyph unicode="&#x23ed;" d="M467 1824l768 -704q23 -22 34 -46t11 -50q0 -30 -11 -54t-34 -42l-768 -704q-16 -16 -36.5 -24t-46.5 -8q-6 0 -19 3.5t-32 9.5q-17 7 -31 19t-24 27q-11 14 -16.5 32t-5.5 37v1408q0 38 21.5 69.5t55.5 45.5q34 18 71.5 12t62.5 -31zM1664 1856q53 0 90.5 -37.5 t37.5 -90.5v-1408q0 -53 -37.5 -90.5t-90.5 -37.5t-90.5 37.5t-37.5 90.5v1408q0 53 37.5 90.5t90.5 37.5z" />
<glyph unicode="&#x23ee;" d="M1722 1850q30 -21 50 -53t20 -69v-1408q0 -25 -10 -48t-27 -40q-8 -9 -18 -15.5t-22 -11.5q-19 -6 -31.5 -9.5t-19.5 -3.5q-25 0 -46 8t-37 24l-768 704q-45 36 -45 96t45 96l768 704q30 25 65.5 32t75.5 -6zM384 192q-53 0 -90.5 37.5t-37.5 90.5v1408q0 53 37.5 90.5 t90.5 37.5t90.5 -37.5t37.5 -90.5v-1408q0 -53 -37.5 -90.5t-90.5 -37.5z" />
<glyph unicode="&#x23f0;" d="M1808 1984q106 -82 125.5 -212t-61.5 -236l-13 -19q-63 86 -145.5 157t-177.5 124q-48 26 -98.5 47t-103.5 37l26 38q82 106 212 125.5t236 -61.5zM272 1984q106 81 236 61.5t212 -125.5l32 -38q-159 -49 -294 -142.5t-231 -222.5l-19 19q-81 106 -61.5 236t125.5 212z M1712 403l186 -185q38 -39 38 -90t-38 -89q-39 -39 -90 -39t-90 38l-185 186q-110 -80 -233 -120t-260 -40q-138 0 -264.5 41.5t-228.5 118.5l-185 -186q-39 -38 -90 -38t-89 39q-39 38 -39 89t38 90l186 185q-80 110 -120 233.5t-40 259.5q0 170 65.5 324t177.5 266 q111 111 265 176.5t324 65.5t324 -65.5t266 -176.5q111 -112 176.5 -266t65.5 -324q0 -136 -40 -259.5t-120 -233.5zM510 1121q-46 -107 -46 -225t46 -224q45 -107 122 -184t184 -122q106 -46 224 -46t225 46q106 45 183 122t123 184q45 106 45 224t-45 225 q-46 106 -123 183t-183 123q-107 45 -225 45t-224 -45q-107 -46 -184 -123t-122 -183zM1354 583q-39 -39 -90 -39t-90 38l-185 186q-38 39 -57.5 83.5t-19.5 95.5v269q0 53 37.5 90.5t90.5 37.5t90.5 -37.5t37.5 -90.5v-269l186 -185q38 -39 38 -90t-38 -89z" />
<glyph unicode="&#x23f1;" d="M1805 1523l89 -89q39 -39 39 -90t-39 -90l-102 -102q32 -68 48 -148t16 -172q0 -170 -65.5 -324t-176.5 -265q-112 -112 -266 -177.5t-324 -65.5t-324 65.5t-265 177.5q-112 111 -177.5 265t-65.5 324q0 153 54.5 295t148.5 250t224 182.5t277 98.5v134h-256 q-53 0 -90.5 37.5t-37.5 90.5t37.5 90.5t90.5 37.5h774q53 0 90.5 -37.5t37.5 -90.5t-37.5 -90.5t-90.5 -37.5h-256v-141q110 -13 212.5 -59.5t197.5 -125.5l58 57q38 39 89 39t90 -39zM896 781l422 -423l180 180l-346 345v525h-256v-627z" />
<glyph unicode="&#x23f2;" d="M1296 37q-133 -37 -272 -37t-271 37q-133 37 -245 103t-207 161t-161 207t-103 245q-37 132 -37 271t37 272q37 132 103 244t161 207t207 161t245 103q132 37 271 37t272 -37q132 -37 244 -103t207 -161t161 -207t103 -244q37 -133 37 -272t-37 -271q-37 -133 -103 -245 t-161 -207t-207 -161t-244 -103zM1322 1731q-142 61 -298 61t-298 -61t-245 -164t-164 -245t-61 -298t61 -298t164 -245t245 -164t298 -61t298 61t245 164t164 245t61 298t-61 298t-164 245t-245 164zM1446 691q-20 -25 -45.5 -38t-56.5 -13q-25 0 -44.5 6.5t-32.5 19.5 l-269 217q-48 39 -72 88.5t-24 110.5v390q0 53 38 90.5t91 37.5q52 0 89.5 -37.5t37.5 -90.5v-384l269 -218q43 -33 48 -84.5t-29 -94.5z" />
<glyph unicode="&#x23f3;" d="M1664 256h128q53 0 90.5 -37.5t37.5 -90.5t-37.5 -90.5t-90.5 -37.5h-1536q-53 0 -90.5 37.5t-37.5 90.5t37.5 90.5t90.5 37.5h128v256q0 55 9 105t24 89q14 39 38 75t47 63q23 26 55.5 51.5t58.5 42.5t62 35t59 28q12 5 26 11t31 12q14 4 35.5 13.5t28.5 12.5 q-11 8 -27 14t-37 11q-1 1 -3 1.5t-5 1.5q-48 17 -74 27.5t-75 35.5q-49 24 -78 48t-66 65q-38 41 -58.5 87.5t-35.5 113.5q-7 34 -11 70t-4 75v192h-128q-53 0 -90.5 37.5t-37.5 90.5t37.5 90.5t90.5 37.5h1536q53 0 90.5 -37.5t37.5 -90.5t-37.5 -90.5t-90.5 -37.5h-128 v-192q0 -80 -15 -147.5t-37 -114.5t-60 -87.5t-68 -64.5q-31 -24 -79.5 -47t-75.5 -33q-14 -5 -32.5 -11t-42.5 -13q-6 -4 -22 -10.5t-42 -15.5q10 -3 29 -12.5t29 -13.5q1 0 2.5 -0.5t2.5 -1.5q49 -20 76 -32.5t77 -39.5q50 -28 79.5 -53t68.5 -66q38 -41 59 -85.5 t36 -106.5q8 -31 11.5 -64t3.5 -69v-256zM640 1792v-256h768v256h-768zM1414 512q0 35 -6 64.5t-15 51.5q-10 22 -30 42.5t-37 34.5q-18 14 -50 31t-56 28q-13 6 -29.5 13.5t-38.5 16.5q-22 10 -52.5 24t-69.5 33h-12q-17 -11 -38.5 -21t-45.5 -19q-12 -5 -21.5 -9t-16.5 -8 q-40 -18 -65 -30t-55 -29t-48.5 -32t-36.5 -35q-19 -20 -29 -42.5t-16 -50.5q-3 -15 -4.5 -30.5t-1.5 -32.5h774z" />
<glyph unicode="&#x2421;" d="M1203 1024l423 -422q38 -39 38 -90t-38 -89q-39 -39 -90 -39t-90 38l-422 423l-422 -423q-39 -38 -90 -38t-89 39q-39 38 -39 89t38 90l423 422l-423 422q-38 39 -38 90t39 90q38 38 89 38t90 -38l422 -423l422 423q39 38 90 38t90 -38q38 -39 38 -90t-38 -90z" />
<glyph unicode="&#x25a0;" d="M1664 1536v-1024q0 -53 -37.5 -90.5t-90.5 -37.5h-1024q-53 0 -90.5 37.5t-37.5 90.5v1024q0 53 37.5 90.5t90.5 37.5h1024q53 0 90.5 -37.5t37.5 -90.5z" />
<glyph unicode="&#x25b4;" d="M1930 685q29 -34 10.5 -71.5t-61.5 -37.5h-1690q-43 0 -58.5 37.5t13.5 71.5l794 877q38 43 96 43t96 -43z" />
<glyph unicode="&#x25b6;" d="M1555 1133q32 -18 48 -45.5t16 -63.5q0 -35 -14 -62t-43 -47l-788 -512q-14 -9 -31.5 -14t-38.5 -5q-13 0 -29 3.5t-35 9.5q-32 21 -48 50t-16 65v1024q0 22 8 44t23 40q7 9 15.5 17t17.5 14q28 15 64 14t64 -20z" />
<glyph unicode="&#x25b9;" d="M685 128q-34 -29 -71.5 -10.5t-37.5 61.5v1690q0 43 37.5 58.5t71.5 -13.5l877 -800q43 -39 43 -96.5t-43 -95.5z" />
<glyph unicode="&#x25bb;" d="M798 294q-19 -19 -41.5 -28.5t-48.5 -9.5q-30 0 -54 11.5t-42 33.5q-33 38 -29.5 89t42.5 90l544 544l-544 544q-35 35 -41 82t22 91q33 47 93.5 52.5t98.5 -33.5l550 -550q77 -77 77 -182.5t-77 -182.5z" />
<glyph unicode="&#x25be;" d="M139 1363q-29 34 -10.5 71.5t61.5 37.5h1696q43 0 58.5 -37.5t-13.5 -71.5l-800 -877q-38 -43 -96 -43t-96 43z" />
<glyph unicode="&#x25c3;" d="M1363 1920q34 29 71.5 10.5t37.5 -61.5v-1696q0 -43 -37.5 -58.5t-71.5 13.5l-877 800q-43 38 -43 96t43 96z" />
<glyph unicode="&#x25c5;" d="M1440 301q-18 -22 -42 -33.5t-54 -11.5q-25 0 -47.5 9.5t-42.5 28.5l-550 551q-77 77 -77 182.5t77 182.5l544 544q35 34 81 40.5t85 -21.5q48 -33 53.5 -93.5t-33.5 -98.5l-551 -557l544 -544q39 -39 42.5 -90t-29.5 -89z" />
<glyph unicode="&#x25ce;" d="M1296 37q-133 -37 -272 -37t-271 37q-133 37 -245 103t-207 161t-161 207t-103 245q-37 132 -37 271t37 272q37 132 103 244t161 207t207 161t245 103q132 37 271 37t272 -37q132 -37 244 -103t207 -161t161 -207t103 -244q37 -133 37 -272t-37 -271q-37 -133 -103 -245 t-161 -207t-207 -161t-244 -103zM1322 1731q-142 61 -298 61t-298 -61t-245 -164t-164 -245t-61 -298t61 -298t164 -245t245 -164t298 -61t298 61t245 164t164 245t61 298t-61 298t-164 245t-245 164zM798 798q-94 93 -94 226t94 227q93 93 226 93t227 -93q93 -94 93 -227 t-93 -226q-94 -94 -227 -94t-226 94z" />
<glyph unicode="&#x25cf;" d="M435 776q-51 118 -51 248t51 249q50 118 136 204t205 137q118 50 248 50t249 -50q118 -51 204 -137t137 -204q50 -119 50 -249t-50 -248q-51 -119 -137 -205t-204 -136q-119 -51 -249 -51t-248 51q-119 50 -205 136t-136 205z" />
<glyph unicode="&#x25fc;" horiz-adv-x="1075" d="M0 1075h1075v-1075h-1075v1075z" />
<glyph unicode="&#x2600;" d="M1024 1600q-53 0 -90.5 37.5t-37.5 90.5v192q0 53 37.5 90.5t90.5 37.5t90.5 -37.5t37.5 -90.5v-192q0 -53 -37.5 -90.5t-90.5 -37.5zM1748 1748q38 -39 38 -90.5t-39 -89.5l-134 -134q-39 -39 -90 -39t-89 39q-39 38 -39 89t39 90l134 134q38 39 89.5 39t90.5 -38z M614 1613q39 -39 39 -92.5t-39 -86.5q-38 -39 -89 -39t-90 39l-134 134q-39 38 -39 89.5t39 90.5q38 38 89.5 38t89.5 -39zM636 799q-60 103 -60 225t60 225t163 163t225 60t225 -60t163 -163t60 -225t-60 -225t-163 -163t-225 -60t-225 60t-163 163zM2048 1024 q0 -53 -37.5 -90.5t-90.5 -37.5h-192q-53 0 -90.5 37.5t-37.5 90.5t37.5 90.5t90.5 37.5h192q53 0 90.5 -37.5t37.5 -90.5zM448 1024q0 -53 -37.5 -90.5t-90.5 -37.5h-192q-53 0 -90.5 37.5t-37.5 90.5t37.5 90.5t90.5 37.5h192q53 0 90.5 -37.5t37.5 -90.5zM435 614 q39 39 92.5 39t86.5 -39q39 -38 39 -89t-39 -90l-134 -134q-38 -39 -89.5 -39t-89.5 39q-39 38 -39 89.5t39 89.5zM1748 301q-39 -39 -90.5 -39t-89.5 39l-134 134q-39 39 -39 90t39 90q38 38 89 38t90 -39l134 -134q39 -38 39 -89.5t-38 -89.5zM1024 0q-53 0 -90.5 37.5 t-37.5 90.5v192q0 53 37.5 90.5t90.5 37.5t90.5 -37.5t37.5 -90.5v-192q0 -53 -37.5 -90.5t-90.5 -37.5z" />
<glyph unicode="&#x2601;" d="M1979 576q-69 -118 -187 -187t-256 -69h-1088q-187 0 -317.5 130.5t-130.5 317.5q0 110 50.5 206t138.5 158q43 31 92 50.5t103 27.5v6q0 118 45.5 224.5t122.5 183.5t183.5 122.5t224.5 45.5q135 0 254 -58.5t200 -160.5q41 -51 68 -108t41 -121h13q138 0 256 -69 t187 -187t69 -256t-69 -256z" />
<glyph unicode="&#x2602;" d="M1869 1275q22 -58 36 -117t19 -121q0 -58 -37.5 -99.5t-90.5 -41.5h-1536q-57 0 -95 41.5t-33 99.5q14 154 79 293t166 246q101 106 236 178t287 96v70q0 53 37.5 90.5t90.5 37.5t90.5 -37.5t37.5 -90.5v-70q122 -19 233.5 -69t203.5 -125q91 -76 161.5 -171.5 t114.5 -209.5zM900 384v384h256v-384q0 -158 -113 -271t-271 -113t-271 113t-113 271q0 53 37.5 90.5t90.5 37.5t90.5 -37.5t37.5 -90.5t37.5 -90.5t90.5 -37.5t90.5 37.5t37.5 90.5z" />
<glyph unicode="&#x2606;" d="M1413 416l-77 429l314 301l-429 64l-192 390l-192 -390l-429 -64l314 -301l-77 -429l384 198zM1944 1363q36 -10 64.5 -33.5t38.5 -55.5q6 -24 4 -47t-14 -46q-7 -11 -15.5 -21.5t-19.5 -20.5l-397 -390l90 -531q3 -6 4.5 -16t1.5 -23q0 -53 -37.5 -90.5t-90.5 -37.5 q-9 0 -23.5 3.5t-34.5 9.5l-492 262l-493 -262q-33 -15 -70 -12.5t-65 25.5q-30 26 -42.5 58t-8.5 70l96 550l-397 391q-24 24 -32.5 59t0.5 69q10 38 37 61t66 28l550 77l250 499q14 33 45 52t70 19t70 -19t45 -52l250 -499z" />
<glyph unicode="&#x2607;" d="M1080 77q-14 -34 -45.5 -55.5t-69.5 -21.5q-6 0 -19 3.5t-32 9.5q-48 19 -69 68.5t-2 97.5l314 717h-320q-63 0 -120.5 31.5t-90.5 83.5q-35 55 -41 117t22 126l307 717q19 48 68.5 69t97.5 2q48 -20 69 -69.5t2 -97.5l-314 -723h320q63 0 120.5 -31.5t90.5 -83.5 q35 -55 41 -117t-22 -126z" />
<glyph unicode="&#x2615;" d="M1472 1472h192q106 0 181 -75t75 -181v-448q0 -106 -75 -181t-181 -75h-192v-192q0 -106 -75 -181t-181 -75h-832q-106 0 -181 75t-75 181v1472q0 24 20 44t44 20h1216q24 0 44 -20t20 -44v-320zM1472 768h192v448h-192v-448z" />
<glyph unicode="&#x2640;" d="M1345 1898q147 -86 233 -233.5t86 -320.5q0 -151 -66.5 -285t-182.5 -224q-59 -45 -124.5 -74.5t-138.5 -43.5v-141h192q53 0 90.5 -37.5t37.5 -90.5t-37.5 -90.5t-90.5 -37.5h-192v-192q0 -53 -37.5 -90.5t-90.5 -37.5t-90.5 37.5t-37.5 90.5v192h-192q-53 0 -90.5 37.5 t-37.5 90.5t37.5 90.5t90.5 37.5h192v141q-109 21 -204 79t-162 141q-68 82 -107 188t-39 219q0 173 86 320.5t234 233.5q147 86 320 86t321 -86zM753 1073q113 -113 271 -113t271 113t113 271t-113 271t-271 113t-271 -113t-113 -271t113 -271z" />
<glyph unicode="&#x2642;" d="M1216 1856h512q53 0 90.5 -37.5t37.5 -90.5v-512q0 -53 -37.5 -90.5t-90.5 -37.5t-90.5 37.5t-37.5 90.5v205l-173 -173q55 -79 82 -167t27 -185q0 -173 -86 -320.5t-233 -233.5q-148 -86 -321 -86t-320 86q-148 86 -234 233.5t-86 320.5t86 320.5t234 233.5 q73 43 153.5 64.5t166.5 21.5q97 0 185 -27t167 -82l173 173h-205q-53 0 -90.5 37.5t-37.5 90.5t37.5 90.5t90.5 37.5zM625 625q113 -113 271 -113t271 113t113 271t-113 271t-271 113t-271 -113t-113 -271t113 -271z" />
<glyph unicode="&#x2661;" d="M1024 122q-21 0 -38.5 5t-31.5 14q-179 117 -323 231t-242 210q-98 95 -170.5 189.5t-113.5 169.5q-41 74 -65.5 149.5t-31.5 129.5q-4 27 -6 55t-2 56v13q0 88 29 179.5t83 173.5q53 81 123.5 146t161.5 103q46 19 92 28.5t93 9.5q60 0 116.5 -15t102.5 -40 q45 -25 87.5 -60t74.5 -70q16 -18 31.5 -37t29.5 -40q26 34 52 63.5t58 59.5t67 53.5t75 43.5q40 19 86.5 29.5t96.5 12.5h7q93 0 181.5 -36t158.5 -98q69 -62 123 -141t85 -168q15 -45 23.5 -89.5t10.5 -88.5v-38q0 -59 -8 -113.5t-32 -129.5q-25 -76 -66.5 -150 t-114.5 -167t-171 -186.5t-241 -204.5q-72 -56 -152 -112.5t-169 -114.5q-12 -12 -29.5 -18.5t-40.5 -6.5zM1024 410q124 83 228.5 164t178.5 148q74 66 133.5 133t96.5 117t63.5 103t39.5 86q12 33 19 72t8 55q1 8 1 18.5v22.5v21q-3 92 -50.5 179.5t-122.5 143.5 q-38 27 -76 41t-77 14h-7q-29 0 -57 -8.5t-53 -25.5q-26 -18 -48 -36t-44 -46q-22 -29 -37.5 -50t-34.5 -53t-28 -49t-24 -46q-14 -33 -45 -51.5t-70 -18.5q-35 0 -66 18.5t-50 51.5q-19 45 -40.5 85t-52.5 84q-31 43 -64 74t-75 51q-22 10 -43.5 15t-44.5 5q-78 0 -154 -57 t-124 -146q-24 -45 -36 -90t-12 -91v-15q0 -26 1 -43t8 -56t19.5 -72t39.5 -86q26 -53 63 -102.5t97 -115.5q59 -67 133 -133.5t179 -146.5q52 -41 109 -81.5t119 -82.5z" />
<glyph unicode="&#x2665;" d="M1899 1802q68 -81 109 -185.5t41 -208.5v-20q1 -48 -0.5 -81t-18.5 -110q-18 -78 -51 -146.5t-103 -173.5t-168.5 -207t-255.5 -233q-79 -65 -168 -131t-189 -133q-33 -19 -72.5 -19t-67.5 19q-199 133 -356.5 264t-255.5 233q-99 102 -169 207t-103 174 q-33 68 -50.5 145.5t-18.5 110.5q-1 17 -1 37v44v20q0 104 41 208.5t109 185.5t164 131.5t198 50.5q98 0 190 -40.5t160 -107.5t111.5 -157.5t50.5 -187.5q7 97 50.5 187.5t111.5 157.5t160 107.5t190 40.5q102 0 198 -50.5t164 -131.5z" />
<glyph unicode="&#x266b;" d="M832 1504v-134l832 243v134zM448 0q-159 0 -271.5 93t-112.5 227t112.5 227t271.5 93q35 0 67 -4.5t61 -14.5v883q0 86 51.5 152.5t134.5 90.5l832 243q57 20 116.5 10t107.5 -48q48 -34 75 -88t27 -117v-1184q-5 -64 -37 -120.5t-83 -97.5t-119.5 -65t-144.5 -24 q-159 0 -271.5 93t-112.5 227t112.5 227t271.5 93q35 0 67 -4.5t61 -14.5v473l-832 -243v-800q-5 -64 -37 -120.5t-83 -97.5t-119.5 -65t-144.5 -24z" />
<glyph unicode="&#x267f;" d="M706 1666q-66 65 -66 158t66 159q65 65 158 65t159 -65q65 -66 65 -159t-65 -158q-66 -66 -159 -66t-158 66zM1722 301q17 -35 8.5 -64t-34.5 -45q-24 -9 -52.5 -1.5t-43.5 27.5l-320 422h-262q-96 0 -169 63t-87 155l-58 396q-10 78 37 143.5t123 74.5q77 10 140 -36.5 t78 -123.5l6 -38l384 -58q24 -5 40 -26t11 -44q-5 -21 -19 -36.5t-32 -15.5l-352 -44l19 -148h211q31 0 55 -14t41 -43zM896 256q118 0 213 64t139 166l173 -211q-58 -83 -138.5 -144.5t-179.5 -95.5q-50 -18 -101.5 -26.5t-105.5 -8.5q-173 0 -320.5 86t-233.5 234 q-43 73 -64.5 153.5t-21.5 166.5q0 119 42 229t117 195q37 43 80.5 77.5t93.5 61.5l38 -288q-54 -54 -84.5 -124.5t-30.5 -150.5q0 -158 113 -271t271 -113z" />
<glyph unicode="&#x2691;" d="M1850 1126q3 -6 4.5 -15.5t1.5 -22.5q0 -24 -20 -44t-44 -20h-1216v-890q0 -48 -30.5 -86t-78.5 -48q-57 -10 -102 30t-45 98v1664q0 106 75 181t181 75h1216q7 0 15 -2.5t16 -6.5q7 -4 12.5 -10t7.5 -13q9 -9 10.5 -26.5t-3.5 -31.5l-180 -422z" />
<glyph unicode="&#x2696;" d="M866 1666q-66 65 -66 158t66 159q65 65 158 65t159 -65q65 -66 65 -159t-65 -158q-66 -66 -159 -66t-158 66zM2048 1344q0 -53 -37.5 -90.5t-90.5 -37.5h-275q0 -3 1.5 -4.5t4.5 -1.5l314 -634h-288l-141 288l-147 -288h-288l313 634q0 3 2 4.5t5 1.5h-800q0 -3 1.5 -4.5 t4.5 -1.5l314 -634h-288l-141 288l-147 -288h-282l314 634q0 3 1.5 4.5t4.5 1.5h-275q-53 0 -90.5 37.5t-37.5 90.5t37.5 90.5t90.5 37.5h1792q53 0 90.5 -37.5t37.5 -90.5zM1088 448h896q0 -187 -130.5 -317.5t-317.5 -130.5t-317.5 130.5t-130.5 317.5zM64 448h896 q0 -187 -130.5 -317.5t-317.5 -130.5t-317.5 130.5t-130.5 317.5z" />
<glyph unicode="&#x2699;" d="M707 707q130 -131 317 -131t318 131q130 130 130 317t-130 318q-131 130 -318 130t-317 -130q-131 -131 -131 -318t131 -317zM1709 1203l288 -51q22 -5 37 -21t20 -37v-128q0 -24 -13.5 -41.5t-37.5 -22.5l-288 -51q-12 -46 -31.5 -92.5t-45.5 -92.5l173 -237 q14 -20 11.5 -44t-17.5 -39l-90 -90q-9 -9 -20.5 -14t-24.5 -5q-6 0 -15.5 3.5t-22.5 9.5l-237 172q-55 -31 -101.5 -50t-83.5 -26l-52 -288q-5 -21 -23 -36.5t-41 -15.5h-128q-24 0 -41.5 14t-22.5 38l-51 288q-46 13 -92.5 32t-92.5 44l-237 -172q-13 -6 -22.5 -9.5 t-16.5 -3.5q-12 0 -23 5t-21 14l-96 83q-17 23 -19 44t12 39l173 237q-31 56 -50 102.5t-27 83.5l-288 51q-24 5 -37.5 22.5t-13.5 41.5v128q0 24 13.5 41.5t37.5 22.5l295 45q13 47 32 93t44 92l-172 237q-15 19 -14 44t20 39l90 90q14 19 39 20t44 -14l230 -166 q56 31 102.5 50.5t83.5 26.5l51 288q5 24 22.5 37.5t41.5 13.5h128q24 0 41.5 -13.5t22.5 -37.5l45 -295q47 -12 93 -31t92 -45l237 172q20 14 44 11.5t39 -17.5l96 -83q18 -23 19.5 -43.5t-12.5 -39.5l-173 -237q31 -56 50.5 -102.5t26.5 -83.5z" />
<glyph unicode="&#x269b;" d="M354 1504q8 -31 22 -66t33 -75q6 -13 14.5 -29t17.5 -31l7.5 -15t5.5 -14q34 43 70.5 84.5t76.5 81.5q42 42 86.5 82t92.5 78q-86 39 -162.5 58t-144.5 19q-38 0 -68.5 -9t-40.5 -23q-17 -14 -21.5 -46.5t11.5 -94.5zM1617 1676q-8 0 -15 0.5t-15 0.5q-70 0 -147 -20.5 t-160 -62.5q48 -38 93 -78t86 -82q40 -40 77 -81.5t70 -85.5q19 32 32 56t19 40q36 78 51 140.5t12 95.5q-2 16 -6.5 27.5t-11.5 18.5q-6 6 -14.5 10.5t-19.5 8.5t-24 7t-27 5zM812 813q43 -46 97.5 -94t120.5 -98q51 39 105.5 87t112.5 105q21 22 43 46t44 50 q22 25 39 45.5t41 49.5q11 15 20.5 26.5t16.5 19.5q-42 59 -87 111.5t-92 99.5q-46 51 -107 102t-136 103q-62 -43 -123 -94.5t-120 -110.5q-64 -70 -108.5 -123t-70.5 -88q14 -17 46.5 -57t52.5 -63q19 -24 48.5 -57t56.5 -60zM894 888q-56 56 -56 136t56 136t136 56 t136 -56t56 -136t-56 -136t-136 -56t-136 56zM364 397q9 -13 31.5 -19.5t58.5 -6.5q69 0 155.5 27.5t190.5 81.5q-32 25 -75 65.5t-98 94.5q-45 45 -86.5 91.5t-80.5 94.5q-42 -78 -70.5 -149t-39.5 -126q-12 -55 -8.5 -95t22.5 -59zM1606 371q28 0 54 8t36 18 q19 19 22.5 59t-7.5 95q-12 54 -40.5 123.5t-70.5 144.5q-18 -22 -40.5 -47.5t-40.5 -44.5t-43.5 -46.5t-42.5 -46.5q-28 -29 -71.5 -69t-101.5 -91q113 -51 199.5 -77t146.5 -26zM1888 1248q-16 -32 -46.5 -83t-75.5 -122q78 -122 128.5 -240t71.5 -227t1.5 -202 t-79.5 -156q-48 -48 -115 -72t-154 -24q-104 0 -224 35t-256 105q-16 7 -40 20t-56 32q-154 -96 -302.5 -147.5t-273.5 -51.5q-86 0 -153.5 24t-115.5 72q-65 66 -87 159.5t-2 202.5q19 109 69 227t129 243q-31 43 -61.5 94t-60.5 111q-44 92 -66.5 174.5t-23.5 142.5 q-2 60 11.5 112t35.5 86q10 17 23 32.5t27 28.5q47 51 119 76.5t169 25.5q123 0 267 -45t289 -127q146 82 290 127t267 45q88 0 160 -25.5t128 -76.5q29 -27 50.5 -61t34.5 -86t11.5 -112t-23.5 -142q-11 -42 -27.5 -85.5t-38.5 -89.5z" />
<glyph unicode="&#x26a0;" d="M1139 1856l832 -1536q16 -37 13 -69t-26 -59q-14 -29 -44.5 -46.5t-63.5 -17.5h-1664q-33 0 -60.5 16t-48.5 48q-15 29 -15 64t15 64l832 1536q21 32 50 48t65 16q40 0 68.5 -16t46.5 -48zM896 768h256v704h-256v-704zM934 422q37 -38 90 -38t91 38q37 37 37 90t-37 91 q-38 37 -91 37t-90 -37q-38 -38 -38 -91t38 -90z" />
<glyph unicode="&#x26a2;" d="M1741 1766l141 -140q38 -39 38 -90t-38 -89q-39 -39 -90 -39t-90 38l-134 135l-122 -122q45 -69 67.5 -146t22.5 -161q0 -135 -58.5 -254t-160.5 -200q-51 -40 -108 -67.5t-121 -41.5v-141h192q53 0 90.5 -37.5t37.5 -90.5t-37.5 -90.5t-90.5 -37.5h-192v-128 q0 -53 -37.5 -90.5t-90.5 -37.5t-90.5 37.5t-37.5 90.5v128h-192q-53 0 -90.5 37.5t-37.5 90.5t37.5 90.5t90.5 37.5h192v141q-127 28 -229 109t-160 200q-30 60 -44.5 123.5t-14.5 130.5q0 118 45.5 224.5t122.5 183.5t183.5 122.5t224.5 45.5q81 0 158 -20.5t149 -62.5 l122 121l-128 128q-39 39 -39 90t39 90q38 38 89.5 38t89.5 -38l128 -128l96 102q34 38 86.5 38t86.5 -38q38 -38 38 -89.5t-38 -89.5zM733 925q93 -93 227 -93t227 93t93 227t-93 227t-227 93t-227 -93t-93 -227t93 -227z" />
<glyph unicode="&#x26a3;" d="M797 925q93 -93 227 -93t227 93t93 227t-93 227t-227 93t-227 -93t-93 -227t93 -227zM1344 2048h512q53 0 90.5 -37.5t37.5 -90.5v-512q0 -53 -37.5 -90.5t-90.5 -37.5t-90.5 37.5t-37.5 90.5v205l-192 -192q32 -69 48 -136.5t16 -132.5q0 -135 -58.5 -254t-160.5 -200 q-51 -40 -108 -67.5t-121 -41.5v-218l166 167q39 38 90 38t90 -38q25 -26 34 -58t0 -64q-4 -16 -12.5 -30.5t-21.5 -27.5l-384 -384q-39 -38 -90 -38t-90 38l-384 384q-38 39 -38 90t39 90q38 38 89 38t90 -38l166 -167v218q-127 28 -229 109t-160 200q-30 60 -44.5 123.5 t-14.5 130.5q0 118 45.5 224.5t122.5 183.5t183.5 122.5t224.5 45.5q63 0 125 -14.5t117 -39.5q28 -12 54 -27.5t50 -33.5l179 179h-205q-53 0 -90.5 37.5t-37.5 90.5t37.5 90.5t90.5 37.5z" />
<glyph unicode="&#x26a5;" d="M1344 2048h512q53 0 90.5 -37.5t37.5 -90.5v-512q0 -53 -37.5 -90.5t-90.5 -37.5t-90.5 37.5t-37.5 90.5v205l-192 -192q32 -69 48 -136.5t16 -132.5q0 -135 -58.5 -254t-160.5 -200q-51 -40 -108 -67.5t-121 -41.5v-141h192q53 0 90.5 -37.5t37.5 -90.5t-37.5 -90.5 t-90.5 -37.5h-192v-128q0 -53 -37.5 -90.5t-90.5 -37.5t-90.5 37.5t-37.5 90.5v128h-192q-53 0 -90.5 37.5t-37.5 90.5t37.5 90.5t90.5 37.5h192v141q-127 28 -229 109t-160 200q-30 60 -44.5 123.5t-14.5 130.5q0 118 45.5 224.5t122.5 183.5t183.5 122.5t224.5 45.5 q63 0 125 -14.5t117 -39.5q28 -12 54 -27.5t50 -33.5l179 179h-205q-53 0 -90.5 37.5t-37.5 90.5t37.5 90.5t90.5 37.5zM797 925q93 -93 227 -93t227 93t93 227t-93 227t-227 93t-227 -93t-93 -227t93 -227z" />
<glyph unicode="&#x26ad;" d="M990 1634q81 47 169.5 70.5t184.5 23.5t187.5 -25.5t168.5 -71.5t142 -112t111 -143q45 -78 70 -170t25 -188q0 -144 -55.5 -274.5t-149.5 -224.5t-224.5 -149.5t-274.5 -55.5q-45 0 -86.5 5t-79.5 14q74 53 131.5 113.5t98.5 129.5q107 13 195 75t139 159 q25 49 37.5 101t12.5 107q0 92 -35 175t-95 143q-60 59 -143 94.5t-175 35.5t-175 -35.5t-143 -94.5q-60 -60 -95 -143t-35 -175q0 -51 13 -102.5t38 -102.5q-29 -33 -65 -57t-79 -38q-21 -7 -42.5 -10.5t-43.5 -3.5q-38 72 -57.5 152t-19.5 168q0 192 94 354t256 256z M1245 1330q22 7 43.5 10.5t42.5 3.5q39 -72 58 -152t19 -168q0 -192 -94 -354t-256 -256t-354 -94t-354 94t-256 256t-94 354t94 354t256 256q81 47 169.5 70.5t184.5 23.5q32 0 73.5 -3t92.5 -10q-73 -52 -130.5 -113t-99.5 -130q-81 -12 -152 -51.5t-122 -97.5t-80.5 -134 t-29.5 -159q0 -92 35 -175t95 -142q60 -60 143 -95.5t175 -35.5q74 0 142.5 22.5t123.5 64.5q55 41 96 96t64 124q11 34 16.5 69.5t5.5 71.5q0 52 -12.5 103t-38.5 102q29 33 65 57t79 38z" />
<glyph unicode="&#x26c5;" d="M1088 1664q-53 0 -90.5 37.5t-37.5 90.5v128q0 53 37.5 90.5t90.5 37.5t90.5 -37.5t37.5 -90.5v-128q0 -53 -37.5 -90.5t-90.5 -37.5zM1498 1498q-39 38 -39 89t39 90l89 89q39 39 90 39t90 -38q38 -39 38 -90t-39 -90l-89 -89q-39 -39 -90 -39t-89 39zM679 1498 q-39 -39 -90 -39t-90 39l-89 89q-39 39 -39 90t39 90q38 38 89 38t90 -39l89 -89q39 -39 39 -90t-38 -89zM1088 1536q187 0 317.5 -130.5t130.5 -317.5q0 -104 -44 -193t-122 -153q-30 13 -68.5 19.5t-85.5 6.5h-32q-77 120 -204 188t-276 68h-58q-3 10 -4.5 26t-1.5 38 q0 187 130.5 317.5t317.5 130.5zM2048 1088q0 -53 -37.5 -90.5t-90.5 -37.5h-128q-53 0 -90.5 37.5t-37.5 90.5t37.5 90.5t90.5 37.5h128q53 0 90.5 -37.5t37.5 -90.5zM512 1088q0 -53 -37.5 -90.5t-90.5 -37.5h-128q-53 0 -90.5 37.5t-37.5 90.5t37.5 90.5t90.5 37.5h128 q53 0 90.5 -37.5t37.5 -90.5zM1536 320q0 -134 -93 -227t-227 -93h-960q-106 0 -181 75t-75 181t75 181t181 75h6q16 108 78 195.5t158 138.5q48 25 99.5 37.5t106.5 12.5q136 0 248.5 -75.5t161.5 -193.5q16 7 41.5 10t60.5 3q134 0 227 -93t93 -227zM1767 410 q-20 -20 -42 -29.5t-48 -9.5h-13q-10 91 -55 169.5t-118 131.5l7 6q38 39 89 39t90 -39l89 -89q39 -39 39 -90t-38 -89z" />
<glyph unicode="&#x26c8;" d="M1984 1280q0 -158 -113 -271t-271 -113h-442l52 192q15 66 -4 131.5t-67 113.5q-25 23 -53.5 39t-61.5 23q-66 16 -131.5 -3t-112.5 -67q-24 -25 -39.5 -53.5t-23.5 -61.5l-77 -320h-256q-134 0 -227 92.5t-93 227.5q0 134 93 227t227 93h6q10 85 43.5 163.5t87.5 141.5 q53 62 120.5 109t149.5 73q41 12 83.5 18.5t85.5 6.5q190 0 340.5 -111.5t203.5 -285.5q24 10 48 14.5t48 4.5q158 0 271 -113t113 -271zM1216 96q-14 -43 -49.5 -69.5t-78.5 -26.5q-9 0 -17 1.5t-15 4.5q-52 14 -79 59.5t-17 94.5l90 352h-218q-30 0 -55.5 13t-46.5 38 q-18 23 -24.5 50t-1.5 59l128 512q14 52 59 79t95 17q51 -14 78 -59t18 -95l-84 -358h218q31 0 56.5 -12.5t45.5 -38.5q19 -22 25.5 -49.5t0.5 -59.5z" />
<glyph unicode="&#x26d4;" d="M700 1791q154 65 324 65t324 -65q154 -66 265.5 -177.5t177.5 -265.5q65 -154 65 -324t-65 -324q-66 -154 -177.5 -265.5t-265.5 -176.5q-154 -66 -324 -66t-324 66q-154 65 -265.5 176.5t-176.5 265.5q-66 154 -66 324t66 324q65 154 176.5 265.5t265.5 177.5zM512 896 h1024v256h-1024v-256z" />
<glyph unicode="&#x26e8;" d="M1536 1728h128q106 0 181 -75t75 -181v-1472h-1792v1472q0 106 75 181t181 75h128v64q0 106 75 181t181 75h512q106 0 181 -75t75 -181v-64zM896 1024h256v256h256v256h-256v256h-256v-256h-256v-256h256v-256zM1408 512h256v256h-256v-256zM896 512h256v256h-256v-256z M384 512h256v256h-256v-256z" />
<glyph unicode="&#x26fd;" d="M512 1344h512v448h-512v-448zM1734 576q25 5 41.5 26.5t16.5 50.5v627q0 106 -75 181t-181 75h-256v-320h128q106 0 181 -75t75 -181v-320q0 -13 5 -24t14 -21q3 -1 9.5 -5t11.5 -6q5 -3 13 -5.5t17 -2.5zM1280 1792h256q138 0 256 -69t187 -187q35 -59 52 -123t17 -133 v-627q0 -134 -88 -231t-213 -102h-19q-59 0 -117 23.5t-101 66.5q-48 43 -75 103t-27 127v320h-128v-704h128q53 0 90.5 -37.5t37.5 -90.5t-37.5 -90.5t-90.5 -37.5h-1280q-53 0 -90.5 37.5t-37.5 90.5q0 51 38.5 89.5t89.5 38.5h128v1536q0 106 75 181t181 75h512 q106 0 181 -75t75 -181z" />
<glyph unicode="&#x2702;" d="M1523 1997q38 -19 48.5 -58t-9.5 -77l-295 -537l-166 243l275 403q24 39 69 46.5t78 -20.5zM1504 768h32q104 0 192.5 -53t140.5 -143q51 -90 51 -194t-51 -192q-52 -89 -140.5 -140.5t-192.5 -51.5q-78 0 -149 30.5t-122 82.5q-52 51 -82.5 122t-30.5 149q0 50 13 98 t38 94l-173 326l-179 -326q23 -50 34 -96.5t11 -89.5q0 -158 -113 -271t-271 -113t-271 113t-113 271t113 271t271 113h38l314 454l-346 647q-19 38 -6 76.5t51 57.5q34 20 71.5 10.5t56.5 -42.5zM1446 294q37 -38 90 -38t91 38q37 37 37 90t-37 91q-38 37 -91 37t-90 -37 q-38 -38 -38 -91t38 -90zM422 294q37 -38 90 -38t91 38q37 37 37 90t-37 91q-38 37 -91 37t-90 -37q-38 -38 -38 -91t38 -90z" />
<glyph unicode="&#x2708;" d="M1985 1011q30 -15 50 -46.5t20 -68.5q0 -53 -37.5 -90.5t-90.5 -37.5h-723l-45 -512h128q53 0 90.5 -37.5t37.5 -90.5t-37.5 -90.5t-90.5 -37.5h-512q-53 0 -90.5 37.5t-37.5 90.5t37.5 90.5t90.5 37.5h128l-45 512h-723q-44 0 -78 26.5t-44 69.5q-9 44 6 83t52 58 l723 416l-19 243q0 53 20.5 119.5t54.5 125.5q33 59 82 99t99 40t99 -40t83 -99q33 -59 53.5 -125.5t20.5 -119.5l-19 -243z" />
<glyph unicode="&#x2709;" d="M1101 2022l896 -704q26 -20 38.5 -45.5t12.5 -56.5v-960q0 -106 -75 -181t-181 -75h-1536q-106 0 -181 75t-75 181v960q0 29 11.5 54.5t33.5 47.5l896 704q33 29 79.5 29t80.5 -29zM333 1216l691 -563l691 563l-691 544z" />
<glyph unicode="&#x270e;" d="M1665 1920l269 -269q35 -35 56 -81.5t21 -97.5t-19 -95.5t-58 -83.5l-1133 -1146l-627 -147q-72 -19 -125.5 34.5t-34.5 125.5l147 621l1139 1139q77 72 182.5 72t182.5 -72zM347 595l269 -269l908 909l-268 269z" />
<glyph unicode="&#x2713;" d="M1011 640q-77 -77 -179 -77t-179 77l-359 358q-38 39 -38 90t39 90q38 38 89 38t90 -38l358 -359l806 807q39 38 90 38t90 -38q38 -39 38 -90t-38 -90z" />
<glyph unicode="&#x2744;" d="M2048 1024q0 -53 -37.5 -90.5t-90.5 -37.5h-269l167 -166q38 -39 38 -90t-38 -89q-39 -39 -90 -39t-90 38l-345 346h-141v-141l346 -345q19 -19 28.5 -42.5t9.5 -47.5t-9.5 -47.5t-28.5 -42.5q-39 -38 -90 -38t-90 38l-166 167v-269q0 -53 -37.5 -90.5t-90.5 -37.5 t-90.5 37.5t-37.5 90.5v269l-166 -167q-39 -38 -90 -38t-89 39q-39 38 -39 89t38 90l346 345v141h-141l-345 -346q-39 -38 -90 -38t-89 39q-39 38 -39 89t38 90l167 166h-269q-53 0 -90.5 37.5t-37.5 90.5t37.5 90.5t90.5 37.5h269l-167 166q-38 39 -38 90t39 90 q38 38 89 38t90 -38l345 -346h141v141l-346 345q-38 39 -38 90t39 90q38 38 89 38t90 -38l166 -167v269q0 53 37.5 90.5t90.5 37.5t90.5 -37.5t37.5 -90.5v-269l166 167q39 38 90 38t90 -38q38 -39 38 -90t-38 -90l-346 -345v-141h141l345 346q39 38 90 38t90 -38 q38 -39 38 -90t-38 -90l-167 -166h269q53 0 90.5 -37.5t37.5 -90.5z" />
<glyph unicode="&#x2753;" d="M700 1791q154 65 324 65t324 -65q154 -66 265.5 -177.5t177.5 -265.5q65 -154 65 -324t-65 -324q-66 -154 -177.5 -265.5t-265.5 -176.5q-154 -66 -324 -66t-324 66q-154 65 -265.5 176.5t-176.5 265.5q-66 154 -66 324t66 324q65 154 176.5 265.5t265.5 177.5zM1152 768 q0 29 17 56.5t60 65.5q41 37 78.5 84t69.5 115q15 34 23 66t8 61q0 74 -24.5 141.5t-70.5 122.5q-47 54 -121.5 87t-167.5 33t-167.5 -33t-120.5 -87q-47 -55 -71.5 -122.5t-24.5 -141.5h256q0 5 1 13.5t8 31.5q6 22 18 38.5t39 30.5q13 7 28.5 10.5t33.5 3.5q26 0 47 -7 t34 -17t23 -24.5t14 -26.5t6.5 -25.5t3.5 -18.5v-4.5v-4.5q0 -37 -27 -80.5t-82 -92.5q-30 -27 -51 -49.5t-45 -56.5q-25 -35 -38 -76t-13 -87v-6h256zM934 422q37 -38 90 -38t91 38q37 37 37 90t-37 91q-38 37 -91 37t-90 -37q-38 -38 -38 -91t38 -90z" />
<glyph unicode="&#x27a1;" d="M1276 218q-8 -13 -21 -19.5t-30 -6.5q-24 0 -44 20t-20 44v640h-1018q-48 0 -86 30.5t-48 78.5q-10 57 30 102t98 45h1024v640q0 20 10 36.5t28 21.5q20 10 37.5 6.5t33.5 -19.5l723 -723q38 -39 38 -92.5t-38 -87.5z" />
<glyph unicode="&#x2922;" d="M1856 1984q53 0 90.5 -37.5t37.5 -90.5v-640q0 -20 -10 -36.5t-28 -21.5q-3 -3 -9.5 -4.5t-16.5 -1.5q-13 0 -24 5t-21 14l-262 263l-307 -308q-39 -38 -90 -38t-89 39q-39 38 -39 89t38 90l308 307l-263 262q-16 16 -19 34t6 37q5 18 21.5 28t36.5 10h640zM922 922 q38 -39 38 -90t-38 -90l-308 -307l256 -256q13 -12 19.5 -25t6.5 -26q0 -25 -18 -44.5t-46 -19.5h-640q-53 0 -90.5 37.5t-37.5 90.5v640q0 20 10 36.5t28 21.5q20 10 37.5 6.5t33.5 -19.5l262 -263l307 308q39 38 90 38t90 -38z" />
<glyph unicode="&#x2b05;" d="M781 1830q9 13 21.5 19.5t29.5 6.5q24 0 44 -20t20 -44v-640h1018q48 0 86 -30.5t48 -78.5q10 -57 -30 -102t-98 -45h-1024v-640q0 -20 -10 -36.5t-28 -21.5q-19 -9 -37 -6t-34 19l-723 723q-38 39 -38 92.5t38 87.5z" />
<glyph unicode="&#x2b06;" d="M1832 1267q13 -8 19.5 -21t6.5 -30q0 -24 -20 -44t-44 -20h-640v-1018q0 -48 -30.5 -86t-78.5 -48q-57 -10 -102 30t-45 98v1024h-640q-20 0 -36.5 10t-21.5 28q-9 20 -6 37.5t19 33.5l723 723q39 38 92.5 38t87.5 -38z" />
<glyph unicode="&#x2b07;" d="M218 781q-13 9 -19.5 21.5t-6.5 29.5q0 24 20 44t44 20h640v1018q0 48 30.5 86t78.5 48q57 10 102 -30t45 -98v-1024h640q20 0 36.5 -10t21.5 -28q10 -19 6.5 -37t-19.5 -34l-723 -723q-39 -38 -92.5 -38t-87.5 38z" />
<glyph unicode="&#x2b08;" d="M1664 1792q53 0 90.5 -37.5t37.5 -90.5v-1024q0 -20 -10 -36.5t-28 -21.5q-3 -3 -9.5 -4.5t-16.5 -1.5q-13 0 -24 5t-21 14l-454 455l-691 -692q-39 -38 -90 -38t-89 39q-39 38 -39 89t38 90l692 691l-455 454q-16 16 -19 34t6 37q3 9 8.5 16.5t13.5 12.5q8 4 17 6.5 t19 2.5h1024z" />
<glyph unicode="&#x2b09;" d="M256 1664q0 53 37.5 90.5t90.5 37.5h1024q20 0 36.5 -10t21.5 -28q3 -3 4.5 -9.5t1.5 -16.5q0 -13 -4.5 -24t-14.5 -21l-455 -454l692 -691q38 -39 38 -90t-38 -89q-39 -39 -90 -39t-90 38l-691 692l-454 -455q-16 -16 -33.5 -19t-37.5 6q-18 5 -28 21.5t-10 36.5v1024z " />
<glyph unicode="&#x2b0a;" d="M1792 384q0 -53 -37.5 -90.5t-90.5 -37.5h-1024q-20 0 -36.5 10t-21.5 28q-3 4 -4.5 10.5t-1.5 15.5q0 13 5 24.5t14 20.5l455 454l-692 691q-38 39 -38 90t39 90q38 38 89 38t90 -38l691 -692l454 455q16 16 34 19.5t37 -6.5q12 -3 21 -12t13 -21q2 -6 3 -12t1 -13 v-1024z" />
<glyph unicode="&#x2b0b;" d="M384 256q-53 0 -90.5 37.5t-37.5 90.5v1024q0 20 10 36.5t28 21.5q4 3 10.5 4.5t15.5 1.5q13 0 24.5 -4.5t20.5 -14.5l454 -455l691 692q39 38 90 38t90 -38q38 -39 38 -90t-38 -90l-692 -691l455 -454q16 -16 19.5 -33.5t-6.5 -37.5q-3 -12 -12 -21t-21 -13 q-6 -2 -12 -3t-13 -1h-1024z" />
<glyph unicode="&#xe001;" d="M1824 1011q21 -15 29 -32.5t3 -37.5t-22.5 -32.5t-41.5 -12.5h-717l384 -704q25 -48 10.5 -98.5t-61.5 -74.5q-9 -6 -25 -9.5t-39 -3.5q-22 0 -44 8t-40 23q-9 7 -16.5 15.5t-14.5 17.5l-391 724l-409 -506q-4 -16 -15 -24t-30 -8q-6 0 -11 1.5t-8 4.5q-19 5 -32 22 t-13 36v1664q0 18 8 32.5t24 25.5q14 9 30 7.5t34 -14.5z" />
<glyph unicode="&#xe002;" d="M1536 781l454 -455q58 -52 58 -134.5t-57 -139.5q-58 -58 -135 -58t-134 57l-455 455q-101 -61 -209.5 -91.5t-225.5 -30.5q-170 0 -324 65.5t-265 177.5q-112 111 -177.5 265t-65.5 324t64.5 324t175.5 266q110 111 263 176.5t323 65.5q113 0 221 -30t200 -83 q91 -54 167.5 -130.5t130.5 -167.5q53 -92 83 -200t30 -221q0 -116 -30.5 -225t-91.5 -210zM302 1441q-46 -107 -46 -225t46 -224q45 -107 122 -184t184 -122q106 -46 224 -46t225 46q106 45 183 122t123 184q45 106 45 224t-45 225q-46 106 -123 183t-183 123 q-107 45 -225 45t-224 -45q-107 -46 -184 -123t-122 -183zM1216 1216q0 -53 -37.5 -90.5t-90.5 -37.5h-128v-128q0 -53 -37.5 -90.5t-90.5 -37.5t-90.5 37.5t-37.5 90.5v128h-128q-53 0 -90.5 37.5t-37.5 90.5t37.5 90.5t90.5 37.5h128v128q0 53 37.5 90.5t90.5 37.5 t90.5 -37.5t37.5 -90.5v-128h128q53 0 90.5 -37.5t37.5 -90.5z" />
<glyph unicode="&#xe003;" d="M1536 781l454 -455q58 -52 58 -134.5t-57 -139.5q-58 -58 -135 -58t-134 57l-455 455q-101 -61 -209.5 -91.5t-225.5 -30.5q-170 0 -324 65.5t-265 177.5q-112 111 -177.5 265t-65.5 324t64.5 324t175.5 266q110 111 263 176.5t323 65.5q113 0 221 -30t200 -83 q91 -54 167.5 -130.5t130.5 -167.5q53 -92 83 -200t30 -221q0 -116 -30.5 -225t-91.5 -210zM302 1441q-46 -107 -46 -225t46 -224q45 -107 122 -184t184 -122q106 -46 224 -46t225 46q106 45 183 122t123 184q45 106 45 224t-45 225q-46 106 -123 183t-183 123 q-107 45 -225 45t-224 -45q-107 -46 -184 -123t-122 -183zM1216 1216q0 -53 -37.5 -90.5t-90.5 -37.5h-512q-53 0 -90.5 37.5t-37.5 90.5t37.5 90.5t90.5 37.5h512q53 0 90.5 -37.5t37.5 -90.5z" />
<glyph unicode="&#xe012;" d="M1069 6q-13 -6 -45 -6t-45 6q-123 50 -228.5 112.5t-180.5 124.5t-136 133t-99 133q-39 62 -67.5 128.5t-42.5 115.5q-14 48 -22 96.5t-9 70.5q-1 11 -1.5 21t-0.5 19v832q0 106 75 181t181 75h1152q106 0 181 -75t75 -181v-832q0 -18 -1.5 -40t-9.5 -70 q-8 -49 -22 -97.5t-42 -114.5q-29 -67 -67.5 -129t-99.5 -133t-136 -133t-180 -124q-53 -32 -110 -60t-119 -53zM1600 1792h-1152v-832q0 -17 2.5 -40t15.5 -73q12 -51 33 -101.5t65 -116.5t102 -125t151 -122q47 -31 98.5 -59.5t108.5 -53.5q114 50 207 113t151 122 t102 125t65 117q21 50 33.5 100.5t15.5 73.5q1 12 1.5 22t0.5 18v832zM576 1664h896v-704q-2 -22 -6.5 -48t-17.5 -67q-14 -42 -34 -81.5t-55 -85.5q-35 -47 -79.5 -87t-110.5 -78q-33 -20 -69 -36t-76 -29q-79 26 -145 64.5t-110 78.5q-45 40 -80 86.5t-55 86.5 q-20 39 -33.5 80.5t-17.5 67.5q-3 13 -4.5 25t-2.5 23v704z" />
<glyph unicode="&#xe071;" d="M1473 832l551 -550q38 -39 38 -90t-38 -89q-39 -39 -90 -39t-90 38l-1664 1664q-38 39 -38 90t39 90q38 38 89 38t90 -38l486 -487l454 461q77 72 182.5 72t182.5 -72l263 -269q38 -33 57 -78t19 -101q0 -51 -19 -95.5t-57 -83.5zM1249 1504l-224 -224l269 -269l224 224z M1019 736l179 -186l-403 -403l-621 -147q-72 -19 -125.5 34.5t-34.5 125.5l154 621l403 403l179 -179l-403 -403l269 -269z" />
<glyph unicode="&#xe1c0;" d="M1741 2048l-403 -845q-61 31 -123.5 49t-126.5 22l371 774h282zM1011 1152h13q118 0 224.5 -45.5t183.5 -122.5t122.5 -183.5t45.5 -224.5t-45.5 -224.5t-122.5 -183.5t-183.5 -122.5t-224.5 -45.5t-224.5 45.5t-183.5 122.5t-122.5 183.5t-45.5 224.5q0 164 84.5 301 t222.5 211l-454 960h281zM1024 384q81 0 136.5 57t55.5 135q0 82 -55 137t-137 55t-137 -55t-55 -137q0 -78 55.5 -135t136.5 -57z" />
<glyph unicode="&#xe200;" d="M1746 1190l205 -204q38 -39 38 -90t-38 -89q-39 -39 -90 -39t-90 38l-960 960q-38 39 -38 90t39 90q38 38 89 38t90 -38l211 -212l198 199q73 75 171.5 102t198.5 0q49 -13 93 -38.5t81 -63.5q76 -73 102.5 -171.5t0.5 -197.5q-14 -50 -39.5 -93.5t-63.5 -81.5zM645 429 l653 665l179 -179l-678 -685q-11 -11 -24 -19t-28 -13l-576 -192q-6 -3 -15.5 -4.5t-22.5 -1.5q-25 0 -47.5 9.5t-42.5 28.5q-24 24 -32.5 59.5t0.5 68.5l192 576q5 15 13 28t19 24l679 684l179 -179l-653 -665l-102 -308z" />
<glyph unicode="&#xe201;" d="M1728 704h192q53 0 90.5 -37.5t37.5 -90.5t-37.5 -90.5t-90.5 -37.5h-1216q-106 0 -181 75t-75 181v1216q0 53 37.5 90.5t90.5 37.5t90.5 -37.5t37.5 -90.5v-192h768q106 0 181 -75t75 -181v-768zM0 1600q0 53 37.5 90.5t90.5 37.5h192v-256h-192q-53 0 -90.5 37.5 t-37.5 90.5zM704 1472v-768h768v768h-768zM1472 128v192h256v-192q0 -53 -37.5 -90.5t-90.5 -37.5t-90.5 37.5t-37.5 90.5z" />
<glyph unicode="&#xe202;" d="M960 1792h832q106 0 181 -75t75 -181v-384q0 -106 -75 -181t-181 -75h-320q0 158 -113 271t-271 113h-384v256q0 106 75 181t181 75zM1344 512q0 -106 -75 -181t-181 -75h-832q-106 0 -181 75t-75 181v384q0 106 75 181t181 75h832q106 0 181 -75t75 -181v-384z" />
<glyph unicode="&#xe206;" d="M1600 256q-53 0 -90.5 37.5t-37.5 90.5v1280q0 53 37.5 90.5t90.5 37.5t90.5 -37.5t37.5 -90.5v-1280q0 -53 -37.5 -90.5t-90.5 -37.5zM1024 256q-53 0 -90.5 37.5t-37.5 90.5v1280q0 53 37.5 90.5t90.5 37.5t90.5 -37.5t37.5 -90.5v-1280q0 -53 -37.5 -90.5t-90.5 -37.5 zM448 256q-53 0 -90.5 37.5t-37.5 90.5v1280q0 53 37.5 90.5t90.5 37.5t90.5 -37.5t37.5 -90.5v-1280q0 -53 -37.5 -90.5t-90.5 -37.5z" />
<glyph unicode="&#xe209;" d="M940 1318q37 -38 90 -38t91 38q37 37 37 90t-37 91q-38 37 -91 37t-90 -37q-38 -38 -38 -91t38 -90zM921 774q39 -6 109 -6t96 6l-102 276zM1542 1024q33 42 85 48.5t94 -22.5q43 -34 52 -88t-20 -92q-72 -96 -160 -166t-192 -115l141 -506q5 -25 -8 -48.5t-37 -28.5 q-25 -5 -46 5t-31 34l-192 493q-96 -20 -198 -20t-198 20l-192 -493q-10 -25 -35 -36.5t-49 -2.5q-23 10 -33 31t-5 46l147 506q-101 46 -189 116.5t-163 164.5q-33 44 -25.5 95t51.5 85q42 29 94 22.5t85 -48.5q43 -57 97.5 -103.5t120.5 -82.5l70 256q-74 54 -117 137 t-43 177q0 127 71.5 226.5t184.5 138.5v147q0 53 37.5 90.5t90.5 37.5t90.5 -37.5t37.5 -90.5v-147q113 -44 184.5 -143.5t71.5 -221.5q0 -94 -43 -177t-117 -137l70 -256q66 36 120.5 82.5t97.5 103.5z" />
<glyph unicode="&#xe240;" d="M960 2048h832q106 0 181 -75t75 -181v-832q0 -106 -75 -181t-181 -75h-320v256h320v832h-832v-320h-256v320q0 106 75 181t181 75zM1344 128q0 -53 -37.5 -90.5t-90.5 -37.5h-1088q-53 0 -90.5 37.5t-37.5 90.5v1088q0 53 37.5 90.5t90.5 37.5h1088q53 0 90.5 -37.5 t37.5 -90.5v-1088z" />
<glyph unicode="&#xe241;" d="M832 2048h1088q53 0 90.5 -37.5t37.5 -90.5v-1088q0 -53 -37.5 -90.5t-90.5 -37.5h-448v384q0 158 -113 271t-271 113h-384v448q0 53 37.5 90.5t90.5 37.5zM1344 256q0 -106 -75 -181t-181 -75h-832q-106 0 -181 75t-75 181v832q0 106 75 181t181 75h832q106 0 181 -75 t75 -181v-832zM1088 1088h-832v-832h832v832z" />
<glyph unicode="&#xe300;" d="M2015 39q-39 -39 -90 -39t-90 38l-1536 1536q-38 39 -38 90t39 90q38 38 89 38t90 -38l864 -864q51 63 92.5 146t73.5 186l-256 256q-15 16 -17.5 36.5t11.5 40.5l326 525q15 20 37 27t46 -1q53 -24 101 -57.5t91 -77.5q98 -103 151.5 -230.5t53.5 -268.5v-38 q-5 -255 -94.5 -486.5t-251.5 -422.5l308 -307q38 -39 38 -90t-38 -89zM555 0q-135 5 -256.5 57t-216.5 148q-43 43 -77 91t-58 101q-10 23 -3.5 46t29.5 37l525 326q19 11 41 9.5t36 -15.5l256 -256q49 13 103.5 35.5t113.5 54.5l371 -372q-180 -126 -393 -194t-445 -68 h-26z" />
<glyph unicode="&#xe310;" d="M1792 192q-53 0 -90.5 37.5t-37.5 90.5q0 183 -48.5 357t-134.5 322q-87 147 -211 271t-271 211q-148 86 -322 134.5t-357 48.5q-53 0 -90.5 37.5t-37.5 90.5t37.5 90.5t90.5 37.5q217 0 424.5 -57.5t383.5 -160.5q175 -103 323 -251t251 -323q103 -176 160.5 -383.5 t57.5 -424.5q0 -53 -37.5 -90.5t-90.5 -37.5zM1216 192q-53 0 -90.5 37.5t-37.5 90.5q0 156 -61 298t-164 245t-245 164t-298 61q-53 0 -90.5 37.5t-37.5 90.5t37.5 90.5t90.5 37.5q139 0 271.5 -37t244.5 -103t207 -161t161 -207t103 -244.5t37 -271.5q0 -53 -37.5 -90.5 t-90.5 -37.5zM267 267q-75 75 -75 181t75 181t181 75t181 -75t75 -181t-75 -181t-181 -75t-181 75z" />
<glyph unicode="&#xe311;" d="M480 685q-38 -39 -89.5 -39t-89.5 39q-145 145 -223 331.5t-78 391.5t78 391.5t223 331.5q38 39 89.5 39t89.5 -38q38 -39 38 -90.5t-38 -89.5q-110 -110 -167 -249.5t-57 -294.5t57 -294.5t167 -249.5q38 -38 38 -89.5t-38 -89.5zM1568 685q-38 38 -38 89.5t38 89.5 q110 110 167 249.5t57 294.5t-57 294.5t-167 249.5q-38 38 -38 89.5t38 90.5q38 38 89.5 38t89.5 -39q145 -145 223 -331.5t78 -391.5t-78 -391.5t-223 -331.5q-38 -39 -89.5 -39t-89.5 39zM749 960q-13 -22 -35.5 -33.5t-54.5 -11.5q-25 0 -47.5 10t-41.5 29 q-92 92 -140 212t-48 242t48 242t140 212q38 39 89 39t90 -38q38 -39 38 -90t-38 -90q-54 -54 -82.5 -125.5t-28.5 -143.5q0 -73 28.5 -145.5t82.5 -129.5q38 -38 38 -89.5t-38 -89.5zM1300 954q-39 38 -39 89t38 90q73 72 98.5 170.5t0.5 198.5q-13 49 -37.5 93t-61.5 82 q-38 38 -38 89.5t39 89.5q38 38 89 38t89 -38q92 -92 140 -211t48 -240t-48 -240t-140 -211q-38 -39 -89 -39t-89 39zM887 1545q55 55 137 55t137 -55t55 -137t-55 -137t-137 -55t-137 55t-55 137t55 137zM1216 832l64 -832h-512l64 832q0 82 55 137t137 55t137 -55t55 -137 z" />
<glyph unicode="&#xe356;" d="M1837 1312q33 28 76.5 29.5t76.5 -23.5q28 -13 43 -43t15 -65v-954q0 -106 -75 -181t-181 -75h-1536q-106 0 -181 75t-75 181v954q0 33 13.5 64.5t37.5 50.5q40 23 79.5 20.5t74.5 -27.5l51 -38v512q0 106 75 181t181 75h1024q106 0 181 -75t75 -181v-512zM256 256h1536 v698l-685 -544q-33 -29 -79.5 -29t-80.5 29l-691 544v-698z" />
<glyph unicode="&#xe396;" d="M832 2048h384q177 0 332 -63t265 -172q109 -110 172 -265t63 -332q0 -127 -35 -240.5t-95 -198.5q-60 -86 -139.5 -153t-168.5 -107q-44 -21 -90 -34.5t-93 -21.5l-211 -352q-19 -35 -46 -59.5t-59 -36.5q-17 -7 -33.5 -10t-34.5 -3q-58 0 -104 28t-75 81l-211 352 q-119 17 -224.5 69t-182.5 128q-78 75 -134 167.5t-84 192.5q-14 50 -21 99.5t-7 98.5q0 177 63 332t173 265q109 109 264 172t332 63zM1274 698l64 6q80 6 148.5 33.5t117.5 69.5q48 42 85.5 93t59.5 107q21 56 32 108.5t11 100.5q0 259 -158.5 417.5t-417.5 158.5h-384 q-259 0 -417.5 -158.5t-158.5 -417.5q0 -59 18 -124.5t58 -131.5q39 -66 93.5 -120t135.5 -91q41 -19 84.5 -30t90.5 -15h64l243 -397zM1408 1408q0 -53 -37.5 -90.5t-90.5 -37.5h-512q-53 0 -90.5 37.5t-37.5 90.5t37.5 90.5t90.5 37.5h512q53 0 90.5 -37.5t37.5 -90.5z M1408 1024q0 -53 -37.5 -90.5t-90.5 -37.5h-512q-53 0 -90.5 37.5t-37.5 90.5t37.5 90.5t90.5 37.5h512q53 0 90.5 -37.5t37.5 -90.5z" />
<glyph unicode="&#xe407;" d="M1555 1697q45 -107 45 -225t-45 -224q-46 -107 -123 -184t-183 -122q-107 -46 -225 -46t-224 46q-107 45 -184 122t-122 184q-46 106 -46 224t46 225q45 106 122 183t184 123q106 45 224 45t225 -45q106 -46 183 -123t123 -183zM1472 768q134 0 227 -93t93 -227v-448 h-256v320h-128v-320h-256l-83 326q23 10 41.5 27.5t30.5 42.5q5 12 8 25t3 27q0 53 -37.5 90.5t-90.5 37.5t-90.5 -37.5t-37.5 -90.5q0 -39 23 -73t60 -49l-83 -326h-256v320h-128v-320h-256v448q0 134 93 227t227 93h896z" />
<glyph unicode="&#xe410;" d="M1792 1792q53 0 90.5 -37.5t37.5 -90.5v-768q0 -129 -49.5 -246t-135.5 -204q-44 -43 -93.5 -78t-105.5 -61v-307h-896v269q-146 28 -262.5 118t-182.5 224q-34 67 -50.5 138.5t-16.5 146.5v384q0 53 37.5 90.5t90.5 37.5t90.5 -37.5t37.5 -90.5v-384q0 -24 20 -44 t44 -20t44 20t20 44v896q0 53 37.5 90.5t90.5 37.5t90.5 -37.5t37.5 -90.5v-576q0 -24 20 -44t44 -20t44 20t20 44v704q0 53 37.5 90.5t90.5 37.5t90.5 -37.5t37.5 -90.5v-704q0 -24 20 -44t44 -20t44 20t20 44v576q0 53 37.5 90.5t90.5 37.5t90.5 -37.5t37.5 -90.5v-576 q0 -24 20 -44t44 -20t44 20t20 44v448q0 53 37.5 90.5t90.5 37.5z" />
<glyph unicode="&#xe442;" d="M753 1393q-113 112 -113 271t113 272q112 112 271 112t272 -112q112 -113 112 -272t-112 -271q-113 -113 -272 -113t-271 113zM1263 559q46 -47 113 -47t114 47q46 46 46 113t-46 114q-47 46 -114 46t-113 -46q-47 -47 -47 -114t47 -113zM1330 285q7 8 10.5 17t3.5 18 q0 56 -56.5 100.5t-146.5 68.5q-46 11 -94 17t-100 6q-62 0 -124.5 -12.5t-116.5 -35.5q-55 -23 -89.5 -60.5t-34.5 -83.5q0 -39 32 -67.5t101 -44.5q34 -8 76 -12t92 -4q119 0 178 -27t59 -82q0 -32 -53.5 -57.5t-151.5 -25.5q-128 0 -223 12.5t-174 51.5q-52 26 -91 65 t-60 80t-34 85t-15 83q-3 38 -3 68.5t2 48.5l3 18q12 72 21.5 123.5t23.5 111.5t28.5 102t34.5 88q20 45 42.5 75t53.5 59q30 29 66 45t81 26q22 5 46.5 7.5t50.5 2.5h512q29 0 45 -0.5t47 -2.5q31 -3 50.5 -8.5t48.5 -16.5t49 -26.5t44 -39.5q24 -25 41 -56.5t33 -74.5 q8 -21 14.5 -45t11.5 -50q32 -121 48 -204.5t16 -128.5q0 -71 -20 -132.5t-54 -105.5q-34 -45 -76.5 -80t-89.5 -56t-91.5 -31.5t-84.5 -10.5q-54 0 -81.5 19.5t-27.5 57.5q0 21 14.5 39t35.5 31q21 12 41.5 25t35.5 30z" />
<glyph unicode="&#xe500;" d="M1997 1536q33 0 53 -24t11 -53l-135 -563l-44 -192q-16 -57 -51.5 -100.5t-86.5 -67.5q-26 -12 -54 -18t-58 -6h-826q-86 0 -155.5 53t-93.5 139l-275 1088h-154q-53 0 -90.5 37.5t-37.5 90.5t37.5 90.5t90.5 37.5h154q86 0 155.5 -53t93.5 -139l77 -320h1389zM1464 56 q-56 56 -56 136t56 136t136 56t136 -56t56 -136t-56 -136t-136 -56t-136 56zM696 56q-56 56 -56 136t56 136t136 56t136 -56t56 -136t-56 -136t-136 -56t-136 56z" />
<glyph unicode="&#xe543;" d="M1794 1630q62 -63 62 -126t-62 -125q-62 -63 -168.5 -113.5t-264.5 -81.5q-159 -32 -337 -32t-336 32q-159 31 -265.5 81.5t-168.5 113.5q-62 62 -62 125t62 126q62 62 168.5 112.5t265.5 82.5q158 31 336 31t337 -31q158 -32 264.5 -82.5t168.5 -112.5zM1728 1171 q62 -38 95 -84.5t33 -94.5q0 -63 -62 -125.5t-168 -112.5q-107 -51 -265.5 -82.5t-336.5 -31.5t-336.5 31.5t-264.5 82.5q-107 50 -169 112.5t-62 125.5q0 48 33 94.5t95 84.5q129 -72 310.5 -109.5t393.5 -37.5q104 0 203 10.5t188 29.5q88 19 166.5 46t146.5 61zM1728 659 q62 -38 95 -84.5t33 -94.5q0 -63 -62 -125.5t-168 -112.5q-107 -51 -265.5 -82.5t-336.5 -31.5t-336.5 31.5t-264.5 82.5q-107 50 -169 112.5t-62 125.5q0 48 33 94.5t95 84.5q129 -72 310.5 -109.5t393.5 -37.5q205 0 385 39t319 108z" />
<glyph unicode="&#xe545;" d="M704 1408h512v128h-512v-128zM1888 1344h96q24 0 44 -20t20 -44v-64q0 -180 -72 -344.5t-201 -292.5q-65 -64 -140.5 -116t-162.5 -92v-179q0 -53 -37.5 -90.5t-90.5 -37.5t-90.5 37.5t-37.5 90.5v128h-448v-128q0 -53 -37.5 -90.5t-90.5 -37.5t-90.5 37.5t-37.5 90.5 v192q-177 118 -280.5 303t-103.5 401v64q-54 15 -91 59.5t-37 100.5q0 67 46.5 113.5t113.5 46.5q10 0 24.5 -3t33.5 -10q102 209 301 335t441 126q131 0 247.5 -36.5t219.5 -110.5l192 192q16 16 34 19.5t37 -6.5q9 -3 16.5 -8.5t12.5 -13.5q4 -8 6.5 -17t2.5 -19v-416 q0 -67 46.5 -113.5t113.5 -46.5z" />
<glyph unicode="&#xe570;" d="M1864 1537q60 -104 90 -216t30 -233q0 -29 -17.5 -46.5t-46.5 -17.5h-640q-106 0 -181 75t-75 181v640q0 28 19.5 46t44.5 18q242 0 448.5 -120.5t327.5 -326.5zM1978 909v-7q-14 -101 -47.5 -197t-84.5 -179q-52 -83 -117.5 -155t-145.5 -128q-80 -57 -168.5 -97 t-187.5 -61q-50 -10 -100.5 -15.5t-102.5 -5.5q-261 0 -482 128.5t-349 349.5q-65 111 -97 231.5t-32 250.5q0 177 64 342t174 291t264.5 211.5t329.5 109.5v-256q-121 -24 -227.5 -88t-182.5 -154q-77 -91 -121.5 -208t-44.5 -242q0 -143 55.5 -273.5t149.5 -224.5 q94 -95 224.5 -150.5t274.5 -55.5q127 0 245 44.5t209 122.5q91 77 153.5 184.5t83.5 231.5h263z" />
<glyph unicode="&#xe572;" d="M1920 2048q53 0 90.5 -37.5t37.5 -90.5v-1536h-512v1536q0 53 37.5 90.5t90.5 37.5h256zM1152 1664q53 0 90.5 -37.5t37.5 -90.5v-1152h-512v1152q0 53 37.5 90.5t90.5 37.5h256zM384 1216q53 0 90.5 -37.5t37.5 -90.5v-704h-512v704q0 53 37.5 90.5t90.5 37.5h256z M2048 128q0 -53 -37.5 -90.5t-90.5 -37.5h-1792q-53 0 -90.5 37.5t-37.5 90.5t37.5 90.5t90.5 37.5h1792q53 0 90.5 -37.5t37.5 -90.5z" />
<glyph unicode="&#xe573;" d="M384 2048q53 0 90.5 -37.5t37.5 -90.5v-1536h-512v1536q0 53 37.5 90.5t90.5 37.5h256zM1152 1664q53 0 90.5 -37.5t37.5 -90.5v-1152h-512v1152q0 53 37.5 90.5t90.5 37.5h256zM1920 1216q53 0 90.5 -37.5t37.5 -90.5v-704h-512v704q0 53 37.5 90.5t90.5 37.5h256z M2048 128q0 -53 -37.5 -90.5t-90.5 -37.5h-1792q-53 0 -90.5 37.5t-37.5 90.5t37.5 90.5t90.5 37.5h1792q53 0 90.5 -37.5t37.5 -90.5z" />
<glyph unicode="&#xe575;" d="M1920 2048q53 0 90.5 -37.5t37.5 -90.5v-768q0 -20 -10 -36.5t-28 -21.5q-3 -3 -9.5 -4.5t-16.5 -1.5q-13 0 -24 5t-21 14l-313 314l-416 -448q-34 -39 -83.5 -61t-102.5 -22q-54 0 -100.5 19t-85.5 57l-134 135l-486 -487q-39 -38 -90 -38t-89 39q-39 38 -39 89t38 90 l487 486q38 38 86 57.5t97 19.5q48 0 96 -19.5t86 -57.5l134 -134l416 454l-333 333q-15 21 -18.5 40t5.5 37q5 18 21.5 28t36.5 10h768zM2048 128q0 -53 -37.5 -90.5t-90.5 -37.5h-1792q-53 0 -90.5 37.5t-37.5 90.5t37.5 90.5t90.5 37.5h1792q53 0 90.5 -37.5t37.5 -90.5z " />
<glyph unicode="&#xe57b;" d="M2048 1728q0 -53 -37.5 -90.5t-90.5 -37.5h-1792q-53 0 -90.5 37.5t-37.5 90.5t37.5 90.5t90.5 37.5h1792q53 0 90.5 -37.5t37.5 -90.5zM192 448v1024h1664v-1024q0 -106 -75 -181t-181 -75h-1152q-106 0 -181 75t-75 181zM832 717l256 -256l538 537l-180 180l-358 -359 l-256 256l-410 -409l180 -180z" />
<glyph unicode="&#xe584;" d="M2048 1664q0 -53 -37.5 -90.5t-90.5 -37.5h-1792q-53 0 -90.5 37.5t-37.5 90.5t37.5 90.5t90.5 37.5h1792q53 0 90.5 -37.5t37.5 -90.5zM256 1408h1536l-256 -512v-896h-1024v896z" />
<glyph unicode="&#xe602;" d="M512 1920q53 0 90.5 -37.5t37.5 -90.5v-1792h-256v1792q0 53 37.5 90.5t90.5 37.5zM128 1920q53 0 90.5 -37.5t37.5 -90.5v-1792h-256v1792q0 53 37.5 90.5t90.5 37.5zM1472 1184l371 269q33 23 70 25t67 -13q29 -16 48.5 -46.5t19.5 -68.5v-1350h-1280v1088l499 365 q33 23 70 25t67 -13q29 -16 48.5 -46.5t19.5 -68.5v-166zM1536 704h256v256h-256v-256zM1024 704h256v256h-256v-256zM1536 256h256v256h-256v-256zM1024 256h256v256h-256v-256z" />
<glyph unicode="&#xe605;" d="M1856 896q0 -53 -37.5 -90.5t-90.5 -37.5h-1408q-53 0 -90.5 37.5t-37.5 90.5t37.5 90.5t90.5 37.5h128v512h-128q-24 0 -41.5 13.5t-22.5 37.5q-3 14 -0.5 27t11.5 25q5 6 10 11t11 8l704 384q14 9 32 9t32 -9l698 -378q19 -9 28.5 -25t9.5 -39q0 -25 -18 -44.5 t-46 -19.5h-128v-512h128q53 0 90.5 -37.5t37.5 -90.5zM1587 186q24 -48 7.5 -98.5t-64.5 -74.5q-19 -6 -33.5 -9.5t-24.5 -3.5q-34 0 -65 18.5t-50 51.5l-141 282q-96 -32 -192 -32t-192 32l-141 -282q-19 -33 -50 -51.5t-65 -18.5q-9 0 -23.5 3.5t-34.5 9.5 q-48 24 -64.5 74.5t7.5 98.5l147 288q-44 39 -79 80.5t-62 85.5h1107q-24 -40 -57.5 -81.5t-76.5 -84.5z" />
<glyph unicode="&#xe670;" d="M2033 2029q14 -15 18 -36.5t-5 -40.5l-960 -1920q-11 -16 -25.5 -24t-32.5 -8h-13q-24 5 -37.5 22.5t-13.5 41.5v896h-896q-24 0 -41.5 13.5t-22.5 37.5q-5 25 3 43t29 28l1920 960q19 9 40.5 5t36.5 -18z" />
<glyph unicode="&#xe671;" d="M1732 83q5 -19 -4 -40t-28 -30q-6 -13 -32 -13t-45 19l-595 595l-595 -595q-15 -15 -36 -17.5t-41 11.5q-20 10 -27.5 31t1.5 46l640 1920q5 14 22 26t36 12q13 0 25 -6t23 -16q5 -5 9 -10.5t7 -12.5z" />
<glyph unicode="&#xe672;" d="M2029 1619q19 -19 19 -51t-19 -51l-256 -224q-13 -6 -24 -9.5t-21 -3.5h-1536q-53 0 -90.5 37.5t-37.5 90.5v320q0 53 37.5 90.5t90.5 37.5h704v64q0 53 37.5 90.5t90.5 37.5t90.5 -37.5t37.5 -90.5v-64h570q10 0 21 -3t23 -10zM1856 960q53 0 90.5 -37.5t37.5 -90.5 v-320q0 -53 -37.5 -90.5t-90.5 -37.5h-1536q-9 0 -20.5 3.5t-24.5 9.5l-256 224q-19 19 -19 51t19 51l263 224q19 7 30 10t14 3h570v192h256v-192h704zM1152 0h-256v256h256v-256z" />
<glyph unicode="&#xe673;" d="M1024 2112q187 0 317.5 -130.5t130.5 -317.5q0 -65 -17.5 -122.5t-52.5 -107.5l-320 -628q-22 -32 -58 -32t-58 32l-320 615q-35 55 -52.5 116t-17.5 127q0 187 130.5 317.5t317.5 130.5zM887 1527q55 -55 137 -55t137 55t55 137t-55 137t-137 55t-137 -55t-55 -137 t55 -137zM2022 1594q13 -13 19.5 -27.5t6.5 -30.5v-1088q0 -77 -41 -140t-113 -97l-422 -185v1254l51 96l435 218q11 7 27 7t37 -7zM467 1530q9 -44 27 -87.5t44 -85.5l38 -77v-1056l-486 -218q-14 -5 -31.5 -3.5t-26.5 10.5q-16 11 -24 23.5t-8 27.5v1088q0 78 41.5 143 t112.5 94zM1155 688q13 11 23.5 25t18.5 29l147 288v-1004l-640 211v800l147 -295q24 -48 70 -75t103 -27q38 0 71.5 12t59.5 36z" />
<glyph unicode="&#xe680;" d="M542 1856q221 128 482 128t482 -128q221 -129 349.5 -350t128.5 -482t-128.5 -482t-349.5 -349q-221 -129 -482 -129t-482 129q-221 128 -349.5 349t-128.5 482t128.5 482t349.5 350zM670 414q162 -94 354 -94t354 94t256 256t94 354t-94 354t-256 256t-354 94t-354 -94 t-256 -256t-94 -354t94 -354t256 -256zM1389 1472q14 5 32 0t32 -19q16 -16 19.5 -33.5t-6.5 -37.5l-192 -576q-5 -14 -14.5 -23.5t-24.5 -14.5l-576 -192h-19q-14 0 -25 6.5t-20 19.5q-10 9 -13.5 26.5t0.5 37.5l192 576q5 14 15 23.5t24 14.5zM934 934q37 -38 90 -38 t91 38q37 37 37 90t-37 91q-38 37 -91 37t-90 -37q-38 -38 -38 -91t38 -90z" />
<glyph unicode="&#xe6d0;" d="M1139 64q-19 -29 -50.5 -46.5t-64.5 -17.5q-34 0 -65 18.5t-50 51.5l-512 954q-38 72 -57.5 152t-19.5 168q0 192 94 354t256 256t354 94t354 -94t256 -256t94 -354q0 -86 -19 -167.5t-58 -158.5zM1024 1792q-187 0 -317.5 -130.5t-130.5 -317.5q0 -51 13 -102t38 -103 l397 -742l397 742q26 52 38.5 103t12.5 102q0 187 -130.5 317.5t-317.5 130.5zM888 1208q-56 56 -56 136t56 136t136 56t136 -56t56 -136t-56 -136t-136 -56t-136 56z" />
<glyph unicode="&#xe7c0;" d="M1792 896h128q53 0 90.5 -37.5t37.5 -90.5t-37.5 -90.5t-90.5 -37.5h-128v-128q0 -106 -75 -181t-181 -75h-128v-128q0 -53 -37.5 -90.5t-90.5 -37.5t-90.5 37.5t-37.5 90.5v128h-256v-128q0 -53 -37.5 -90.5t-90.5 -37.5t-90.5 37.5t-37.5 90.5v128h-128q-106 0 -181 75 t-75 181v128h-128q-53 0 -90.5 37.5t-37.5 90.5t37.5 90.5t90.5 37.5h128v256h-128q-53 0 -90.5 37.5t-37.5 90.5t37.5 90.5t90.5 37.5h128v128q0 106 75 181t181 75h128v128q0 53 37.5 90.5t90.5 37.5t90.5 -37.5t37.5 -90.5v-128h256v128q0 53 37.5 90.5t90.5 37.5 t90.5 -37.5t37.5 -90.5v-128h128q106 0 181 -75t75 -181v-128h128q53 0 90.5 -37.5t37.5 -90.5t-37.5 -90.5t-90.5 -37.5h-128v-256zM512 512h1024v1024h-1024v-1024zM1408 640h-768v768h768v-768z" />
<glyph unicode="&#xe800;" d="M256 1920h1536q106 0 181 -75t75 -181v-1152q0 -106 -75 -181t-181 -75h-77l-256 256h333v1152h-1536v-1152h333l-256 -256h-77q-106 0 -181 75t-75 181v1152q0 106 75 181t181 75zM365 109l569 569q39 39 90 39t90 -39l569 -569q18 -21 18.5 -45.5t-17.5 -43.5 q-9 -10 -20.5 -15t-25.5 -5h-1228q-28 0 -46 19.5t-17 44.5q0 12 4.5 23.5t13.5 21.5z" />
<glyph unicode="&#xe8a0;" d="M1664 1536v-1024q0 -53 -37.5 -90.5t-90.5 -37.5h-256q-53 0 -90.5 37.5t-37.5 90.5v1024q0 53 37.5 90.5t90.5 37.5h256q53 0 90.5 -37.5t37.5 -90.5zM896 1536v-1024q0 -53 -37.5 -90.5t-90.5 -37.5h-256q-53 0 -90.5 37.5t-37.5 90.5v1024q0 53 37.5 90.5t90.5 37.5 h256q53 0 90.5 -37.5t37.5 -90.5z" />
<glyph unicode="&#xe8b1;" d="M2048 1472v-64h-256v-256h256v-256h-256v-256h256v-64q0 -106 -75 -181t-181 -75h-1536q-106 0 -181 75t-75 181v64h256v256h-256v256h256v256h-256v64q0 106 75 181t181 75h1536q106 0 181 -75t75 -181zM896 1344v-640l448 320z" />
<glyph unicode="&#xe9a0;" d="M1792 1728v-256q0 -28 -19.5 -46t-44.5 -18h-256q-29 0 -46.5 17.5t-17.5 46.5v256q0 29 17.5 46.5t46.5 17.5h256q25 0 44.5 -18t19.5 -46zM1216 1728v-256q0 -28 -19.5 -46t-44.5 -18h-256q-25 0 -44.5 18t-19.5 46v256q0 28 19.5 46t44.5 18h256q25 0 44.5 -18 t19.5 -46zM640 1728v-256q0 -29 -17.5 -46.5t-46.5 -17.5h-256q-29 0 -46.5 17.5t-17.5 46.5v256q0 28 19.5 46t44.5 18h256q29 0 46.5 -17.5t17.5 -46.5zM1792 1152v-256q0 -24 -20 -44t-44 -20h-256q-28 0 -46 19.5t-18 44.5v256q0 29 17.5 46.5t46.5 17.5h256 q25 0 44.5 -18t19.5 -46zM1216 1152v-256q0 -24 -20 -44t-44 -20h-256q-24 0 -44 20t-20 44v256q0 28 19.5 46t44.5 18h256q25 0 44.5 -18t19.5 -46zM640 1152v-256q0 -25 -18 -44.5t-46 -19.5h-256q-28 0 -46 19.5t-18 44.5v256q0 28 19.5 46t44.5 18h256q29 0 46.5 -17.5 t17.5 -46.5zM1792 576v-256q0 -24 -20 -44t-44 -20h-256q-28 0 -46 19.5t-18 44.5v256q0 25 18 44.5t46 19.5h256q24 0 44 -20t20 -44zM1216 576v-256q0 -24 -20 -44t-44 -20h-256q-24 0 -44 20t-20 44v256q0 24 20 44t44 20h256q24 0 44 -20t20 -44zM640 576v-256 q0 -25 -18 -44.5t-46 -19.5h-256q-28 0 -46 19.5t-18 44.5v256q0 24 20 44t44 20h256q28 0 46 -19.5t18 -44.5z" />
<glyph unicode="&#xe9a3;" d="M1792 1664v-384q0 -53 -37.5 -90.5t-90.5 -37.5h-384q-53 0 -90.5 37.5t-37.5 90.5v384q0 53 37.5 90.5t90.5 37.5h384q53 0 90.5 -37.5t37.5 -90.5zM896 1664v-384q0 -53 -37.5 -90.5t-90.5 -37.5h-384q-53 0 -90.5 37.5t-37.5 90.5v384q0 53 37.5 90.5t90.5 37.5h384 q53 0 90.5 -37.5t37.5 -90.5zM1792 768v-384q0 -53 -37.5 -90.5t-90.5 -37.5h-384q-53 0 -90.5 37.5t-37.5 90.5v384q0 53 37.5 90.5t90.5 37.5h384q53 0 90.5 -37.5t37.5 -90.5zM896 768v-384q0 -53 -37.5 -90.5t-90.5 -37.5h-384q-53 0 -90.5 37.5t-37.5 90.5v384 q0 53 37.5 90.5t90.5 37.5h384q53 0 90.5 -37.5t37.5 -90.5z" />
<glyph unicode="&#xe9a4;" d="M1376 1222l384 -217q19 -10 33.5 -27t22.5 -38q4 -11 6 -22t2 -22v-512q0 -33 -16 -60t-48 -49l-448 -256q-29 -19 -64 -19t-64 19l-448 256q-29 15 -46.5 45t-17.5 64v435l-320 179q-38 23 -67 58.5t-45 78.5q-8 22 -12 43.5t-4 43.5v365q0 71 34.5 130.5t93.5 93.5 l384 218q29 19 64 19t64 -19l384 -218q38 -22 67 -57.5t45 -78.5q8 -21 12 -43t4 -45v-365zM480 1587v-358l320 -192l320 185v365l-320 186z" />
<glyph unicode="&#xe9b0;" d="M1921 1676q-2 -19 -13 -40.5t-31 -41.5l-723 -724v-454q0 -17 -6.5 -29.5t-19.5 -21.5l-128 -96q-33 -24 -67.5 -6t-34.5 57v550l-723 724q-26 26 -36.5 56.5t-8.5 46.5q1 8 2.5 16t3.5 15q8 22 37.5 43t84.5 21h1536q55 0 84.5 -21t37.5 -43q3 -10 4.5 -21.5t0.5 -30.5z " />
<glyph unicode="&#xea00;" d="M384 1920h1280q106 0 181 -75t75 -181v-1216h-1792v1216q0 106 75 181t181 75zM384 704h1280v960h-1280v-960zM2048 192q0 -53 -37.5 -90.5t-90.5 -37.5h-1792q-53 0 -90.5 37.5t-37.5 90.5t37.5 90.5t90.5 37.5h1792q53 0 90.5 -37.5t37.5 -90.5z" />
<glyph unicode="&#xea10;" d="M1792 1280h128q53 0 90.5 -37.5t37.5 -90.5v-256q0 -53 -37.5 -90.5t-90.5 -37.5h-128v-192q0 -106 -75 -181t-181 -75h-1280q-106 0 -181 75t-75 181v896q0 106 75 181t181 75h1280q106 0 181 -75t75 -181v-192zM256 576h1280v896h-1280v-896zM1152 704h-768v640h768 v-640z" />
<glyph unicode="&#xea11;" d="M1792 1280h128q53 0 90.5 -37.5t37.5 -90.5v-256q0 -53 -37.5 -90.5t-90.5 -37.5h-128v-192q0 -106 -75 -181t-181 -75h-1280q-106 0 -181 75t-75 181v896q0 106 75 181t181 75h1280q106 0 181 -75t75 -181v-192zM256 576h1280v896h-1280v-896zM896 704h-512v640h512 v-640z" />
<glyph unicode="&#xea12;" d="M1792 1280h128q53 0 90.5 -37.5t37.5 -90.5v-256q0 -53 -37.5 -90.5t-90.5 -37.5h-128v-192q0 -106 -75 -181t-181 -75h-1280q-106 0 -181 75t-75 181v896q0 106 75 181t181 75h1280q106 0 181 -75t75 -181v-192zM256 576h1280v896h-1280v-896zM704 704h-320v640h320 v-640z" />
<glyph unicode="&#xea13;" d="M1792 1280h128q53 0 90.5 -37.5t37.5 -90.5v-256q0 -53 -37.5 -90.5t-90.5 -37.5h-128v-192q0 -106 -75 -181t-181 -75h-1280q-106 0 -181 75t-75 181v896q0 106 75 181t181 75h1280q106 0 181 -75t75 -181v-192zM256 576h1280v896h-1280v-896z" />
<glyph unicode="&#xea14;" d="M1792 1280h128q53 0 90.5 -37.5t37.5 -90.5v-256q0 -53 -37.5 -90.5t-90.5 -37.5h-128v-192q0 -106 -75 -181t-181 -75h-1280q-106 0 -181 75t-75 181v896q0 106 75 181t181 75h1280q106 0 181 -75t75 -181v-192zM896 896v-384l384 640h-384v384l-384 -640h384z" />
<glyph unicode="&#xea8f;" d="M1920 1024q-53 0 -90.5 37.5t-37.5 90.5v640q0 53 37.5 90.5t90.5 37.5t90.5 -37.5t37.5 -90.5v-640q0 -53 -37.5 -90.5t-90.5 -37.5zM896 896v-512h-640v512q0 242 120.5 448.5t327.5 327.5q103 60 215 90t233 30h512v-640h-512q-106 0 -181 -75t-75 -181zM1024 128 q0 -53 -37.5 -90.5t-90.5 -37.5h-640q-53 0 -90.5 37.5t-37.5 90.5t37.5 90.5t90.5 37.5h640q53 0 90.5 -37.5t37.5 -90.5z" />
<glyph unicode="&#xeb00;" d="M1979 576q-69 -118 -187 -187t-256 -69h-429l346 410q12 18 13.5 35.5t-7.5 34.5q-5 15 -18.5 23.5t-32.5 8.5h-256v448q0 53 -37.5 90.5t-90.5 37.5t-90.5 -37.5t-37.5 -90.5v-448h-256q-20 0 -36.5 -10t-21.5 -28q-8 -17 -6.5 -35t13.5 -36l345 -409h-486 q-92 0 -175 35t-143 95t-95 143t-35 175q0 110 50.5 205.5t138.5 157.5q43 31 92 50.5t103 27.5v13q0 118 45.5 224.5t122.5 183.5t183.5 122.5t224.5 45.5q135 0 254 -58.5t200 -160.5q41 -51 68 -108t41 -121h13q138 0 256 -69t187 -187t69 -256t-69 -256z" />
<glyph unicode="&#xeb01;" d="M1856 384q0 -106 -75 -181t-181 -75h-1152q-106 0 -181 75t-75 181v186q0 48 30.5 86t78.5 48q57 10 102 -30t45 -98v-192h1152v186q0 48 30.5 86t78.5 48q61 9 104 -30t43 -98v-192zM1722 1306q10 -19 6.5 -37t-19.5 -34l-595 -595q-39 -38 -90 -38t-90 38l-595 595 q-16 16 -19 34t6 37q5 18 21.5 28t36.5 10h512v576q0 53 37.5 90.5t90.5 37.5t90.5 -37.5t37.5 -90.5v-576h512q20 0 36.5 -10t21.5 -28z" />
<glyph unicode="&#xeb40;" d="M1979 576q-69 -118 -187 -187t-256 -69h-384v448h256q28 0 46 19.5t18 44.5q0 17 -6.5 30t-19.5 21l-377 442q-19 19 -48 19t-48 -19l-384 -448q-12 -18 -13.5 -35.5t6.5 -35.5q5 -18 21.5 -28t36.5 -10h256v-448h-448q-187 0 -317.5 130.5t-130.5 317.5q0 110 50.5 206 t138.5 158q43 31 92 50.5t103 27.5v6q0 118 45.5 224.5t122.5 183.5t183.5 122.5t224.5 45.5q135 0 254 -58.5t200 -160.5q41 -51 68 -108t41 -121h13q138 0 256 -69t187 -187t69 -256t-69 -256z" />
<glyph unicode="&#xeb41;" d="M1702 1395q13 -12 19.5 -25t6.5 -26q0 -24 -20 -44t-44 -20h-512v-640q0 -53 -37.5 -90.5t-90.5 -37.5t-90.5 37.5t-37.5 90.5v640h-512q-20 0 -36.5 10t-21.5 28q-9 20 -6 37.5t19 33.5l595 595q39 38 90 38t90 -38zM1709 704q57 10 102 -30t45 -98v-192 q0 -106 -75 -181t-181 -75h-1152q-106 0 -181 75t-75 181v186q0 48 30.5 86t78.5 48q57 10 102 -30t45 -98v-192h1152v186q0 48 30.5 86t78.5 48z" />
<glyph unicode="&#xeb80;" d="M1581 877l390 -333q23 -22 34 -46t11 -50q0 -30 -11 -54t-34 -42l-390 -333q-9 -9 -20.5 -14t-24.5 -5q-9 0 -15.5 1.5t-10.5 4.5q-18 5 -28 21.5t-10 36.5v256h-499q-72 0 -131 36t-93 98l-250 442h-371q-53 0 -90.5 37.5t-37.5 90.5t37.5 90.5t90.5 37.5h371l250 442 q34 62 93 98t131 36h499v256q0 20 10 36.5t28 21.5q20 10 37.5 6.5t33.5 -19.5l390 -333q23 -22 34 -46t11 -50q0 -30 -11 -54t-34 -42l-390 -333q-9 -9 -20.5 -14t-24.5 -5q-9 0 -15.5 1.5t-10.5 4.5q-18 5 -28 21.5t-10 36.5v256h-499l-250 -448l250 -448h499v256 q0 20 10 36.5t28 21.5q20 10 37.5 6.5t33.5 -19.5z" />
<glyph unicode="&#xeb81;" d="M1971 1120q23 -22 34 -46t11 -50q0 -30 -11 -54t-34 -42l-390 -333q-9 -9 -20.5 -14t-24.5 -5q-9 0 -15.5 1.5t-10.5 4.5q-18 5 -28 21.5t-10 36.5v256h-307l-250 -442q-34 -62 -93 -98t-131 -36h-563q-53 0 -90.5 37.5t-37.5 90.5t37.5 90.5t90.5 37.5h563l250 448 l-250 448h-563q-53 0 -90.5 37.5t-37.5 90.5t37.5 90.5t90.5 37.5h563q72 0 131 -36t93 -98l250 -442h307v256q0 20 10 36.5t28 21.5q20 10 37.5 6.5t33.5 -19.5z" />
<glyph unicode="&#xeb83;" d="M1024 1536q-53 0 -90.5 37.5t-37.5 90.5v256q0 53 37.5 90.5t90.5 37.5t90.5 -37.5t37.5 -90.5v-256q0 -53 -37.5 -90.5t-90.5 -37.5zM1389 1389q-39 38 -39 89.5t39 89.5l179 179q38 39 89.5 39t90.5 -38q38 -39 38 -90.5t-39 -89.5l-179 -179q-38 -39 -89.5 -39 t-89.5 39zM659 1389q-14 -18 -39 -28.5t-50 -10.5q-26 0 -48.5 10t-41.5 29l-179 179q-39 38 -39 89.5t39 90.5q38 38 89.5 38t89.5 -39l179 -179q39 -38 39 -89.5t-39 -89.5zM512 1024q0 -53 -37.5 -90.5t-90.5 -37.5h-256q-53 0 -90.5 37.5t-37.5 90.5t37.5 90.5 t90.5 37.5h256q53 0 90.5 -37.5t37.5 -90.5zM2048 1024q0 -53 -37.5 -90.5t-90.5 -37.5h-256q-53 0 -90.5 37.5t-37.5 90.5t37.5 90.5t90.5 37.5h256q53 0 90.5 -37.5t37.5 -90.5zM301 301q-39 38 -39 89.5t39 89.5l179 179q38 39 89.5 39t90.5 -38q38 -39 38 -90.5 t-39 -89.5l-179 -179q-38 -39 -89.5 -39t-89.5 39zM1748 301q-39 -39 -90.5 -39t-89.5 39l-179 179q-39 38 -39 89.5t39 90.5q38 38 89.5 38t89.5 -39l179 -179q39 -38 39 -89.5t-38 -89.5zM1024 0q-53 0 -90.5 37.5t-37.5 90.5v256q0 53 37.5 90.5t90.5 37.5t90.5 -37.5 t37.5 -90.5v-256q0 -53 -37.5 -90.5t-90.5 -37.5z" />
<glyph unicode="&#xeb84;" d="M2094 1216q-18 -22 -40.5 -33.5t-49.5 -11.5q-25 0 -47.5 10t-41.5 29q-89 88 -192.5 157.5t-216.5 116.5t-235 72t-246 25q-251 0 -481.5 -94.5t-401.5 -270.5q-39 -38 -90 -38t-90 38q-38 38 -38 89.5t39 89.5q143 145 319 245t362 148q185 48 382 48t383 -48t363 -148 t322 -245q38 -38 38 -89.5t-38 -89.5zM1710 832q-39 -38 -90 -38t-89 38q-102 101 -235 154t-268 53q-136 0 -270.5 -53t-238.5 -154q-38 -38 -89 -38t-89 38q-39 38 -39 89.5t38 89.5q139 139 320.5 211.5t364.5 72.5t364.5 -72.5t320.5 -211.5q38 -38 38 -89.5t-38 -89.5z M844 267q-75 75 -75 181t75 181t181 75t181 -75t75 -181t-75 -181t-181 -75t-181 75z" />
<glyph unicode="&#xeb85;" d="M2048 1280q0 -106 -75 -181t-181 -75q-16 0 -27 1.5t-18 4.5l-320 -377q26 -51 38.5 -102.5t12.5 -102.5q0 -92 -35 -175t-95 -143t-143 -95t-175 -35t-175 35t-142 95q-60 60 -95.5 143t-35.5 175q0 54 12.5 105.5t37.5 98.5q12 23 27 44t32 40l-339 608h-32 q-134 0 -227 93t-93 227t93 227t227 93t227 -93t93 -227q0 -53 -16 -101t-48 -91l326 -589q29 10 61 14.5t67 4.5q61 0 115.5 -14t102.5 -43l307 358q-9 15 -14 34t-5 43q0 106 75 181t181 75t181 -75t75 -181z" />
<glyph unicode="&#xed00;" d="M1792 1728q0 -53 -37.5 -90.5t-90.5 -37.5h-512v-1280q0 -53 -37.5 -90.5t-90.5 -37.5t-90.5 37.5t-37.5 90.5v1280h-512q-53 0 -90.5 37.5t-37.5 90.5t37.5 90.5t90.5 37.5h1280q53 0 90.5 -37.5t37.5 -90.5z" />
<glyph unicode="&#xed01;" d="M1308 1677l423 -1319q14 -53 -9 -99t-75 -61q-6 -3 -15.5 -4.5t-22.5 -1.5q-38 0 -72.5 25.5t-49.5 64.5l-115 358h-678l-115 -358q-14 -52 -62.5 -75.5t-97.5 -8.5q-52 15 -75 61t-9 99l416 1319q24 81 90.5 130t153.5 49h70q86 0 152.5 -49t90.5 -130zM1001 1600 l-224 -704h512l-218 704h-70z" />
<glyph unicode="&#xed50;" d="M248 1528q-56 56 -56 136t56 136t136 56t136 -56t56 -136t-56 -136t-136 -56t-136 56zM1856 1664q0 -53 -37.5 -90.5t-90.5 -37.5h-896q-53 0 -90.5 37.5t-37.5 90.5t37.5 90.5t90.5 37.5h896q53 0 90.5 -37.5t37.5 -90.5zM248 888q-56 56 -56 136t56 136t136 56t136 -56 t56 -136t-56 -136t-136 -56t-136 56zM1856 1024q0 -53 -37.5 -90.5t-90.5 -37.5h-896q-53 0 -90.5 37.5t-37.5 90.5t37.5 90.5t90.5 37.5h896q53 0 90.5 -37.5t37.5 -90.5zM248 248q-56 56 -56 136t56 136t136 56t136 -56t56 -136t-56 -136t-136 -56t-136 56zM1856 384 q0 -53 -37.5 -90.5t-90.5 -37.5h-896q-53 0 -90.5 37.5t-37.5 90.5t37.5 90.5t90.5 37.5h896q53 0 90.5 -37.5t37.5 -90.5z" />
<glyph unicode="&#xeda0;" d="M1728 1856q53 0 90.5 -37.5t37.5 -90.5v-320h-1664v320q0 53 37.5 90.5t90.5 37.5h1408zM768 1280h1088v-960q0 -53 -37.5 -90.5t-90.5 -37.5h-960v1088zM192 1280h448v-1088h-320q-53 0 -90.5 37.5t-37.5 90.5v960z" />
<glyph unicode="&#xee00;" d="M1728 954l256 179v-877q0 -106 -75 -181t-181 -75h-1472q-106 0 -181 75t-75 181v1088q0 106 75 181t181 75h486q-62 -24 -114.5 -57.5t-96.5 -76.5q-31 -31 -55 -61.5t-41 -60.5h-179v-1088h1472v698zM1978 1536q70 -50 70 -128t-70 -128l-621 -429q-27 -16 -49.5 -24 t-40.5 -8q-43 0 -79 37t-36 104v320q-52 0 -85 -2t-88 -10t-100 -29t-79 -55q-48 -43 -72 -115t-24 -173q0 -53 -37.5 -90.5t-90.5 -37.5t-90.5 37.5t-37.5 90.5q0 155 43.5 273.5t129.5 200.5q34 33 75 59.5t81 44.5q39 17 82 30.5t83 19.5q39 6 78 10t71 3q16 0 31.5 -0.5 t29.5 -0.5v320q0 67 36 104t79 37q18 0 40.5 -8t49.5 -24z" />
<glyph unicode="&#xee01;" d="M1946 1946q38 -39 38 -90t-38 -90l-308 -307l256 -256q13 -12 19.5 -25t6.5 -26q0 -25 -18 -44.5t-46 -19.5h-640q-53 0 -90.5 37.5t-37.5 90.5v640q0 20 10 36.5t28 21.5q20 10 37.5 6.5t33.5 -19.5l262 -263l307 308q39 38 90 38t90 -38zM896 1024q53 0 90.5 -37.5 t37.5 -90.5v-640q0 -20 -10 -36.5t-28 -21.5q-3 -3 -9.5 -4.5t-16.5 -1.5q-13 0 -24 5t-21 14l-262 263l-307 -308q-39 -38 -90 -38t-89 39q-39 38 -39 89t38 90l308 307l-263 262q-16 16 -19 34t6 37q5 18 21.5 28t36.5 10h640z" />
<glyph unicode="&#xee04;" d="M550 1677l308 -307q38 -39 38 -90t-38 -89q-39 -39 -90 -39t-90 38l-307 308l-262 -263q-9 -9 -20.5 -14t-24.5 -5q-9 0 -15.5 1.5t-10.5 4.5q-18 5 -28 21.5t-10 36.5v640q0 53 37.5 90.5t90.5 37.5h640q20 0 36.5 -10t21.5 -28q10 -19 6.5 -37t-19.5 -34zM1920 2048 q53 0 90.5 -37.5t37.5 -90.5v-640q0 -20 -10 -36.5t-28 -21.5q-3 -3 -9.5 -4.5t-16.5 -1.5q-13 0 -24 5t-21 14l-262 263l-307 -308q-39 -38 -90 -38t-89 39q-39 38 -39 89t38 90l308 307l-263 262q-16 16 -19 34t6 37q5 18 21.5 28t36.5 10h640zM2010 826q18 -5 28 -21.5 t10 -36.5v-640q0 -53 -37.5 -90.5t-90.5 -37.5h-640q-20 0 -36.5 10t-21.5 28q-9 20 -6 37.5t19 33.5l263 262l-308 307q-38 39 -38 90t39 90q38 38 89 38t90 -38l307 -308l262 263q16 16 34 19.5t37 -6.5zM858 858q38 -39 38 -90t-38 -90l-308 -307l256 -256 q13 -12 19.5 -25t6.5 -26q0 -25 -18 -44.5t-46 -19.5h-640q-53 0 -90.5 37.5t-37.5 90.5v640q0 20 10 36.5t28 21.5q20 10 37.5 6.5t33.5 -19.5l262 -263l307 308q39 38 90 38t90 -38z" />
<glyph unicode="&#xee05;" d="M892 1945q2 -6 3 -12t1 -13v-640q0 -53 -37.5 -90.5t-90.5 -37.5h-640q-20 0 -36.5 10t-21.5 28q-9 20 -6 37.5t19 33.5l263 262l-308 307q-38 39 -38 90t39 90q38 38 89 38t90 -38l307 -308l262 263q16 16 34 19.5t37 -6.5q12 -3 21 -12t13 -21zM2010 2010 q38 -39 38 -90t-38 -90l-308 -307l256 -256q13 -12 19.5 -25t6.5 -26q0 -25 -18 -44.5t-46 -19.5h-640q-53 0 -90.5 37.5t-37.5 90.5v640q0 20 10 36.5t28 21.5q20 10 37.5 6.5t33.5 -19.5l262 -263l307 308q39 38 90 38t90 -38zM2010 39q-39 -39 -90 -39t-90 38l-307 308 l-262 -263q-9 -9 -20.5 -14t-24.5 -5q-9 0 -15.5 1.5t-10.5 4.5q-18 5 -28 21.5t-10 36.5v640q0 53 37.5 90.5t90.5 37.5h640q20 0 36.5 -10t21.5 -28q10 -19 6.5 -37t-19.5 -34l-263 -262l308 -307q38 -39 38 -90t-38 -89zM768 896q53 0 90.5 -37.5t37.5 -90.5v-640 q0 -20 -10 -36.5t-28 -21.5q-3 -3 -9.5 -4.5t-16.5 -1.5q-13 0 -24 5t-21 14l-262 263l-307 -308q-39 -38 -90 -38t-89 39q-39 38 -39 89t38 90l308 307l-263 262q-16 16 -19 34t6 37q3 12 12 21t21 13q6 2 12.5 3t12.5 1h640z" />
<glyph unicode="&#xee06;" d="M1792 1600q0 -53 -37.5 -90.5t-90.5 -37.5h-1280q-53 0 -90.5 37.5t-37.5 90.5t37.5 90.5t90.5 37.5h1280q53 0 90.5 -37.5t37.5 -90.5zM1792 1024q0 -53 -37.5 -90.5t-90.5 -37.5h-1280q-53 0 -90.5 37.5t-37.5 90.5t37.5 90.5t90.5 37.5h1280q53 0 90.5 -37.5 t37.5 -90.5zM1792 448q0 -53 -37.5 -90.5t-90.5 -37.5h-1280q-53 0 -90.5 37.5t-37.5 90.5t37.5 90.5t90.5 37.5h1280q53 0 90.5 -37.5t37.5 -90.5z" />
<glyph unicode="&#xee10;" d="M1024 1088q-53 0 -90.5 37.5t-37.5 90.5v704q0 53 37.5 90.5t90.5 37.5t90.5 -37.5t37.5 -90.5v-704q0 -53 -37.5 -90.5t-90.5 -37.5zM576 121q-207 120 -327.5 326.5t-120.5 448.5q0 239 120.5 446.5t327.5 327.5q49 28 98.5 14t74.5 -58q27 -49 13 -99t-58 -74 q-149 -87 -234.5 -235.5t-85.5 -321.5t86 -320.5t234 -233.5q147 -86 320 -86t321 86q147 86 233 233.5t86 320.5q0 114 -38.5 220.5t-110.5 193.5q-36 43 -78.5 79t-92.5 64q-48 29 -61 79t16 94q29 47 79.5 60t93.5 -16q207 -120 327.5 -327.5t120.5 -446.5 q0 -242 -120.5 -448.5t-326.5 -326.5q-207 -121 -449 -121t-448 121z" />
<glyph unicode="&#xf000;" d="M753 2011q132 37 271 37t272 -37q132 -37 244 -103t207 -161t161 -207t103 -244q37 -133 37 -272t-37 -271q-37 -133 -103 -245t-161 -207t-207 -161t-244 -103q-133 -37 -272 -37t-271 37q-133 37 -245 103t-207 161t-161 207t-103 245q-37 132 -37 271t37 272 q37 132 103 244t161 207t207 161t245 103zM1120 1472l58 -704h569q23 54 34 118t11 138q0 156 -61 298t-164 245t-245 164t-298 61t-298 -61t-245 -164t-164 -245t-61 -298q0 -74 11.5 -138t33.5 -118h569l58 704q0 42 31.5 68.5t70.5 21.5q19 -3 35 -11t27 -20t18.5 -27 t9.5 -32z" />
<glyph unicode="&#xf037;" d="M1728 2048l320 -320l-410 -646q-14 -24 -46.5 -41t-61.5 -17h-327l-672 -672l135 -134q38 -39 38 -90t-38 -89q-39 -39 -90 -39t-90 38l-448 448q-38 39 -38 90t39 90q38 38 89 38t90 -38l134 -135l672 672v327q0 19 7.5 40.5t21.5 40.5q6 9 13.5 16t15.5 11z" />
<glyph unicode="&#xf03a;" d="M2028 1439q-36 -147 -128.5 -305.5t-229.5 -295.5l-32 -32q-38 -38 -89 -38t-90 38l-237 237l-691 -691l135 -134q38 -39 38 -90t-38 -89q-39 -39 -90 -39t-90 38l-448 448q-38 39 -38 90t39 90q38 38 89 38t90 -38l134 -135l691 691l-237 237q-38 39 -38 90t38 89l32 32 q139 139 298 232t305 128t276.5 11.5t215.5 -108.5t108 -216.5t-13 -277.5z" />
<glyph unicode="&#xf03b;" d="M666 39q-39 -39 -90 -39t-90 38l-448 448q-38 39 -38 90t39 90q38 38 89 38t90 -38l134 -135l787 787v7q-6 6 -15.5 19t-16.5 19q-6 10 -19 24.5t-32 33.5q-17 23 -30 47t-21 49q-9 29 -14 61t-5 67q0 21 6 44t13 38q3 7 8 17l11 22q2 6 4.5 11t6.5 10q3 5 6 9.5t8 10.5 l4 6t3 5q0 9 10.5 21t21.5 17q19 19 35 33.5t29 24.5q23 22 50 46t59 50q18 16 35 31.5t29 26.5q11 11 20.5 20t13.5 13l4 5q24 24 61 22.5t61 -29.5q24 -24 24 -57.5t-24 -57.5q-19 -19 -43 -44.5t-53 -57.5q-32 -32 -56 -59t-40 -50q-10 -10 -26 -29t-25 -29l-11 -11 t-9 -8q-3 -3 -6 -9.5t-6 -9.5q-9 -22 -9 -39.5t9 -31.5q3 -6 9.5 -14t15.5 -18q5 -4 10 -9t9 -10q4 -3 13.5 -9.5t12.5 -9.5q10 -6 24 -20.5t21 -17.5l531 486q28 25 66 23.5t62 -29.5q24 -24 24 -61t-24 -61l-499 -544q5 -6 19.5 -23.5t25.5 -27.5q2 -3 5.5 -8t7.5 -10 q1 -2 3 -4t3 -4l13 -13q5 -2 10.5 -7t10.5 -10q3 -3 5.5 -5t5.5 -3q12 -4 19.5 -6t21.5 -1q7 1 14.5 2.5t14.5 4.5q3 0 8 3.5t11 9.5q3 2 11 7t15 12q19 19 33.5 32t23.5 19q23 23 50 47t59 49q29 26 54.5 50t36.5 35l12 11q28 25 66 23.5t62 -29.5q24 -20 24 -56t-24 -60 q-19 -19 -43 -44.5t-53 -57.5q-16 -16 -40 -43t-56 -66q-19 -19 -33.5 -35t-24.5 -29q-13 -12 -24 -21.5t-21 -16.5q-11 -11 -23.5 -19t-27.5 -13q-59 -30 -121.5 -39t-128.5 13q-25 9 -49 21.5t-47 29.5q-6 7 -19 16.5t-19 15.5q-3 4 -12.5 10t-13.5 10q-6 6 -22 19t-22 19 l-775 -768l135 -134q38 -39 38 -90t-38 -89z" />
<glyph unicode="&#xf070;" d="M1728 1728v320q106 0 181 -75t75 -181v-1536q0 -106 -75 -181t-181 -75h-1408q-106 0 -181 75t-75 181v1536q0 106 75 181t181 75v-320q0 -53 37.5 -90.5t90.5 -37.5t90.5 37.5t37.5 90.5v320h896v-320q0 -53 37.5 -90.5t90.5 -37.5t90.5 37.5t37.5 90.5zM320 256h1408 v1152h-1408v-1152zM1472 832q0 -53 -37.5 -90.5t-90.5 -37.5h-192v-192q0 -53 -37.5 -90.5t-90.5 -37.5t-90.5 37.5t-37.5 90.5v192h-192q-53 0 -90.5 37.5t-37.5 90.5t37.5 90.5t90.5 37.5h192v192q0 53 37.5 90.5t90.5 37.5t90.5 -37.5t37.5 -90.5v-192h192 q53 0 90.5 -37.5t37.5 -90.5z" />
<glyph unicode="&#xf071;" d="M1728 1728v320q106 0 181 -75t75 -181v-1536q0 -106 -75 -181t-181 -75h-1408q-106 0 -181 75t-75 181v1536q0 106 75 181t181 75v-320q0 -53 37.5 -90.5t90.5 -37.5t90.5 37.5t37.5 90.5v320h896v-320q0 -53 37.5 -90.5t90.5 -37.5t90.5 37.5t37.5 90.5zM320 256h1408 v1152h-1408v-1152zM1472 838q0 -52 -37.5 -90t-90.5 -38h-640q-53 0 -90.5 38t-37.5 91q0 52 37.5 89.5t90.5 37.5h640q35 0 64.5 -17t46.5 -46q9 -15 13 -31t4 -34z" />
<glyph unicode="&#xf072;" d="M1728 1728v320q106 0 181 -75t75 -181v-1536q0 -106 -75 -181t-181 -75h-1408q-106 0 -181 75t-75 181v1536q0 106 75 181t181 75v-320q0 -53 37.5 -90.5t90.5 -37.5t90.5 37.5t37.5 90.5v320h896v-320q0 -53 37.5 -90.5t90.5 -37.5t90.5 37.5t37.5 90.5zM320 256h1408 v1152h-1408v-1152zM1075 512q-67 -77 -179 -77t-179 77l-167 166q-38 39 -38 90t39 90q38 38 89 38t90 -38l166 -167l422 423q39 38 90 38t90 -38q38 -39 38 -90t-38 -90z" />
<glyph unicode="&#xf073;" d="M1728 1728v320q106 0 181 -75t75 -181v-1536q0 -106 -75 -181t-181 -75h-1408q-106 0 -181 75t-75 181v1536q0 106 75 181t181 75v-320q0 -53 37.5 -90.5t90.5 -37.5t90.5 37.5t37.5 90.5v320h896v-320q0 -53 37.5 -90.5t90.5 -37.5t90.5 37.5t37.5 90.5zM320 256h1408 v1152h-1408v-1152zM1203 832l141 -134q38 -39 38 -90t-38 -89q-38 -39 -89.5 -39t-89.5 38l-141 135l-134 -141q-39 -38 -90 -38t-89 38q-39 38 -39 92t38 87l135 135l-141 140q-38 39 -38 92.5t38 87.5q38 38 89.5 38t89.5 -38l135 -135l134 135q38 38 89.5 38t90.5 -38 q38 -39 38 -90t-39 -90z" />
<glyph unicode="&#xf101;" d="M1400 1722l634 -1332q10 -14 14.5 -31.5t4.5 -38.5q0 -53 -37.5 -90.5t-90.5 -37.5h-1792q-38 0 -69.5 21.5t-45.5 55.5q-15 33 -10 69.5t29 64.5l576 679q34 -29 74 -43.5t86 -14.5q106 0 181 75t75 181q0 57 -20.5 103.5t-62.5 82.5l243 281q27 27 56 38.5t59 6.5 t56 -23.5t40 -46.5zM1276 567q55 -55 137 -55t137 55t55 137t-55 137t-137 55t-137 -55t-55 -137t55 -137zM875 358q37 -38 90 -38t91 38q37 37 37 90t-37 91q-38 37 -91 37t-90 -37q-38 -38 -38 -91t38 -90z" />
<glyph unicode="&#xf103;" d="M1992 1837q0 -6 -3 -16t-10 -23l-134 -185q34 -22 61 -50.5t46 -62.5t29.5 -73.5t10.5 -82.5v-128q0 -187 -58.5 -362.5t-164.5 -317.5q-107 -142 -249 -248.5t-317 -164.5q-88 -30 -178.5 -44.5t-184.5 -14.5h-128q-85 0 -155 39.5t-114 107.5l-102 -121 q-34 -44 -88.5 -47.5t-97.5 34.5q-43 33 -47 87.5t34 97.5q7 7 23 19.5t22 19.5l199 83l-199 90q-49 24 -68 74t4 98q25 49 75 68.5t98 -4.5q10 -3 21 -11t24 -21l102 -115q44 64 116.5 102.5t152.5 38.5h128q138 0 256 69t187 187q35 59 52 123t17 133v128q0 43 10.5 82.5 t29.5 73.5t46 62.5t61 50.5l-134 185q-34 44 -26 97.5t51 82.5q44 33 97.5 25t82.5 -51q5 -9 9.5 -18.5t9.5 -19.5l83 -250l77 250q14 52 63 77t97 6q51 -14 74.5 -62t8.5 -98z" />
<glyph unicode="&#xf120;" d="M1856 1664q0 -53 -37.5 -90.5t-90.5 -37.5h-1408q-53 0 -90.5 37.5t-37.5 90.5t37.5 90.5t90.5 37.5h205l32 154q9 43 44 72.5t77 29.5h685q44 0 81.5 -29.5t46.5 -72.5l32 -154h205q53 0 90.5 -37.5t37.5 -90.5zM1299 256l141 1152h256l-141 -1184q-9 -63 -45.5 -114.5 t-91.5 -80.5q-28 -14 -57.5 -21.5t-61.5 -7.5h-544q-97 0 -171.5 64.5t-84.5 159.5l-147 1184h256l147 -1152h544z" />
<glyph unicode="&#xf122;" d="M640 1920q0 53 37.5 90.5t90.5 37.5h512q53 0 90.5 -37.5t37.5 -90.5t-37.5 -90.5t-90.5 -37.5h-512q-53 0 -90.5 37.5t-37.5 90.5zM1216 1235q116 -53 186 -161.5t70 -241.5v-576q0 -106 -75 -181t-181 -75h-384q-106 0 -181 75t-75 181v576q0 133 70 241.5t186 161.5 v429h384v-429z" />
<glyph unicode="&#xf124;" d="M1856 1408q0 -53 -37.5 -90.5t-90.5 -37.5h-1408q-53 0 -90.5 37.5t-37.5 90.5t37.5 90.5t90.5 37.5h576v256q0 106 75 181t181 75h192q53 0 90.5 -37.5t37.5 -90.5t-37.5 -90.5t-90.5 -37.5h-192v-256h576q53 0 90.5 -37.5t37.5 -90.5zM416 1152h1216l-128 -928 q-14 -96 -87 -160t-169 -64h-448q-96 0 -169 64t-87 160z" />
<glyph unicode="&#xf125;" d="M1655 2048q52 0 102.5 -22t89.5 -61q37 -47 53 -97t11 -102l-166 -1536q-10 -99 -84.5 -164.5t-171.5 -65.5h-922q-100 0 -173 67t-83 163l-166 1536q-5 56 11 109t53 90q39 39 89.5 61t102.5 22h1254zM1421 1278q45 6 91 19.5t92 33.5l45 461h-1248l51 -461 q93 42 183.5 54t166.5 1q76 -12 151 -33.5t150 -42.5t151 -32.5t167 0.5zM554 870q37 -38 90 -38t91 38q37 37 37 90t-37 91q-38 37 -91 37t-90 -37q-38 -38 -38 -91t38 -90zM891 439q55 -55 137 -55t137 55t55 137t-55 137t-137 55t-137 -55t-55 -137t55 -137z" />
<glyph unicode="&#xf166;" d="M1152 1664v-262q161 -24 303 -103t245 -195q102 -117 161 -271t59 -321h-1792q0 165 59 318.5t162 270.5q102 117 244 197t303 104v262h-128q-53 0 -90.5 37.5t-37.5 90.5t37.5 90.5t90.5 37.5h512q53 0 90.5 -37.5t37.5 -90.5t-37.5 -90.5t-90.5 -37.5h-128zM2048 256 q0 -53 -37.5 -90.5t-90.5 -37.5h-1792q-53 0 -90.5 37.5t-37.5 90.5t37.5 90.5t90.5 37.5h1792q53 0 90.5 -37.5t37.5 -90.5z" />
<glyph unicode="&#xf169;" d="M1296 37q-133 -37 -272 -37t-271 37q-133 37 -245 103t-207 161t-161 207t-103 245q-37 132 -37 271t37 272q37 132 103 244t161 207t207 161t245 103q132 37 271 37t272 -37q132 -37 244 -103t207 -161t161 -207t103 -244q37 -133 37 -272t-37 -271q-37 -133 -103 -245 t-161 -207t-207 -161t-244 -103zM1322 1731q-142 61 -298 61t-298 -61t-245 -164t-164 -245t-61 -298t61 -298t164 -245t245 -164t298 -61t298 61t245 164t164 245t61 298t-61 298t-164 245t-245 164zM435 776q-51 118 -51 248t51 249q50 118 136 204t205 137q118 50 248 50 t249 -50q118 -51 204 -137t137 -204q50 -119 50 -249t-50 -248q-51 -119 -137 -205t-204 -136q-119 -51 -249 -51t-248 51q-119 50 -205 136t-136 205z" />
<glyph unicode="&#xf1a0;" d="M1279 1114l627 -352q91 -48 134.5 -143.5t19.5 -196.5q-12 -52 -40 -95t-67 -72q-39 -30 -87 -46.5t-101 -16.5h-1440q-107 0 -189 64t-105 173q-29 99 12.5 192t134.5 147l813 448q103 56 141 112t38 144q0 82 -55 137t-137 55t-137 -55t-55 -137q0 -53 -37.5 -90.5 t-90.5 -37.5t-90.5 37.5t-37.5 90.5q0 187 130.5 317.5t317.5 130.5t317.5 -130.5t130.5 -317.5q0 -105 -36.5 -194.5t-110.5 -163.5zM1765 448q22 0 30.5 9.5t14.5 28.5q0 20 -6.5 33t-19.5 19l-742 416l-742 -416q-18 -9 -22 -26t2 -26q0 -16 11.5 -27t33.5 -11h1440z" />
<glyph unicode="&#xf212;" d="M256 1408q0 53 37.5 90.5t90.5 37.5h512q53 0 90.5 37.5t37.5 90.5t-37.5 90.5t-90.5 37.5q-33 0 -60 -16t-49 -48q-29 -48 -79 -61t-94 16q-47 29 -61 80.5t10 98.5q53 87 142.5 136.5t190.5 49.5q158 0 271 -113t113 -271t-113 -271t-271 -113h-512q-53 0 -90.5 37.5 t-37.5 90.5zM2048 1408q0 -221 -145.5 -366.5t-366.5 -145.5h-1408q-53 0 -90.5 37.5t-37.5 90.5t37.5 90.5t90.5 37.5h1408q110 0 183 73t73 183t-73 183t-183 73q-53 0 -90.5 37.5t-37.5 90.5t37.5 90.5t90.5 37.5q221 0 366.5 -145.5t145.5 -366.5zM1616 655 q51 -51 81.5 -122t30.5 -149q0 -158 -113 -271t-271 -113q-102 0 -190.5 50t-135.5 136q-30 43 -16.5 96t60.5 76q48 29 98.5 16t74.5 -60q22 -32 49 -48t60 -16q53 0 90.5 37.5t37.5 90.5q0 52 -37.5 90t-90.5 38h-832q-53 0 -90.5 37.5t-37.5 90.5q0 52 37.5 90t90.5 38 h832q78 2 149 -27t123 -80z" />
<glyph unicode="&#xf220;" d="M640 1856q158 0 271 -113t113 -271q-158 0 -298.5 -65t-239.5 -181q-49 -59 -84 -125t-56 -141h-90q-106 0 -181 75t-75 181t75 181t181 75q0 158 113 271t271 113zM2048 576q0 -158 -113 -271t-271 -113h-1216q-134 0 -227 93t-93 227t93 227t227 93h6 q12 107 61.5 201.5t125.5 163.5q75 68 175 107.5t208 39.5q190 0 340.5 -111t203.5 -286q32 7 56 10t40 3q158 0 271 -113t113 -271z" />
<glyph unicode="&#xf306;" d="M1766 1510q-38 37 -38 90t38 91q37 37 90 37t91 -37q37 -38 37 -91t-37 -90q-38 -38 -91 -38t-90 38zM1971 1088q49 -25 68 -71.5t-4 -94.5q-24 -49 -71 -68t-95 4q-56 22 -107 33t-98 11q-96 0 -180.5 -32t-158.5 -96q-60 -50 -100 -114t-60 -142h-1037q-53 0 -90.5 38 t-37.5 90q0 130 51 248.5t137 204.5q85 86 203.5 136.5t248.5 50.5q26 0 49.5 -10t41.5 -27q17 -17 27 -41t10 -50v-384h230q62 105 151 185.5t195 128.5v640h-256q-53 0 -90.5 37.5t-37.5 90.5q0 51 38.5 89.5t89.5 38.5h256q106 0 181 -75t75 -181v-576h64q85 0 162 -16 t145 -48zM1935 113q-113 -113 -271 -113t-271 113t-113 271t113 271t271 113t271 -113t113 -271t-113 -271zM1755 475q-38 37 -91 37t-90 -37q-38 -38 -38 -91t38 -90q37 -38 90 -38t91 38q37 37 37 90t-37 91zM512 256q53 0 90.5 37.5t37.5 90.5h256q0 -158 -113 -271 t-271 -113t-271 113t-113 271h256q0 -53 37.5 -90.5t90.5 -37.5z" />
<glyph unicode="&#xf317;" d="M1487 1629q25 -52 37 -107t12 -114h-1024q0 117 49 221t137 177q43 37 93 62t105 39v77q0 24 20 44t44 20h128q24 0 44 -20t20 -44v-77q111 -28 198.5 -101t136.5 -177zM1664 256q51 0 89.5 -38.5t38.5 -89.5q0 -53 -37.5 -90.5t-90.5 -37.5h-1280q-53 0 -90.5 37.5 t-37.5 90.5t37.5 90.5t90.5 37.5h192v256h-128q-24 0 -44 20t-20 44v256q0 24 20 44t44 20h128v128h-64q-53 0 -90.5 37.5t-37.5 90.5t37.5 90.5t90.5 37.5h1024q51 0 89.5 -38.5t38.5 -89.5q0 -53 -37.5 -90.5t-90.5 -37.5h-64v-128h128q24 0 44 -20t20 -44v-256 q0 -24 -20 -44t-44 -20h-128v-256h192z" />
<glyph unicode="&#xf416;" d="M1984 1472q25 0 44.5 -18t19.5 -46v-768q0 -24 -20 -44t-44 -20h-128v-192q0 -53 -37.5 -90.5t-90.5 -37.5h-64q-53 0 -90.5 37.5t-37.5 90.5v1280q0 53 37.5 90.5t90.5 37.5h64q53 0 90.5 -37.5t37.5 -90.5v-192h128zM384 1792q53 0 90.5 -37.5t37.5 -90.5v-1280 q0 -53 -37.5 -90.5t-90.5 -37.5h-64q-53 0 -90.5 37.5t-37.5 90.5v192h-128q-28 0 -46 19.5t-18 44.5v768q0 29 17.5 46.5t46.5 17.5h128v192q0 53 37.5 90.5t90.5 37.5h64zM1408 896h-768v256h768v-256z" />
<glyph unicode="&#xf420;" d="M1536 1536h256q106 0 181 -75t75 -181v-1024q0 -106 -75 -181t-181 -75h-1536q-106 0 -181 75t-75 181v1024q0 106 75 181t181 75h256v256q0 106 75 181t181 75h512q106 0 181 -75t75 -181v-256zM1280 1792h-512v-256h512v256zM256 256h1536v576h-320v-128 q0 -53 -37.5 -90.5t-90.5 -37.5t-90.5 37.5t-37.5 90.5v128h-448v-128q0 -53 -37.5 -90.5t-90.5 -37.5t-90.5 37.5t-37.5 90.5v128h-256v-576z" />
<glyph unicode="&#xf4b1;" d="M1536 1536h256q106 0 181 -75t75 -181v-1024q0 -106 -75 -181t-181 -75h-1536q-106 0 -181 75t-75 181v1024q0 106 75 181t181 75h256v256q0 106 75 181t181 75h512q106 0 181 -75t75 -181v-256zM1280 1792h-512v-256h512v256zM256 256h1536v1024h-1536v-1024zM1408 768 q0 -53 -37.5 -90.5t-90.5 -37.5h-128v-128q0 -53 -37.5 -90.5t-90.5 -37.5t-90.5 37.5t-37.5 90.5v128h-128q-53 0 -90.5 37.5t-37.5 90.5t37.5 90.5t90.5 37.5h128v128q0 53 37.5 90.5t90.5 37.5t90.5 -37.5t37.5 -90.5v-128h128q53 0 90.5 -37.5t37.5 -90.5z" />
<glyph unicode="&#xf4b4;" d="M1338 666q56 51 121.5 76.5t140.5 25.5q158 0 271 -113t113 -271t-113 -271t-271 -113t-271 113t-113 271q0 10 3 26t3 25q-33 10 -66.5 19.5t-67.5 19.5v-90q0 -158 -113 -271t-271 -113t-271 113t-113 271t113 271t271 113h128v70q-92 11 -176.5 38t-154.5 66t-128 90 t-98 110t-61.5 127t-21.5 139t19.5 135t57.5 121q37 55 89.5 104.5t121.5 93.5l26 13l294 167q14 9 32 9t32 -9q16 -11 24 -25.5t8 -32.5v-320q0 -24 -20 -44t-44 -20h-275q-53 -38 -81 -88.5t-28 -103.5q0 -85 70 -159t189 -117q118 -44 253 -44t254 44q118 43 188 117 t70 159q0 51 -29.5 101.5t-79.5 90.5h-275q-24 0 -44 20t-20 44v320q0 19 8.5 32.5t23.5 18.5q14 10 32 10t32 -10l301 -166l19 -13q136 -78 212 -194t76 -254q0 -145 -82.5 -267.5t-227.5 -200.5q-73 -40 -155.5 -65t-174.5 -37v-102q56 -8 118.5 -25.5t131.5 -44.5z M1510 294q37 -38 90 -38t91 38q37 37 37 90t-37 91q-38 37 -91 37t-90 -37q-38 -38 -38 -91t38 -90zM704 256q53 0 90.5 37.5t37.5 90.5v128h-128q-53 0 -90.5 -37.5t-37.5 -90.5t37.5 -90.5t90.5 -37.5z" />
<glyph unicode="&#xf4b5;" d="M1536 1792h-256v-192h64q106 0 181 -75t75 -181v-1088q0 -106 -75 -181t-181 -75h-640q-106 0 -181 75t-75 181v1088q0 106 75 181t181 75h64v192h-256q-53 0 -90.5 37.5t-37.5 90.5q0 51 38.5 89.5t89.5 38.5h1024q53 0 90.5 -37.5t37.5 -90.5t-37.5 -90.5t-90.5 -37.5z " />
<glyph unicode="&#xf4b9;" d="M1498 1818l-192 -730h-455l467 806q20 35 60.5 45.5t74.5 -13.5q19 -9 31.5 -28t15.5 -39q2 -11 1.5 -21t-3.5 -20zM1792 960q24 0 44 -20t20 -44q0 -156 -65.5 -298t-176.5 -245q-112 -103 -266 -164t-324 -61t-324 61t-265 164q-112 103 -177.5 245t-65.5 298 q0 24 20 44t44 20h1536z" />
<glyph unicode="&#xf4ba;" d="M1494 1856q76 -60 132.5 -142.5t82.5 -177.5h211q0 -100 -59.5 -183.5t-151.5 -117.5q-29 -127 -108 -231t-196 -167q-59 -31 -122 -48.5t-131 -20.5v-128h320q53 0 90.5 -37.5t37.5 -90.5t-37.5 -90.5t-90.5 -37.5h-320v-83q87 -39 139.5 -120t52.5 -181h-653 q0 104 56 186t149 121v77h-192q-134 0 -227 93t-93 227t93 227t227 93h192v192h-448q-134 0 -227 93t-93 227h1306q-44 87 -129 139.5t-185 52.5h-83q-25 -29 -62 -46.5t-79 -17.5q-57 0 -130.5 24.5t-131.5 70.5t-58 97t58 97t131.5 70.5t130.5 24.5q42 0 79 -17.5 t62 -46.5h83q104 0 201 -34t173 -94zM1152 1216v-192q90 10 166.5 62t115.5 130h-282zM896 640v128h-192q-24 0 -44 -20t-20 -44t20 -44t44 -20h192z" />
<glyph unicode="&#xf4c0;" d="M1729 1920q0 -53 -37.5 -90.5t-90.5 -37.5h-1152q-53 0 -90.5 37.5t-37.5 90.5t37.5 90.5t90.5 37.5h1152q53 0 90.5 -37.5t37.5 -90.5zM1409 1184l557 -992q19 -29 19 -64t-19 -64q-15 -29 -45 -46.5t-64 -17.5h-1664q-33 0 -60 16t-49 48q-15 31 -16.5 64t16.5 64 l557 992v480h768v-480zM935 1115q-38 -38 -38 -91t38 -90q37 -38 90 -38t91 38q37 37 37 90t-37 91q-38 37 -91 37t-90 -37zM1080 439q55 -55 137 -55t137 55t55 137t-55 137t-137 55t-137 -55t-55 -137t55 -137zM679 294q37 -38 90 -38t91 38q37 37 37 90t-37 91 q-38 37 -91 37t-90 -37q-38 -38 -38 -91t38 -90z" />
<glyph unicode="&#xf4c2;" d="M1528 1133q4 -26 6 -53.5t2 -55.5q0 -90 -23.5 -172t-67.5 -152q-45 -70 -94.5 -125.5t-115.5 -113.5q54 -41 93.5 -75.5t81.5 -79.5q41 -46 67 -90.5t43 -99.5q8 -28 12 -57t4 -59h-256q0 23 -8.5 47t-20.5 45q-13 20 -37 46t-43 45q-20 19 -55.5 47.5t-58.5 46.5 q-11 9 -27.5 21.5t-37.5 27.5q-1 2 -3.5 4t-5.5 4q-61 46 -93.5 71.5t-90.5 75.5t-91 87t-75 94q-43 56 -65.5 108t-38.5 119q-9 33 -13 67t-4 68q0 136 56 254.5t168 219.5l211 -148q-53 -44 -91.5 -93.5t-61.5 -104.5h467q-11 31 -27.5 60.5t-33.5 53.5q-17 23 -44.5 50 t-47.5 45q-21 17 -57 43.5t-57 40.5q-11 7 -26.5 17.5t-36.5 24.5q-5 4 -9 6.5t-7 4.5t-7 5t-10 6q-41 28 -62 43t-59 44q-39 29 -60.5 48.5t-53.5 51.5q-32 31 -50.5 57t-39.5 62q-22 35 -33.5 69.5t-19.5 76.5q-4 21 -6 43t-2 44h256q0 -47 16.5 -86.5t53.5 -77.5 q36 -38 77.5 -69t108.5 -74q61 44 101 77t79 73q38 40 57 79t19 78h256q0 -60 -16 -115.5t-41 -99.5q-25 -45 -65.5 -91.5t-79.5 -81.5q-19 -18 -42 -37.5t-50 -41.5q35 -28 64.5 -55.5t60.5 -61.5t55.5 -69t46.5 -77q21 -43 35.5 -87.5t23.5 -97.5zM787 896 q31 -75 89 -138.5t148 -136.5q86 70 145 137t85 138h-467zM736 397l205 -160q-86 -69 -129.5 -128.5t-43.5 -108.5h-256q0 116 58.5 211t165.5 186z" />
<glyph unicode="&#xf4d2;" d="M1082 2016l512 -896q0 -1 12.5 -27.5t17.5 -38.5t18.5 -43.5t20.5 -52.5q7 -22 19 -56t19 -63q6 -29 13.5 -63t10.5 -68q2 -18 2.5 -34.5t0.5 -33.5q0 -110 -41 -211t-111 -178t-160 -134t-191 -87q-50 -15 -100.5 -22.5t-100.5 -7.5q-139 0 -269 52.5t-225 139.5 t-152.5 205t-57.5 243q0 59 9 118t19 99q9 39 32.5 97t34.5 82q6 11 15.5 32.5t23.5 51.5l512 896q7 16 23.5 25t34.5 9t34.5 -9t23.5 -25zM1152 576h256v256h-256v256h-256v-256h-256v-256h256v-256h256v256z" />
<glyph unicode="&#xf4d3;" d="M1792 1600q0 -19 -3 -44.5t-10 -57.5q85 -38 146.5 -103.5t92.5 -143.5q15 -40 22.5 -80.5t7.5 -82.5q0 -60 -9 -110t-29 -95q-21 -45 -39 -75.5t-51 -77.5v-218q0 -138 -69 -256t-187 -187q-59 -34 -123 -51.5t-133 -17.5q-114 0 -212.5 45t-171.5 128 q-73 -83 -171.5 -128t-212.5 -45q-138 0 -256 69t-187 187q-34 59 -51.5 123t-17.5 133v218q-25 34 -41 58t-34 59t-28.5 68t-17.5 78q-3 23 -5 46.5t-2 48.5q0 129 71 241t198 169q-6 32 -9.5 57.5t-3.5 44.5q0 187 130.5 317.5t317.5 130.5q93 0 173 -33.5t147 -100.5 q67 67 147 100.5t173 33.5q187 0 317.5 -130.5t130.5 -317.5zM1536 896h192q37 58 50.5 95.5t13.5 96.5q0 29 -11 59t-32 60q-22 29 -62.5 48t-92.5 19h-186q-53 0 -90.5 37.5t-37.5 90.5q0 52 37.5 90t90.5 38h115q7 19 10 36.5t3 33.5q0 82 -55 137t-137 55t-137 -55 t-55 -137v-1088q0 -106 75 -181t181 -75t181 75t75 181v128h-128v-128q0 -53 -37.5 -90.5t-90.5 -37.5t-90.5 37.5t-37.5 90.5v512q0 53 37.5 90.5t90.5 37.5t90.5 -37.5t37.5 -90.5v-128zM640 256q106 0 181 75t75 181v1088q0 82 -55 137t-137 55t-137 -55t-55 -137 q0 -16 3.5 -33.5t9.5 -36.5h115q53 0 90.5 -38t37.5 -90q0 -53 -37.5 -90.5t-90.5 -37.5h-186q-52 0 -92 -18t-62 -46q-22 -29 -33 -60t-11 -62q0 -59 13.5 -96.5t50.5 -95.5h192v128q0 53 37.5 90.5t90.5 37.5t90.5 -37.5t37.5 -90.5v-512q0 -53 -37.5 -90.5t-90.5 -37.5 t-90.5 37.5t-37.5 90.5v128h-128v-128q0 -106 75 -181t181 -75z" />
<glyph unicode="&#xf500;" d="M1771 621q-22 -22 -47.5 -33.5t-54.5 -11.5q-25 0 -47.5 9.5t-42.5 28.5l-550 551l-544 -544q-35 -35 -81 -41t-85 22q-48 33 -53.5 93.5t33.5 98.5l551 550q77 77 182.5 77t182.5 -77l544 -544q38 -39 42 -90t-30 -89z" />
<glyph unicode="&#xf501;" d="M286 1427q22 23 47.5 34t54.5 11q26 0 48.5 -9.5t41.5 -28.5l550 -551l544 544q35 35 81 41t85 -22q48 -33 53.5 -93.5t-33.5 -98.5l-551 -550q-77 -77 -182.5 -77t-182.5 77l-544 544q-38 39 -42 90t30 89z" />
<glyph unicode="&#xf600;" d="M2173 794q9 -14 7.5 -30t-14.5 -34l-333 -391q-22 -22 -46 -33.5t-50 -11.5q-30 0 -54 11.5t-42 33.5l-332 391q-9 3 -15.5 10t-8.5 14q-1 4 -1.5 7.5t-0.5 6.5q0 10 1.5 16.5t4.5 9.5q13 19 27.5 28.5t30.5 9.5h256v704h-864l-218 256h1210q53 0 90.5 -37.5t37.5 -90.5 v-832h256q20 0 36.5 -10t21.5 -28zM1315 512l218 -256h-1210q-53 0 -90.5 37.5t-37.5 90.5v832h-256q-13 0 -25 4t-21 13q-5 5 -8 10t-4 11q-9 18 -7 35.5t14 35.5l333 390q28 23 53.5 34t48.5 11q30 0 54 -11t42 -34l333 -390q7 -6 10 -17.5t3 -27.5q0 -9 -1.5 -15.5 t-5.5 -10.5q0 -18 -15 -28t-36 -10h-256v-704h864z" />
<glyph unicode="&#x1f304;" d="M2048 448q0 -106 -75 -181t-181 -75h-1536q-106 0 -181 75t-75 181v1152q0 106 75 181t181 75h1536q106 0 181 -75t75 -181v-1152zM1792 1600h-1536v-1152h1536v1152zM440 1144q-56 56 -56 136t56 136t136 56t136 -56t56 -136t-56 -136t-136 -56t-136 56zM1248 1056 l397 -480h-1248l205 282q41 51 102 51t102 -51l52 -77l185 269q34 48 100 50.5t105 -44.5z" />
<glyph unicode="&#x1f30e;" d="M753 2011q132 37 271 37t272 -37q132 -37 244 -103t207 -161t161 -207t103 -244q37 -133 37 -272t-37 -271q-37 -133 -103 -245t-161 -207t-207 -161t-244 -103q-133 -37 -272 -37t-271 37q-133 37 -245 103t-207 161t-161 207t-103 245q-37 132 -37 271t37 272 q37 132 103 244t161 207t207 161t245 103zM1632 1280h32q24 0 44 20t20 44t-20 44t-44 20h-128q-53 0 -90.5 37.5t-37.5 90.5q0 34 17.5 64t46.5 45q-98 74 -210 110.5t-238 36.5q32 -42 48 -90t16 -102q0 -134 -93 -227t-227 -93q-38 0 -67 -29t-29 -67t29 -67t67 -29 q24 0 44 -20t20 -44t-20 -44t-44 -20q-161 0 -289 97.5t-172 248.5q-25 -72 -38 -142.5t-13 -139.5q0 -156 61 -298t164 -245t245 -164t298 -61q177 0 331.5 76.5t250.5 211.5q7 6 13.5 19t18.5 51q7 26 10 45.5t3 31.5q-3 7 -3 19.5t-3 19.5q0 6 -3.5 19t-3.5 19 q-6 28 -25 53.5t-51 48.5l-32 20l-20 12q-67 49 -82.5 132.5t31.5 155.5q28 42 75.5 66t97.5 24zM1344 934q0 -37 -12.5 -73t-32.5 -61l-275 -371q-14 -24 -43 -28t-53 15q-13 9 -19.5 21.5t-6.5 29.5v461q0 92 63.5 158t154.5 66q92 0 158 -63.5t66 -154.5z" />
<glyph unicode="&#x1f310;" d="M419 1017q-41 95 -41 199t41 199q40 95 108.5 163.5t163.5 109.5q94 40 198.5 40t199.5 -40q94 -41 163 -109.5t110 -163.5q40 -95 40 -199t-40 -199q-41 -95 -110 -163.5t-163 -108.5q-95 -41 -199.5 -41t-198.5 41q-95 40 -163.5 108.5t-108.5 163.5zM1855 1150 q-12 -166 -83.5 -326.5t-197.5 -285.5q-112 -113 -254.5 -181.5t-295.5 -87.5v-269h-256v269q-103 13 -199.5 46.5t-185.5 90.5q-44 28 -85.5 61t-79.5 71q-39 38 -39 89t39 90q38 38 89 38t90 -38q100 -100 229 -152.5t270 -52.5t270 52.5t229 152.5q123 123 174.5 286.5 t22.5 331.5q-14 84 -47.5 160t-85.5 143q-58 77 -52.5 171.5t71.5 161.5l96 96q39 39 90 39t90 -38q38 -39 38 -90.5t-38 -89.5l-96 -96q108 -139 158 -307.5t39 -334.5z" />
<glyph unicode="&#x1f319;" d="M1446 89q-100 -44 -205.5 -66.5t-216.5 -22.5q-139 0 -271.5 37t-244.5 103t-207 161t-161 207t-103 244.5t-37 271.5q0 222 89 421.5t253 345.5q81 73 175 126t200 86q21 5 38.5 0.5t31.5 -19.5q14 -14 16 -31.5t-9 -38.5q-45 -95 -67.5 -189.5t-22.5 -188.5 q0 -170 65.5 -324t177.5 -265q111 -112 265 -177.5t324 -65.5q94 0 188.5 22.5t189.5 67.5q17 9 34.5 7t35.5 -14q15 -14 19.5 -31.5t-0.5 -38.5q-66 -212 -212 -375.5t-345 -252.5z" />
<glyph unicode="&#x1f321;" d="M1408 1664v-659q89 -79 140.5 -191t51.5 -238q0 -118 -45.5 -224.5t-122.5 -183.5t-183.5 -122.5t-224.5 -45.5t-224.5 45.5t-183.5 122.5t-122.5 183.5t-45.5 224.5q0 126 51.5 238t140.5 191v659q0 158 113 271t271 113t271 -113t113 -271zM1024 256q134 0 227 93 t93 227q0 66 -24 124t-67 102q-21 21 -46.5 38.5t-54.5 29.5v794q0 53 -37.5 90.5t-90.5 37.5t-90.5 -37.5t-37.5 -90.5v-794q-57 -25 -100.5 -69.5t-67.5 -102.5q-12 -30 -18 -60t-6 -62q0 -134 93 -227t227 -93z" />
<glyph unicode="&#x1f327;" d="M1984 1280q0 -158 -113 -271t-271 -113h-1216q-134 0 -227 93t-93 227t93 227t227 93h6q10 85 43.5 163.5t87.5 141.5q53 63 120.5 109.5t149.5 72.5q41 12 83.5 18.5t85.5 6.5q190 0 340.5 -111t203.5 -286q32 7 56 10t40 3q158 0 271 -113t113 -271zM1280 416l90 352 h262l-102 -416q-10 -43 -44 -69.5t-78 -26.5q-9 0 -17 1.5t-15 4.5q-52 14 -79 59.5t-17 94.5zM704 160l154 608h262l-166 -672q-7 -28 -25 -50t-43 -34q-12 -6 -25.5 -9t-28.5 -3q-9 0 -17 1.5t-15 4.5q-52 14 -79 59.5t-17 94.5zM256 416l90 352h262l-102 -416 q-10 -43 -44 -69.5t-78 -26.5q-9 0 -17 1.5t-15 4.5q-52 14 -79 59.5t-17 94.5z" />
<glyph unicode="&#x1f328;" d="M1984 1280q0 -158 -113 -271t-271 -113h-288q0 120 -84 204t-204 84t-204 -84t-84 -204h-352q-134 0 -227 93t-93 227t93 227t227 93h6q10 85 43.5 163.5t87.5 141.5q53 63 120.5 109.5t149.5 72.5q41 12 83.5 18.5t85.5 6.5q190 0 340.5 -111t203.5 -286q32 7 56 10 t40 3q158 0 271 -113t113 -271zM911 783q-47 47 -47 113t47 113t113 47t113 -47t47 -113t-47 -113t-113 -47t-113 47zM1391 431q-47 47 -47 113t47 113t113 47t113 -47t47 -113t-47 -113t-113 -47t-113 47zM431 431q-47 47 -47 113t47 113t113 47t113 -47t47 -113t-47 -113 t-113 -47t-113 47zM911 79q-47 47 -47 113t47 113t113 47t113 -47t47 -113t-47 -113t-113 -47t-113 47z" />
<glyph unicode="&#x1f32a;" d="M2042 1920q0 -53 -38 -90.5t-90 -37.5h-1786q-53 0 -90.5 37.5t-37.5 90.5t37.5 90.5t90.5 37.5h1786q52 0 90 -37.5t38 -90.5zM1933 1536q0 -53 -37.5 -90.5t-90.5 -37.5h-1434q-53 0 -90.5 37.5t-37.5 90.5t37.5 90.5t90.5 37.5h1434q53 0 90.5 -37.5t37.5 -90.5z M1747 1152q0 -53 -37.5 -90.5t-90.5 -37.5h-1094q-35 0 -64.5 17t-46.5 47q-8 14 -12.5 30.5t-4.5 33.5q0 53 37.5 90.5t90.5 37.5h1094q53 0 90.5 -37.5t37.5 -90.5zM1498 768q0 -53 -38 -90.5t-90 -37.5h-743q-53 0 -90.5 37.5t-37.5 90.5t37.5 90.5t90.5 37.5h743 q52 0 90 -37.5t38 -90.5zM579 -10l-3 -3q-9 0 -20.5 3t-24.5 10q-9 14 -14 27t-5 24v397q0 29 17.5 46.5t46.5 17.5h621q19 0 33.5 -9.5t23.5 -28.5q9 -16 6.5 -35.5t-12.5 -35.5l-83 -102q-91 -115 -234 -198.5t-278 -102.5l-71 -13q0 2 -0.5 3t-2.5 0z" />
<glyph unicode="&#x1f331;" d="M1152 141v-13q0 -53 -37.5 -90.5t-90.5 -37.5t-90.5 37.5t-37.5 90.5v13l64 1843q0 24 20 44t44 20t44 -20t20 -44zM1660 1502q-43 -15 -90 -22.5t-98 -7.5h-128q-29 0 -46.5 17.5t-17.5 46.5v64q0 206 138.5 327t373.5 121h128q29 0 46.5 -17.5t17.5 -46.5v-64 q0 -56 -19 -115.5t-60 -119.5q-42 -60 -100 -107t-145 -76zM768 1536q0 -29 -17.5 -46.5t-46.5 -17.5h-128q-101 0 -188 29.5t-145 76.5t-99.5 107t-60.5 120q-9 29 -14 58t-5 57v64q0 29 17.5 46.5t46.5 17.5h128q235 0 373.5 -121t138.5 -327v-64zM1660 862 q-43 -15 -90 -22.5t-98 -7.5h-128q-29 0 -46.5 17.5t-17.5 46.5v64q0 206 138.5 327t373.5 121h128q29 0 46.5 -17.5t17.5 -46.5v-64q0 -56 -19 -115.5t-60 -119.5q-42 -60 -100 -107t-145 -76zM768 896q0 -29 -17.5 -46.5t-46.5 -17.5h-128q-101 0 -188 29.5t-145 76.5 t-99.5 107t-60.5 120q-9 29 -14 58t-5 57v64q0 29 17.5 46.5t46.5 17.5h128q235 0 373.5 -121t138.5 -327v-64zM1660 222q-43 -15 -90 -22.5t-98 -7.5h-128q-29 0 -46.5 17.5t-17.5 46.5v64q0 206 138.5 327t373.5 121h128q29 0 46.5 -17.5t17.5 -46.5v-64q0 -56 -19 -115.5 t-60 -119.5q-42 -60 -100 -107t-145 -76zM768 256q0 -29 -17.5 -46.5t-46.5 -17.5h-128q-101 0 -188 29.5t-145 76.5t-99.5 107t-60.5 120q-9 29 -14 58t-5 57v64q0 29 17.5 46.5t46.5 17.5h128q235 0 373.5 -121t138.5 -327v-64z" />
<glyph unicode="&#x1f332;" d="M1852 486q7 -21 7 -38.5t-7 -31.5q-11 -16 -25.5 -24t-32.5 -8h-640v-256q0 -53 -37.5 -90.5t-90.5 -37.5t-90.5 37.5t-37.5 90.5v256h-640q-18 0 -32.5 8t-25.5 24q-8 16 -6 35.5t13 34.5l307 410h-192q-20 0 -36.5 10t-21.5 28q-9 15 -5 35.5t18 35.5l352 403h-115 q-20 0 -36.5 10t-21.5 28q-9 20 -6 37.5t19 33.5l512 512q19 19 45 19t45 -19l505 -506q13 -12 19.5 -25t6.5 -26q0 -24 -20 -44t-44 -20h-115l352 -397q13 -12 19 -25t6 -26q0 -24 -20 -44t-44 -20h-192z" />
<glyph unicode="&#x1f333;" d="M1920 768q0 -134 -93 -227t-227 -93h-448v-320q0 -53 -37.5 -90.5t-90.5 -37.5t-90.5 37.5t-37.5 90.5v320h-448q-134 0 -227 93t-93 227t93 227t227 93q-32 43 -48 91t-16 101q0 134 93 227t227 93h26q-13 39 -19.5 71t-6.5 57q0 134 93 227t227 93t227 -93t93 -227 q0 -25 -6.5 -57t-19.5 -71h26q134 0 227 -93t93 -227q0 -53 -16 -101t-48 -91q134 0 227 -93t93 -227z" />
<glyph unicode="&#x1f342;" d="M1764 1181q14 -55 21 -110.5t7 -110.5q0 -95 -31.5 -178.5t-85.5 -146.5q-55 -63 -130.5 -112t-162.5 -80q-43 -15 -89.5 -26.5t-95.5 -19.5l-13 275l307 256q11 11 13 22.5t-6 22.5q-11 16 -24 19.5t-28 -6.5l-275 -148l-19 506q0 24 -20 44t-44 20t-44 -20t-20 -44 v-1216q0 -53 -37.5 -90.5t-90.5 -37.5t-90.5 37.5t-37.5 90.5v288q-108 24 -199.5 71t-161.5 114q-71 67 -111 159.5t-40 199.5q0 111 28.5 221t73.5 200q44 90 108.5 179t124.5 154t133 130.5t122 103.5q24 18 49.5 37t51.5 37q34 26 77 26t77 -26q53 -37 101.5 -74.5 t121.5 -102.5q73 -66 133 -131t125 -154q64 -89 108.5 -179t73.5 -200z" />
<glyph unicode="&#x1f354;" d="M1633 1736q105 -114 164 -265t59 -319h-1664q0 168 59 319t165 265q105 114 263 181t345 67t345 -67t264 -181zM957 1629q29 -29 67 -29t67 29t29 67t-29 67t-67 29t-67 -29t-29 -67t29 -67zM1376 1504q0 -38 29 -67t67 -29q42 0 69 28t27 68q0 38 -29 67t-67 29 q-40 0 -68 -27t-28 -69zM480 1504q0 -38 29 -67t67 -29q42 0 69 28t27 68q0 38 -29 67t-67 29q-40 0 -68 -27t-28 -69zM2048 896q0 -53 -37.5 -90.5t-90.5 -37.5h-1792q-53 0 -90.5 37.5t-37.5 90.5t37.5 90.5t90.5 37.5h1792q53 0 90.5 -37.5t37.5 -90.5zM192 640h1664 v-256q0 -106 -75 -181t-181 -75h-1152q-106 0 -181 75t-75 181v256z" />
<glyph unicode="&#x1f35a;" d="M1541 1600q106 0 181 -75t75 -181q72 0 132 -37.5t92 -99.5q16 -32 22.5 -64.5t3.5 -67.5q-5 -100 -29 -186.5t-67 -158.5q-58 -97 -142.5 -170.5t-203.5 -130.5v-115q0 -101 -74.5 -175.5t-175.5 -74.5h-652q-102 0 -176 72.5t-74 177.5v115q-122 59 -208.5 134 t-137.5 167q-38 72 -62 158.5t-34 186.5q-6 69 26 131.5t92 100.5q30 18 63 27.5t69 9.5q0 158 113 271t271 113q16 0 43.5 -3t65.5 -10q49 93 139.5 149t199.5 56q143 0 250.5 -93.5t127.5 -232.5q13 3 30.5 4.5t39.5 1.5zM1349 602l83 32q178 67 258.5 169.5t100.5 284.5 h-1524q20 -182 100.5 -284.5t258.5 -169.5l83 -32v-282h640v282z" />
<glyph unicode="&#x1f35e;" d="M1728 384q0 -106 -75 -181t-181 -75h-896q-106 0 -181 75t-75 181v659q-90 62 -141 160t-51 205q0 158 117.5 290t324.5 209q206 77 454 77t455 -77q206 -77 323.5 -209t117.5 -290q0 -111 -50.5 -206.5t-141.5 -158.5v-659zM562 1626q-83 -46 -130.5 -103t-47.5 -115 q0 -52 26 -97t70 -69q48 -32 72 -73.5t24 -93.5v-691h896v691q0 52 24 93.5t72 73.5q44 24 70 69t26 97q0 58 -47.5 115t-129.5 103q-83 45 -204.5 73.5t-258.5 28.5t-258.5 -28.5t-203.5 -73.5z" />
<glyph unicode="&#x1f374;" d="M1824 1990l32 -518q0 -82 -33.5 -155t-90.5 -125q-29 -27 -62 -46t-70 -32v-986q0 -53 -37.5 -90.5t-90.5 -37.5t-90.5 37.5t-37.5 90.5v986q-55 19 -102 54t-81 82q-34 46 -53.5 103.5t-19.5 118.5l32 518q0 25 21.5 44t48.5 14q24 0 41 -17t17 -41l32 -518h96l32 518 q0 16 9.5 30.5t26.5 22.5q8 4 16.5 5.5t17.5 -0.5q24 0 41 -17t17 -41l32 -518h96l32 518q0 16 9.5 30.5t26.5 22.5q8 4 16.5 5.5t17.5 -0.5q24 0 41 -17t17 -41zM885 1766q36 -76 55.5 -153.5t19.5 -140.5q0 -82 -33.5 -155t-90.5 -125q-29 -27 -62 -46t-70 -32v-986 q0 -53 -37.5 -90.5t-90.5 -37.5t-90.5 37.5t-37.5 90.5v986q-112 39 -184 137t-72 221q0 63 19.5 140.5t55.5 153.5t82 139.5t106 103.5q60 39 121 39t121 -39q60 -40 106 -103.5t82 -139.5z" />
<glyph unicode="&#x1f377;" d="M1562 1894q93 -206 161.5 -437.5t68.5 -368.5q0 -81 -24 -154.5t-68 -132.5t-103.5 -108t-130.5 -84q-72 -35 -151 -58t-163 -33v-262h128q58 0 98 -45t30 -102q-10 -48 -48 -78.5t-86 -30.5h-506q-58 0 -98 45t-30 102q10 48 48 78.5t86 30.5h122v262 q-102 14 -194.5 44.5t-174.5 80.5q-82 49 -142 113t-94 150q-18 42 -26.5 88t-8.5 94q0 135 67 364.5t157 441.5q34 72 97 113t140 41h608q77 0 140 -41t97 -113zM723 1792q-42 -85 -80.5 -187.5t-72.5 -222.5q72 43 144 50.5t134 -11.5q61 -19 122.5 -49.5t123.5 -60.5 t124.5 -47t136.5 -5q37 5 74.5 20t74.5 39q-43 144 -86.5 262.5t-86.5 211.5h-608z" />
<glyph unicode="&#x1f37a;" d="M1248 1760q91 0 157.5 -66.5t66.5 -157.5h-1280q0 134 93 227t227 93q16 0 37 -3t46 -10q26 61 70.5 107t104.5 72q30 13 61.5 19.5t64.5 6.5q125 0 217.5 -84t102.5 -204h32zM1472 1280h128q106 0 181 -75t75 -181v-384q0 -106 -75 -181t-181 -75h-128v-128 q0 -106 -75 -181t-181 -75h-768q-106 0 -181 75t-75 181v1152h256v-1152h768v1152h256v-128zM832 1280q53 0 90.5 -37.5t37.5 -90.5v-640q0 -53 -37.5 -90.5t-90.5 -37.5t-90.5 37.5t-37.5 90.5v640q0 53 37.5 90.5t90.5 37.5zM1472 640h128v384h-128v-384z" />
<glyph unicode="&#x1f380;" d="M1658 1517q38 -34 38 -87.5t-38 -91.5l-122 -122v-192q0 -53 -37.5 -90.5t-90.5 -37.5h-192l-102 -102q-39 -39 -90 -39t-90 39l-102 102h-192q-53 0 -90.5 37.5t-37.5 90.5v192l-122 122q-38 38 -38 89t38 90l122 121v154q0 53 37.5 90.5t90.5 37.5h154l140 141 q39 38 90 38t90 -38l140 -141h154q53 0 90.5 -37.5t37.5 -90.5v-154zM1216 768h256v-640q0 -39 -18.5 -70t-51.5 -45q-19 -6 -33.5 -9.5t-24.5 -3.5q-19 0 -38 6.5t-39 19.5l-243 192l-243 -192q-29 -25 -65 -28.5t-70 15.5q-33 14 -51.5 45t-18.5 70v640h256v-371l192 153 l192 -153v371z" />
<glyph unicode="&#x1f381;" d="M1485 1280h435q53 0 90.5 -37.5t37.5 -90.5t-37.5 -90.5t-90.5 -37.5h-1792q-53 0 -90.5 37.5t-37.5 90.5t37.5 90.5t90.5 37.5h435q-99 62 -166 135.5t-103 158.5q-43 101 -25.5 200t89.5 172q43 47 101.5 71.5t122.5 24.5q119 0 237 -79.5t205 -215.5q87 136 205 215.5 t237 79.5q64 0 120 -24t104 -72q72 -73 89.5 -172t-25.5 -200q-23 -54 -61.5 -107t-91.5 -101q-26 -24 -55 -45.5t-61 -40.5zM522 1704q1 -8 3.5 -16t5.5 -18q15 -34 45 -70t73 -70q42 -35 101.5 -64t126.5 -45q-16 82 -52 153.5t-79 116.5q-43 44 -86 69.5t-78 25.5 q-12 0 -23 -5t-21 -15q-1 -1 -6 -8t-7 -13t-4 -16.5t1 -24.5zM1510 1766q-9 10 -20 15t-24 5q-35 0 -78.5 -25.5t-86.5 -69.5q-43 -45 -80.5 -116.5t-55.5 -153.5q130 31 225 103.5t127 145.5q7 19 9.5 33.5t0.5 25.5q-2 10 -4 16t-7 13q-2 4 -3.5 6t-2.5 2zM1152 896h704 v-640q0 -106 -75 -181t-181 -75h-448v896zM192 256v640h704v-896h-448q-106 0 -181 75t-75 181z" />
<glyph unicode="&#x1f393;" d="M2016 1658q15 -5 26.5 -22t11.5 -36q0 -20 -10 -36.5t-28 -21.5l-934 -384q-4 0 -13.5 -3t-12.5 -3q-6 0 -12.5 1.5t-13.5 4.5l-646 250v-768l128 -128v-256q0 -53 -37.5 -90.5t-90.5 -37.5h-256q-53 0 -90.5 37.5t-37.5 90.5v256l128 128v864l-90 38q-18 5 -28 21.5 t-10 36.5q0 19 12 36t26 22l992 384q11 5 24 5t28 -5zM1408 896v269l256 102v-371q0 -36 -11.5 -75.5t-36.5 -83.5t-70 -83.5t-106 -71.5t-152 -51t-200 -19t-200 19t-152 51t-106 71.5t-70 83.5t-36.5 83.5t-11.5 75.5v320l256 -102v-218q3 -16 18 -34.5t48 -40.5 q32 -23 98.5 -38t155.5 -15q90 0 156 14t99 36q32 22 47 41t18 37z" />
<glyph unicode="&#x1f396;" d="M704 2048h640q106 0 181 -75t75 -181v-512q0 -53 -23.5 -103.5t-66.5 -88.5l-313 -224q80 -35 142 -97t98 -145q17 -41 26 -84.5t9 -89.5q0 -92 -36 -176t-97 -144q-61 -61 -145.5 -95.5t-175.5 -32.5q-117 3 -217.5 63.5t-160.5 161.5q-31 50 -46.5 104.5t-17.5 112.5 q0 141 76 254.5t199 167.5l-313 224q-43 33 -66.5 83.5t-23.5 108.5v512q0 106 75 181t181 75zM1024 1050l320 230v512h-192v-448h-256v448h-192v-512zM1146 397l166 115h-205l-83 256l-83 -256h-205l166 -115l-70 -224l192 134l192 -134z" />
<glyph unicode="&#x1f397;" d="M1754 39q-39 -39 -90 -39t-90 38q-141 142 -278.5 300.5t-271.5 333.5q-134 -175 -271.5 -333.5t-278.5 -300.5q-39 -38 -90 -38t-89 39q-39 38 -39 89t38 90q153 152 303.5 327t272.5 345q-147 218 -220.5 395.5t-73.5 314.5q0 197 125.5 322.5t322.5 125.5 t322.5 -125.5t125.5 -322.5q0 -117 -57.5 -269t-172.5 -339q-37 54 -75.5 115t-78.5 128q64 118 96 209t32 156q0 91 -50.5 141.5t-141.5 50.5t-141.5 -50.5t-50.5 -141.5q0 -109 80.5 -279t213.5 -358q132 -189 294.5 -381.5t333.5 -363.5q38 -39 38 -90t-38 -89z" />
<glyph unicode="&#x1f3a4;" d="M1024 704q-158 0 -271 113t-113 271v576q0 158 113 271t271 113t271 -113t113 -271v-576q0 -158 -113 -271t-271 -113zM1664 1216q53 0 90.5 -37.5t37.5 -90.5q0 -139 -49 -268.5t-134 -228.5q-85 -100 -203.5 -168.5t-253.5 -89.5v-333h-256v333q-135 21 -253.5 89.5 t-203.5 168.5q-85 99 -134 228.5t-49 268.5q0 53 37.5 90.5t90.5 37.5t90.5 -37.5t37.5 -90.5q0 -138 69 -256t187 -187t256 -69t256 69t187 187t69 256q0 53 37.5 90.5t90.5 37.5z" />
<glyph unicode="&#x1f3a7;" d="M1920 384q-53 0 -90.5 37.5t-37.5 90.5v512q0 156 -61 298t-164 245t-245 164t-298 61t-298 -61t-245 -164t-164 -245t-61 -298v-512q0 -53 -37.5 -90.5t-90.5 -37.5t-90.5 37.5t-37.5 90.5v512q0 139 37 271.5t103 244.5t161 207t207 161t244.5 103t271.5 37t271.5 -37 t244.5 -103t207 -161t161 -207t103 -244.5t37 -271.5v-512q0 -53 -37.5 -90.5t-90.5 -37.5zM1664 704v-576q0 -53 -37.5 -90.5t-90.5 -37.5h-192q-53 0 -90.5 37.5t-37.5 90.5v576q0 53 37.5 90.5t90.5 37.5h192q53 0 90.5 -37.5t37.5 -90.5zM832 704v-576 q0 -53 -37.5 -90.5t-90.5 -37.5h-192q-53 0 -90.5 37.5t-37.5 90.5v576q0 53 37.5 90.5t90.5 37.5h192q53 0 90.5 -37.5t37.5 -90.5z" />
<glyph unicode="&#x1f3a8;" d="M2007 538q-115 -247 -358 -392.5t-544 -145.5q-228 0 -431 84t-353 240q-76 77 -132.5 167.5t-94.5 193.5q-96 244 -77.5 507t147.5 478q92 155 222 250.5t277 114.5q39 7 68 10t48 3q79 0 152 -18.5t131 -51.5t107.5 -77.5t86.5 -97.5q36 -54 61 -111.5t38 -117.5 q15 -49 34 -83.5t52 -65.5q32 -32 81.5 -54.5t120.5 -39.5q77 -20 141 -53.5t107 -73.5q42 -41 70 -80t46 -81q40 -85 49.5 -183t-4.5 -178q-7 -40 -18 -76t-27 -68zM879 1779q-24 6 -48.5 9.5t-51.5 3.5q-26 0 -45 -1.5t-32 -4.5q-90 -15 -170 -78t-144 -166 q-96 -163 -109.5 -369.5t58.5 -398.5q34 -93 86 -171t115 -134q62 -56 132 -97.5t145 -66.5t147 -37t143 -12q226 0 409 107t269 290q5 10 9 21.5t7 26.5q3 14 5.5 29.5t4.5 32.5q1 17 1 34.5t-1 36.5q-2 18 -5 36t-8 36q-2 9 -5.5 18t-7.5 17q-24 55 -72 91.5t-120 55.5 q-197 43 -312 144t-168 278v7q-1 2 -8 23t-17 43q-11 22 -28 52.5t-42 56.5q-26 26 -58.5 49.5t-78.5 37.5zM649 1144q-56 56 -56 136t56 136t136 56t136 -56t56 -136t-56 -136t-136 -56t-136 56z" />
<glyph unicode="&#x1f3c6;" d="M1658 1920q61 0 111 -24t88 -72q38 -43 51.5 -97.5t-0.5 -107.5q-38 -199 -159 -360.5t-296 -253.5q-39 -102 -116.5 -177.5t-177.5 -104.5v-83h128q53 0 90.5 -37.5t37.5 -90.5t-37.5 -90.5t-90.5 -37.5h-512q-53 0 -90.5 37.5t-37.5 90.5t37.5 90.5t90.5 37.5h128v83 q-51 17 -96.5 44.5t-83.5 63.5q-39 35 -68.5 79.5t-45.5 94.5q-175 92 -296 253.5t-159 360.5q-14 53 -0.5 107.5t51.5 97.5q39 48 88.5 72t110.5 24h179v64q0 25 18 44.5t46 19.5h768q28 0 46 -19.5t18 -44.5v-64h179zM1479 1664v-326q67 62 113.5 146t65.5 180h-179z M404 1664q19 -96 65.5 -180t113.5 -146v326h-179zM1543 128q0 -53 -37.5 -90.5t-90.5 -37.5h-768q-53 0 -90.5 37.5t-37.5 90.5t37.5 90.5t90.5 37.5h768q53 0 90.5 -37.5t37.5 -90.5z" />
<glyph unicode="&#x1f3db;" d="M1792 1216q0 -53 -37.5 -90.5t-90.5 -37.5h-1280q-53 0 -90.5 37.5t-37.5 90.5t37.5 90.5t90.5 37.5h192v64q0 152 90 271t230 158v147q0 53 37.5 90.5t90.5 37.5t90.5 -37.5t37.5 -90.5v-147q142 -44 231 -161t89 -268v-64h192q53 0 90.5 -37.5t37.5 -90.5zM1920 256h64 q53 0 90.5 -37.5t37.5 -90.5t-37.5 -90.5t-90.5 -37.5h-1920q-53 0 -90.5 37.5t-37.5 90.5t37.5 90.5t90.5 37.5h64v448h-64q-53 0 -90.5 37.5t-37.5 90.5t37.5 90.5t90.5 37.5h1920q53 0 90.5 -37.5t37.5 -90.5t-37.5 -90.5t-90.5 -37.5h-64v-448zM1408 576v-320h256v320 q0 53 -37.5 90.5t-90.5 37.5t-90.5 -37.5t-37.5 -90.5zM896 256h256v320q0 53 -37.5 90.5t-90.5 37.5t-90.5 -37.5t-37.5 -90.5v-320zM384 256h256v320q0 53 -37.5 90.5t-90.5 37.5t-90.5 -37.5t-37.5 -90.5v-320z" />
<glyph unicode="&#x1f3e0;" d="M2012 1114q38 -34 39 -85.5t-33 -94.5q-19 -19 -43 -28.5t-53 -9.5q-23 0 -45.5 8t-44.5 24l-806 755l-806 -755q-39 -38 -92 -35.5t-88 41.5q-37 39 -34.5 92t41.5 88l806 755q72 67 173 67t173 -67l211 -192v115q0 53 37.5 90.5t90.5 37.5t90.5 -37.5t37.5 -90.5v-358z M386 896l640 576l640 -576v-704q0 -53 -37.5 -90.5t-90.5 -37.5h-320v512h-384v-512h-320q-53 0 -90.5 37.5t-37.5 90.5v704z" />
<glyph unicode="&#x1f3e2;" d="M896 2048h768q106 0 181 -75t75 -181v-1792h-1792v1280q0 106 75 181t181 75h256v256q0 106 75 181t181 75zM1408 1536h256v256h-256v-256zM896 1536h256v256h-256v-256zM1408 1024h256v256h-256v-256zM896 1024h256v256h-256v-256zM384 1024h256v256h-256v-256z M1408 512h256v256h-256v-256zM896 512h256v256h-256v-256zM384 512h256v256h-256v-256z" />
<glyph unicode="&#x1f3e6;" d="M211 1302q-5 5 -8 11t-5 12q-5 21 0 38.5t20 31.5l768 640q19 15 41.5 15t41.5 -15l761 -633q16 -11 24 -25.5t8 -32.5q0 -16 -7.5 -30.5t-22.5 -23.5q-7 -5 -15.5 -7.5t-18.5 -2.5h-1542q-6 0 -12.5 1.5t-12.5 4.5t-11 7t-9 9zM1856 1024q0 -53 -37.5 -90.5t-90.5 -37.5 h-128v-640h128q53 0 90.5 -37.5t37.5 -90.5t-37.5 -90.5t-90.5 -37.5h-1408q-53 0 -90.5 37.5t-37.5 90.5q0 26 9.5 48.5t28.5 41.5q15 19 37.5 28.5t52.5 9.5h128v640h-128q-53 0 -90.5 37.5t-37.5 90.5q0 26 9.5 48.5t28.5 41.5q15 19 37.5 28.5t52.5 9.5h1408 q53 0 90.5 -37.5t37.5 -90.5zM1152 256h192v640h-192v-640zM704 256h192v640h-192v-640z" />
<glyph unicode="&#x1f3f7;" d="M1216 1920h448q106 0 181 -75t75 -181v-448q0 -25 -13 -57.5t-32 -51.5l-953 -953q-34 -39 -87.5 -39t-92.5 39l-588 588q-39 34 -39 87.5t39 92.5l953 953q20 20 50.5 32.5t58.5 12.5zM1446 1446q37 -38 90 -38t91 38q37 37 37 90t-37 91q-38 37 -91 37t-90 -37 q-38 -38 -38 -91t38 -90z" />
<glyph unicode="&#x1f441;" d="M1968 902q-6 -3 -15.5 -4.5t-22.5 -1.5q-40 0 -74 24t-48 66q-4 14 -13.5 37t-40.5 80q-31 56 -69.5 108t-103.5 114q-65 61 -139.5 106t-181.5 75t-226 30t-226 -30t-181.5 -75t-139.5 -106q-65 -62 -103.5 -114t-69.5 -108q-31 -57 -40.5 -80t-13.5 -37 q-15 -48 -63.5 -73t-96.5 -11q-48 15 -73 63.5t-11 96.5q21 63 52.5 128t81.5 138q50 72 111 137.5t143 126.5q82 60 175 104t211 70q117 26 244 26t245 -26q117 -26 210 -70t175 -104q82 -61 143 -126.5t111 -137.5q50 -73 81.5 -138t52.5 -128q8 -33 2.5 -65t-28.5 -58 q-12 -14 -26.5 -23t-31.5 -14zM1565 1056q23 -49 34 -105t11 -119q0 -118 -45.5 -224.5t-122.5 -183.5t-183.5 -122.5t-224.5 -45.5t-224.5 45.5t-183.5 122.5t-122.5 183.5t-45.5 224.5t45.5 224.5t122.5 183.5t183.5 122.5t224.5 45.5q-32 -42 -48 -90t-16 -102 q0 -134 93 -227t227 -93q57 0 109.5 20t94.5 56q21 18 39 39t32 45z" />
<glyph unicode="&#x1f44d;" d="M1991 997q-1 -39 -7 -81.5t-17 -89.5q-15 -56 -37.5 -103t-50.5 -82t-56 -63.5t-63 -47.5q-36 -20 -65.5 -34.5t-68.5 -22.5q-39 -9 -65 -14.5t-64 -7.5t-56 -2.5t-50 -0.5h-537l-378 621l595 781q43 55 93 79.5t92 19.5q21 -3 39 -11.5t32 -23.5q37 -40 36 -100 t-33 -131q-32 -72 -82.5 -143t-112.5 -132h320q56 0 90.5 -1t92.5 -6q57 -6 93.5 -16t84.5 -30q48 -21 76 -49.5t56 -72.5q27 -45 36.5 -101.5t6.5 -134.5zM758 77q-19 -9 -37 -14t-34 -5q-36 0 -63 16t-45 48l-512 832q-30 43 -16.5 96.5t60.5 82.5q43 29 97 16t83 -61 l512 -832q29 -43 15.5 -97t-60.5 -82z" />
<glyph unicode="&#x1f44e;" d="M579 1926q18 32 45 48t63 16q16 0 34 -4.5t37 -14.5q47 -28 60.5 -82t-15.5 -97l-512 -832q-29 -48 -83 -61t-97 16q-47 29 -60.5 82.5t16.5 96.5zM1924 1335q13 -25 24 -53.5t19 -59.5q19 -84 24.5 -155.5t-4.5 -125.5t-25 -98t-46 -74q-32 -31 -60 -53.5t-73 -36.5 q-46 -14 -79 -22t-85 -11q-52 -4 -83 -5t-81 -1h-320q62 -61 112.5 -132t82.5 -142q32 -72 33 -132t-36 -100q-29 -29 -71 -34.5t-92 19.5q-25 12 -48 32t-45 47l-595 781l378 621h537q35 0 56 -0.5t64 -3.5q42 -4 71.5 -10t73.5 -19q43 -13 75.5 -31.5t70.5 -47.5 t66.5 -65.5t55.5 -87.5z" />
<glyph unicode="&#x1f45c;" d="M1536 1536h256q106 0 181 -75t75 -181v-1024q0 -106 -75 -181t-181 -75h-1536q-106 0 -181 75t-75 181v1024q0 106 75 181t181 75h256v256q0 106 75 181t181 75h512q106 0 181 -75t75 -181v-256zM1280 1792h-512v-256h512v256zM1115 934q37 37 37 90t-37 91 q-38 37 -91 37t-90 -37q-38 -38 -38 -91t38 -90q37 -38 90 -38t91 38zM256 256h1536v826l-352 -397q-18 -22 -42 -33.5t-54 -11.5h-640q-30 0 -54 11.5t-42 33.5l-352 397v-826z" />
<glyph unicode="&#x1f464;" d="M1555 1697q45 -107 45 -225t-45 -224q-46 -107 -123 -184t-183 -122q-107 -46 -225 -46t-224 46q-107 45 -184 122t-122 184q-46 106 -46 224t46 225q45 106 122 183t184 123q106 45 224 45t225 -45q106 -46 183 -123t123 -183zM1472 768q134 0 227 -93t93 -227v-448 h-256v320h-128v-320h-768v320h-128v-320h-256v448q0 134 93 227t227 93h896z" />
<glyph unicode="&#x1f465;" d="M1787 1280q-69 -118 -187 -187t-256 -69q-19 0 -47.5 3.5t-67.5 9.5q26 62 38.5 122.5t12.5 120.5q0 179 -93.5 332.5t-245.5 237.5q68 92 174 145t229 53q138 0 256 -69t187 -187t69 -256t-69 -256zM1083 1536q69 -118 69 -256t-69 -256t-187 -187t-256 -69t-256 69 t-187 187t-69 256t69 256t187 187t256 69t256 -69t187 -187zM1760 896q120 0 204 -84t84 -204v-352h-256v256h-128v-256h-192v128q0 168 -108 276t-276 108h-64q37 28 69 60t59 68h608zM1088 640q115 0 185.5 -70.5t70.5 -185.5v-384h-256v256h-128v-256h-576v256h-128v-256 h-256v397q0 110 70.5 176.5t185.5 66.5h832z" />
<glyph unicode="&#x1f467;" d="M1600 1472q0 -89 14.5 -177t43.5 -175q3 -3 4.5 -11t1.5 -21q0 -24 -20 -44t-44 -20h-218q-74 -59 -167 -93.5t-191 -34.5t-191 34.5t-167 93.5h-218q-13 0 -25.5 6.5t-25.5 19.5q-8 13 -10 27t3 30q29 92 43.5 183t14.5 182v13q2 115 48.5 219.5t123.5 180.5 q77 75 182.5 119t221.5 44q77 0 151 -20t137 -56q62 -36 115 -88t91 -113q37 -62 58.5 -135.5t23.5 -150.5v-13zM1510 1165v-2v1.5v0.5zM1510 1161v1v0v-1zM1509 1159v0.5v0.5v-1zM1508 1157v0.5v0.5v-1zM1507 1155v0.5v0.5v-1zM1505 1153v0l1 1zM1766 576l154 -576h-288 l-96 320h-128l90 -320h-948l90 320h-128l-90 -320h-294l154 576q25 57 69.5 100.5t103.5 67.5q29 12 59.5 18t61.5 6h896q63 0 121.5 -24t103.5 -67q22 -22 39.5 -47t29.5 -54z" />
<glyph unicode="&#x1f476;" d="M608 0h-480q-53 0 -90.5 37.5t-37.5 90.5t37.5 90.5t90.5 37.5h243l-51 358v45q5 89 44 164t101 128q61 52 141 92.5t168 62.5q87 22 177.5 33t174.5 9q41 -2 80 -5.5t74 -9.5v19q0 158 113 271t271 113t271 -113t113 -271t-113 -271t-271 -113q-60 0 -117.5 19.5 t-112.5 57.5l224 -679q8 -33 2.5 -65t-28.5 -58q-12 -14 -26.5 -23t-31.5 -14q-6 -3 -15.5 -4.5t-22.5 -1.5q-40 0 -74 24t-48 66l-140 428q-158 -4 -292.5 -20t-245.5 -44l32 -236q10 -78 -37 -143.5t-123 -74.5z" />
<glyph unicode="&#x1f489;" d="M1664 1536q0 -53 -37.5 -90.5t-90.5 -37.5h-256v-832q0 -71 -34.5 -130.5t-93.5 -93.5v-224q0 -53 -37.5 -90.5t-90.5 -37.5t-90.5 37.5t-37.5 90.5v224q-59 34 -93.5 93.5t-34.5 130.5v64h256v128h-256v256h256v128h-256v256h-256q-53 0 -90.5 37.5t-37.5 90.5 q0 51 38.5 89.5t89.5 38.5h384v128h-128q-53 0 -90.5 37.5t-37.5 90.5q0 51 38.5 89.5t89.5 38.5h512q53 0 90.5 -37.5t37.5 -90.5t-37.5 -90.5t-90.5 -37.5h-128v-128h384q53 0 90.5 -37.5t37.5 -90.5z" />
<glyph unicode="&#x1f48a;" d="M1024 2048q216 0 364 -148t148 -364v-1024q0 -216 -148 -364t-364 -148t-364 148t-148 364v1024q0 216 148 364t364 148zM1024 256q110 0 183 73t73 183v512h-512v-512q0 -110 73 -183t183 -73z" />
<glyph unicode="&#x1f493;" d="M1094 45q-28 -19 -70 -19t-70 19q-179 117 -323 230.5t-242 208.5t-170.5 189.5t-113.5 168.5t-65.5 150t-31.5 130q-4 27 -6 55.5t-2 57.5v13q0 74 20.5 151.5t57.5 148.5t91 133.5t117 109.5q63 46 140 74t156 29q123 0 233.5 -65.5t208.5 -196.5q99 131 207.5 196.5 t227.5 65.5h7q93 0 181.5 -36t158.5 -97q69 -62 123 -141t85 -169q15 -45 23.5 -89t10.5 -88v-45q0 -51 -6.5 -102.5t-19.5 -102.5h-268q22 51 33 104t11 107v19q-3 91 -52 179.5t-124 143.5q-37 28 -74.5 41.5t-75.5 13.5h-6q-33 -1 -66 -14t-59 -31q-26 -19 -53 -47.5 t-46 -53.5t-41 -59.5t-34 -55.5q-6 -11 -13 -24t-15 -29q-19 -33 -50 -51.5t-65 -18.5q-39 0 -70 18.5t-45 51.5q-18 35 -32.5 60.5t-36.5 60.5t-41.5 60t-45.5 52q-26 26 -51.5 42.5t-56.5 27.5q-15 6 -31 8.5t-32 2.5q-78 0 -154 -57t-124 -146q-24 -45 -36 -90t-12 -91 v-15q0 -26 1 -43t8 -56t19.5 -72.5t39.5 -86.5q26 -53 63 -102.5t97 -116.5q59 -68 133 -134.5t179 -148.5q52 -41 109 -82.5t119 -83.5q83 54 152 104t123 95h384q-119 -119 -266.5 -234.5t-322.5 -226.5zM2048 768q0 -53 -37.5 -90.5t-90.5 -37.5h-384q-30 0 -55.5 13 t-46.5 38l-154 192l-154 -192q-20 -25 -45.5 -38t-56.5 -13h-192q-53 0 -90.5 37.5t-37.5 90.5t37.5 90.5t90.5 37.5h128l218 269q38 48 101 48t97 -48l224 -269h320q53 0 90.5 -37.5t37.5 -90.5z" />
<glyph unicode="&#x1f4a1;" d="M1408 704q0 -106 -75 -181t-181 -75h-256q-106 0 -181 75t-75 181q0 24 -9.5 43.5t-28.5 33.5q-131 96 -206.5 246t-75.5 317q0 192 94 354t256 256q81 47 169.5 70.5t184.5 23.5h19q139 -5 266 -63t219 -152q91 -94 145.5 -222t54.5 -267q0 -164 -74 -313.5t-208 -249.5 q-19 -14 -28.5 -33.5t-9.5 -43.5zM1037 1792h-13q-187 0 -317.5 -130.5t-130.5 -317.5q0 -104 48.5 -199.5t130.5 -158.5q67 -48 104 -123.5t37 -158.5h256q0 83 37 158.5t104 123.5q85 61 132 156t47 202q0 87 -35 168.5t-93 142.5q-59 60 -139.5 97.5t-167.5 39.5z M704 320h640q0 -134 -93 -227t-227 -93t-227 93t-93 227z" />
<glyph unicode="&#x1f4ac;" d="M1037 0q-54 0 -99 28.5t-74 80.5l-211 352q-119 17 -224.5 69t-182.5 128q-78 75 -134 167.5t-84 192.5q-14 50 -21 99.5t-7 98.5q0 177 63 332t173 265q109 109 264 172t332 63h384q177 0 332 -63t265 -172q109 -110 172 -265t63 -332q0 -127 -35 -240.5t-95 -198.5 q-61 -86 -141 -153t-170 -107q-46 -21 -92 -34.5t-94 -21.5l-211 -352q-29 -52 -74.5 -80.5t-98.5 -28.5zM1203 1792h-371q-259 0 -417.5 -158.5t-158.5 -417.5q0 -59 18 -124.5t58 -131.5q39 -66 93.5 -120t135.5 -91q41 -19 84.5 -30t90.5 -15l64 -6l230 -391l231 391 l64 6q69 4 129.5 24.5t106.5 52.5q45 32 82 74t62 88q25 45 42 93.5t25 93.5q3 23 5 44.5t2 41.5q0 128 -41.5 235.5t-116.5 182.5t-182.5 116.5t-235.5 41.5z" />
<glyph unicode="&#x1f4b0;" d="M1600 1600q0 -53 -37.5 -90.5t-90.5 -37.5h-896q-53 0 -90.5 37.5t-37.5 90.5t37.5 90.5t90.5 37.5h83l-211 256l6 6q34 29 64.5 43.5t57.5 14.5q75 0 142.5 -41.5t113.5 -124.5q8 29 22.5 56t37.5 53q22 26 56.5 41.5t75.5 15.5q33 0 62 -10.5t50 -27.5t37.5 -39.5 t26.5 -44.5q5 -11 9 -22t7 -22q46 83 113.5 124.5t142.5 41.5q27 0 57.5 -14.5t64.5 -43.5l6 -6l-211 -256h83q53 0 90.5 -37.5t37.5 -90.5zM544 1344h960q161 -143 256.5 -342.5t95.5 -361.5q0 -107 -26 -196.5t-71 -154.5q-46 -65 -110 -115.5t-136 -82.5 q-72 -33 -156.5 -53.5t-164.5 -28.5q-81 -9 -168 -9t-167 9q-81 8 -165.5 28.5t-156.5 53.5q-72 32 -136 82.5t-109 115.5q-46 65 -72 154.5t-26 196.5q0 162 95.5 361.5t256.5 342.5zM1088 256v102q83 10 134.5 61t51.5 131q0 70 -41.5 115t-125.5 65l-121 25 q-24 5 -38 18.5t-14 32.5q0 15 6 26t16 18t24 10.5t31 3.5q37 0 61 -14.5t35 -43.5h160q-6 44 -27 80t-60 63q-20 14 -43 23t-49 14v102h-128v-102q-83 -15 -134.5 -69t-51.5 -130q0 -49 22 -85.5t57 -56.5q17 -10 37.5 -17.5t43.5 -13.5l122 -25q15 -3 25.5 -6.5t18.5 -9.5 q7 -6 10.5 -15t3.5 -20q0 -29 -22 -43.5t-62 -14.5q-42 0 -67.5 16t-34.5 48h-166q14 -76 65 -123.5t133 -62.5v-102h128z" />
<glyph unicode="&#x1f4b5;" d="M256 1728h1536q106 0 181 -75t75 -181v-896q0 -106 -75 -181t-181 -75h-1536q-106 0 -181 75t-75 181v896q0 106 75 181t181 75zM1536 576q0 106 75 181t181 75v384q-106 0 -181 75t-75 181h-1024q0 -106 -75 -181t-181 -75v-384q106 0 181 -75t75 -181h1024zM843 798 q-75 93 -75 226t75 227q75 93 181 93t181 -93q75 -94 75 -227t-75 -226q-75 -94 -181 -94t-181 94zM1627 1115q37 -38 37 -91t-37 -90q-38 -38 -91 -38t-90 38q-38 37 -38 90t38 91q37 37 90 37t91 -37zM603 1115q37 -38 37 -91t-37 -90q-38 -38 -91 -38t-90 38 q-38 37 -38 90t38 91q37 37 90 37t91 -37z" />
<glyph unicode="&#x1f4bb;" d="M256 2048h1536q106 0 181 -75t75 -181v-1152q0 -106 -75 -181t-181 -75h-640v-128h384q58 0 98 -45t30 -102q-10 -48 -48 -78.5t-86 -30.5h-1018q-58 0 -98 45t-30 102q10 48 48 78.5t86 30.5h378v128h-640q-106 0 -181 75t-75 181v1152q0 106 75 181t181 75zM256 640 h1536v1152h-1536v-1152z" />
<glyph unicode="&#x1f4bc;" d="M1536 1536h256q106 0 181 -75t75 -181v-1024q0 -106 -75 -181t-181 -75h-1536q-106 0 -181 75t-75 181v1024q0 106 75 181t181 75h256v256q0 106 75 181t181 75h512q106 0 181 -75t75 -181v-256zM768 1536h512v256h-512v-256zM1536 256h256v1024h-256v-1024zM256 256h256 v1024h-256v-1024z" />
<glyph unicode="&#x1f4bf;" d="M1296 37q-133 -37 -272 -37t-271 37q-133 37 -245 103t-207 161t-161 207t-103 245q-37 132 -37 271t37 272q37 132 103 244t161 207t207 161t245 103q132 37 271 37t272 -37q132 -37 244 -103t207 -161t161 -207t103 -244q37 -133 37 -272t-37 -271q-37 -133 -103 -245 t-161 -207t-207 -161t-244 -103zM1322 1731q-142 61 -298 61t-298 -61t-245 -164t-164 -245t-61 -298t61 -298t164 -245t245 -164t298 -61t298 61t245 164t164 245t61 298t-61 298t-164 245t-245 164zM1578 1345q43 -74 64.5 -154t21.5 -167h-256q0 158 -113 271t-271 113 v256q173 0 320.5 -86t233.5 -233zM888 888q-56 56 -56 136t56 136t136 56t136 -56t56 -136t-56 -136t-136 -56t-136 56zM1024 640v-256q-173 0 -320.5 86t-233.5 234q-43 73 -64.5 153.5t-21.5 166.5h256q0 -158 113 -271t271 -113z" />
<glyph unicode="&#x1f4c1;" d="M1024 1600h768q106 0 181 -75t75 -181v-1024q0 -106 -75 -181t-181 -75h-1408q-158 0 -271 113t-113 271v1280q0 106 75 181t181 75h512q106 0 181 -75t75 -181v-128zM512 448v640q0 53 37.5 90.5t90.5 37.5h1152v128h-768q-106 0 -181 75t-75 181v128h-512v-1280 q0 -53 37.5 -90.5t90.5 -37.5t90.5 37.5t37.5 90.5z" />
<glyph unicode="&#x1f4c3;" d="M1242 2010l512 -512q19 -19 28.5 -41.5t9.5 -48.5v-1152q0 -106 -75 -181t-181 -75h-1152q-53 0 -90.5 37.5t-37.5 90.5v1664q0 106 75 181t181 75h640q26 0 48.5 -9.5t41.5 -28.5zM512 256h1024v1024h-512v512h-512v-1536zM1408 896q0 -53 -37.5 -90.5t-90.5 -37.5h-512 q-53 0 -90.5 37.5t-37.5 90.5t37.5 90.5t90.5 37.5h512q53 0 90.5 -37.5t37.5 -90.5zM1408 512q0 -53 -37.5 -90.5t-90.5 -37.5h-512q-53 0 -90.5 37.5t-37.5 90.5t37.5 90.5t90.5 37.5h512q53 0 90.5 -37.5t37.5 -90.5z" />
<glyph unicode="&#x1f4c4;" d="M1242 2010l512 -512q19 -19 28.5 -41.5t9.5 -48.5v-1152q0 -106 -75 -181t-181 -75h-1024q-106 0 -181 75t-75 181v1536q0 106 75 181t181 75h640q26 0 48.5 -9.5t41.5 -28.5zM512 256h1024v1024h-512v512h-512v-1536z" />
<glyph unicode="&#x1f4c5;" d="M1728 1728v320q106 0 181 -75t75 -181v-1536q0 -106 -75 -181t-181 -75h-1408q-106 0 -181 75t-75 181v1536q0 106 75 181t181 75v-320q0 -53 37.5 -90.5t90.5 -37.5t90.5 37.5t37.5 90.5v320h896v-320q0 -53 37.5 -90.5t90.5 -37.5t90.5 37.5t37.5 90.5zM320 256h1408 v1152h-1408v-1152zM1152 832h-256v256h256v-256zM1600 832h-256v256h256v-256zM704 384h-256v256h256v-256zM1152 384h-256v256h256v-256zM1600 384h-256v256h256v-256z" />
<glyph unicode="&#x1f4c8;" d="M2048 1728q0 -134 -93 -227t-227 -93q-16 0 -40 3.5t-56 9.5l-358 -391q-34 -38 -83.5 -60.5t-102.5 -22.5q-54 0 -100.5 19.5t-85.5 57.5l-134 141l-147 -147q10 -29 14.5 -59.5t4.5 -62.5q0 -134 -93 -227t-227 -93t-227 93t-93 227t93 227t227 93q34 0 62.5 -4.5 t52.5 -14.5l154 147q38 38 86 57.5t97 19.5q48 0 96 -19.5t86 -57.5l134 -134l352 384q-16 32 -24 65.5t-8 68.5q0 134 93 227t227 93t227 -93t93 -227zM2048 128q0 -53 -37.5 -90.5t-90.5 -37.5h-1792q-53 0 -90.5 37.5t-37.5 90.5t37.5 90.5t90.5 37.5h1792 q53 0 90.5 -37.5t37.5 -90.5z" />
<glyph unicode="&#x1f4ca;" d="M1152 2048q53 0 90.5 -37.5t37.5 -90.5v-1536h-512v1536q0 53 37.5 90.5t90.5 37.5h256zM1920 1664q53 0 90.5 -37.5t37.5 -90.5v-1152h-512v1152q0 53 37.5 90.5t90.5 37.5h256zM384 1216q53 0 90.5 -37.5t37.5 -90.5v-704h-512v704q0 53 37.5 90.5t90.5 37.5h256z M2048 128q0 -53 -37.5 -90.5t-90.5 -37.5h-1792q-53 0 -90.5 37.5t-37.5 90.5t37.5 90.5t90.5 37.5h1792q53 0 90.5 -37.5t37.5 -90.5z" />
<glyph unicode="&#x1f4cb;" d="M966 2048h122q106 0 181 -75t75 -181v-192q0 -24 -20 -44t-44 -20h-506q-24 0 -44 20t-20 44v192q0 106 75.5 181t180.5 75zM980 1812q20 -20 44 -20t44 20t20 44t-20 44t-44 20t-44 -20t-20 -44t20 -44zM1856 256q0 -106 -75 -181t-181 -75h-1152q-106 0 -181 75 t-75 181v1408q0 106 75 181t181 75h128v-256h-128v-1408h1152v1408h-128v256h128q106 0 181 -75t75 -181v-1408z" />
<glyph unicode="&#x1f4cc;" d="M1705 941q19 -10 24.5 -31t-4.5 -40q-5 -14 -22 -26t-36 -12h-1280q-19 0 -36 12t-22 26q-8 18 -3 35.5t23 35.5l300 275h-6v576h-128q-53 0 -90.5 37.5t-37.5 90.5t37.5 90.5t90.5 37.5h1024q53 0 90.5 -37.5t37.5 -90.5t-37.5 -90.5t-90.5 -37.5h-128v-576h-6zM886 704 h282l-77 -640q0 -24 -20 -44t-44 -20t-44 20t-20 44z" />
<glyph unicode="&#x1f4cd;" d="M704 1962q147 86 320 86t321 -86q147 -86 233 -233.5t86 -320.5t-86 -320.5t-233 -233.5q-148 -86 -321 -86t-320 86q-148 86 -234 233.5t-86 320.5t86 320.5t234 233.5zM751 1455q46 -47 113 -47t114 47q46 46 46 113t-46 114q-47 46 -114 46t-113 -46q-47 -47 -47 -114 t47 -113zM1070 19q-19 -19 -46 -19t-45 19q-10 9 -15 21.5t-4 23.5l-83 589q51 -6 88 -9.5t59 -3.5q29 0 66 3.5t81 9.5l-83 -589q1 -11 -4 -23.5t-14 -21.5z" />
<glyph unicode="&#x1f4ce;" d="M1378 1313q-24 9 -48.5 15.5t-49.5 9.5v204q0 59 -32.5 116t-92.5 96q-31 19 -63.5 28.5t-67.5 9.5q-101 0 -178.5 -77.5t-77.5 -178.5v-1024q0 -115 77 -185.5t179 -70.5q98 0 177 71t79 185v384q0 24 -20 44t-44 20t-44 -20t-20 -44v-384q0 -53 -37.5 -90.5 t-90.5 -37.5t-90.5 37.5t-37.5 90.5v384q0 134 93 227t227 93t227 -93t93 -227v-384q0 -138 -69 -256t-187 -187t-256 -69t-256 69t-187 187t-69 256v1024q0 135 70 253.5t189 188.5q59 35 122.5 52.5t130.5 17.5q101 0 195.5 -40.5t164.5 -108.5q69 -68 110.5 -161.5 t41.5 -195.5v-339q-32 36 -71.5 63.5t-86.5 46.5z" />
<glyph unicode="&#x1f4d3;" d="M1280 1792v128q0 53 37.5 90.5t90.5 37.5t90.5 -37.5t37.5 -90.5v-128q106 0 181 -75t75 -181v-1280q0 -106 -75 -181t-181 -75h-1024q-106 0 -181 75t-75 181v1280q0 106 75 181t181 75v128q0 53 37.5 90.5t90.5 37.5t90.5 -37.5t37.5 -90.5v-128h128v128 q0 53 37.5 90.5t90.5 37.5t90.5 -37.5t37.5 -90.5v-128h128zM512 1024h1024v256h-1024v-256zM512 512h768v256h-768v-256z" />
<glyph unicode="&#x1f4d5;" d="M1664 1536q53 0 90.5 -37.5t37.5 -90.5v-1152q0 -106 -75 -181t-181 -75h-960q-106 0 -181 75t-75 181v1408q0 158 113 271t271 113h960q53 0 90.5 -37.5t37.5 -90.5t-37.5 -90.5t-90.5 -37.5h-960q-53 0 -90.5 -37.5t-37.5 -90.5t37.5 -90.5t90.5 -37.5h960z" />
<glyph unicode="&#x1f4d6;" d="M384 1728v-1139q130 -4 258 -40.5t254 -106.5v1056q-38 49 -91.5 88.5t-105.5 63.5t-113 41t-107 25q-23 4 -46.5 7t-48.5 5zM1152 442q123 74 251 110.5t261 36.5v1133q-41 -4 -81 -10t-89 -17q-50 -11 -96 -28t-91 -40q-46 -23 -86 -56t-69 -73v-1056zM992 64 q-3 0 -9.5 3t-9.5 3t-6.5 2t-6.5 5l-915 243q-22 11 -33.5 27t-11.5 37v1088q0 17 6.5 30t19.5 21q6 7 19 10t32 3l51 -13v333q0 48 33.5 85.5t81.5 42.5h64q54 0 109 -4t138 -19q83 -16 158.5 -41.5t160.5 -73.5q42 -24 80 -52t71 -60q49 48 108.5 87t118.5 64 q58 25 121 45t118 29t107.5 16.5t91.5 7.5q38 0 67.5 1.5t37.5 -0.5h4q54 -5 88 -40.5t34 -87.5v-333l51 13q20 0 32.5 -3t18.5 -10q17 -10 20 -23t-7 -28v-1088q0 -24 -12.5 -41.5t-32.5 -22.5l-915 -243q-3 -3 -6 -5t-7 -2q-3 -3 -7.5 -4.5t-11.5 -1.5h-51z" />
<glyph unicode="&#x1f4dd;" d="M2022 1875q39 -33 39 -87t-39 -92l-147 -160l-320 320l147 160q39 38 90 38t90 -38zM1472 1766l320 -320l-640 -678l-384 -64l64 384zM1408 851l256 275v-870q0 -106 -75 -181t-181 -75h-1152q-106 0 -181 75t-75 181v1152q0 106 75 181t181 75h941l-243 -256h-698v-1152 h1152v595z" />
<glyph unicode="&#x1f4de;" d="M555 0q-135 5 -256.5 57t-216.5 148q-43 43 -77 91t-58 101q-10 23 -3.5 46t29.5 37l525 326q19 11 41 9.5t36 -15.5l256 -256q244 67 427.5 250.5t250.5 427.5l-256 256q-15 16 -17.5 36.5t11.5 40.5l326 525q15 20 37 27t46 -1q53 -24 101 -57.5t91 -77.5 q101 -100 153 -227.5t52 -271.5v-38q-5 -196 -60.5 -382t-151.5 -343t-231.5 -289.5t-295.5 -224.5t-348 -143.5t-385 -51.5h-26z" />
<glyph unicode="&#x1f4e0;" d="M1664 1152h256q53 0 90.5 -37.5t37.5 -90.5v-896q0 -53 -37.5 -90.5t-90.5 -37.5h-1792q-53 0 -90.5 37.5t-37.5 90.5v896q0 53 37.5 90.5t90.5 37.5h256v640q0 106 75 181t181 75h768q106 0 181 -75t75 -181v-640zM640 896h768v896h-768v-896zM1574 294q37 -38 90 -38 t91 38q37 37 37 90t-37 91q-38 37 -91 37t-90 -37q-38 -38 -38 -91t38 -90z" />
<glyph unicode="&#x1f4e5;" d="M320 64q-106 0 -181 75t-75 181v410l237 1056q19 86 89 142t160 56h948q90 0 160 -56t89 -142l237 -1056v-410q0 -106 -75 -181t-181 -75h-1408zM1498 1728h-948l-185 -832h147q96 0 179 -67.5t103 -162.5l12 -71q0 -9 8 -17t18 -8h384q5 0 15.5 10t10.5 15l12 71 q10 47 37.5 89.5t65.5 73.5t85 49t94 18h147z" />
<glyph unicode="&#x1f4e6;" d="M320 64q-106 0 -181 75t-75 181v666l173 793q19 91 88.5 148t160.5 57h1076q90 0 160 -58.5t89 -146.5l173 -793v-666q0 -106 -75 -181t-181 -75h-1408zM1562 1728h-1076l-147 -704h1376z" />
<glyph unicode="&#x1f4f0;" d="M768 1856h1024q106 0 181 -75t75 -181v-1152q0 -106 -75 -181t-181 -75h-1408q-158 0 -271 113t-113 271v960q0 58 45 98t102 30q48 -10 78.5 -48t30.5 -86v-954q0 -58 45 -98t102 -30q48 10 78.5 48t30.5 86v1018q0 106 75 181t181 75zM768 1344h1024v256h-1024v-256z M1408 576h384v512h-384v-512z" />
<glyph unicode="&#x1f4f1;" d="M640 2048h768q106 0 181 -75t75 -181v-1536q0 -106 -75 -181t-181 -75h-768q-106 0 -181 75t-75 181v1536q0 106 75 181t181 75zM640 512h768v1280h-768v-1280zM960 192h128q24 0 44 20t20 44t-20 44t-44 20h-128q-24 0 -44 -20t-20 -44t20 -44t44 -20z" />
<glyph unicode="&#x1f4f7;" d="M1453 1664h339q106 0 181 -75t75 -181v-1024q0 -106 -75 -181t-181 -75h-1536q-106 0 -181 75t-75 181v1024q0 106 75 181t181 75h339l83 230q15 43 47 66.5t75 23.5h454q42 0 74.5 -25t47.5 -65zM256 384h1536v640h-269q-43 170 -180.5 277t-318.5 107t-318.5 -107 t-180.5 -277h-269v-640zM753 625q-113 112 -113 271t113 272q112 112 271 112t272 -112q112 -113 112 -272t-112 -271q-113 -113 -272 -113t-271 113z" />
<glyph unicode="&#x1f4f9;" d="M1875 1709q16 16 34 19.5t37 -6.5q18 -5 28 -21.5t10 -36.5v-1280q0 -19 -9.5 -33.5t-28.5 -24.5q-3 -3 -9.5 -4.5t-16.5 -1.5q-13 0 -24 5t-21 14l-403 403v-102q0 -106 -75 -181t-181 -75h-896q-106 0 -181 75t-75 181v768q0 106 75 181t181 75h896q106 0 181 -75 t75 -181v-102zM320 640h896v768h-896v-768z" />
<glyph unicode="&#x1f4fa;" d="M1331 1536h461q106 0 181 -75t75 -181v-1024q0 -106 -75 -181t-181 -75h-1536q-106 0 -181 75t-75 181v1024q0 106 75 181t181 75h589l-295 294q-38 39 -38 90t39 90q38 38 89 38t90 -38l358 -359l346 359q34 34 86.5 35.5t92.5 -35.5q38 -34 38 -87.5t-38 -92.5z M294 1062q37 -38 90 -38t91 38q37 37 37 90t-37 91q-38 37 -91 37t-90 -37q-38 -38 -38 -91t38 -90zM640 256h1152v1024h-1152v-1024zM294 614q37 -38 90 -38t91 38q37 37 37 90t-37 91q-38 37 -91 37t-90 -37q-38 -38 -38 -91t38 -90z" />
<glyph unicode="&#x1f500;" d="M0 1600q0 53 37.5 90.5t90.5 37.5h186q44 0 85.5 -14.5t75.5 -41.5q17 -14 31 -30.5t25 -35.5l128 -211l-147 -249l-198 326h-186q-53 0 -90.5 37.5t-37.5 90.5zM1472 1472h-314l-627 -1030q-33 -58 -91.5 -90t-125.5 -32h-186q-53 0 -90.5 37.5t-37.5 90.5t37.5 90.5 t90.5 37.5h186l627 1030q33 58 91.5 90t125.5 32h314v256q0 20 10 36.5t28 21.5q20 10 37.5 6.5t33.5 -19.5l390 -333q23 -22 34 -46t11 -50q0 -30 -11 -54t-34 -42l-390 -333q-9 -9 -20.5 -14t-24.5 -5q-9 0 -15.5 1.5t-10.5 4.5q-18 5 -28 21.5t-10 36.5v256zM1581 870 l390 -326q23 -22 34 -46t11 -50q0 -30 -11 -54t-34 -42l-390 -333q-9 -9 -20.5 -14t-24.5 -5q-9 0 -15.5 1.5t-10.5 4.5q-18 5 -28 21.5t-10 36.5v256h-314q-67 0 -125.5 32t-91.5 90l-128 211l147 243l198 -326h314v256q0 20 10 36.5t28 20.5q20 10 37.5 6.5t33.5 -19.5z " />
<glyph unicode="&#x1f501;" d="M1715 1760q23 -22 34 -46t11 -50q0 -30 -11 -54t-34 -42l-390 -333q-9 -9 -20.5 -14t-24.5 -5q-9 0 -15.5 1.5t-10.5 4.5q-18 5 -28 21.5t-10 36.5v256h-384q-73 0 -146.5 -22.5t-138.5 -67.5q-66 -45 -116.5 -106t-80.5 -143q-15 -41 -22.5 -84t-7.5 -89 q0 -83 24.5 -161t71.5 -140l-192 -166l-6 6q-77 101 -115.5 216.5t-38.5 244.5q0 138 44 261t120 215q75 91 173 157.5t209 100.5q55 17 110.5 25.5t111.5 8.5h384v256q0 20 10 36.5t28 21.5q20 10 37.5 6.5t33.5 -19.5zM1830 1472q76 -85 115 -200.5t39 -247.5 q0 -138 -44 -261t-119 -214q-76 -92 -174 -158.5t-208 -100.5q-56 -17 -111.5 -25.5t-111.5 -8.5h-384v-256q0 -20 -10 -36.5t-28 -21.5q-17 -9 -35 -7t-36 14l-390 333q-22 22 -33.5 46t-11.5 50q0 30 11.5 54t33.5 42l390 332q7 7 18 10t27 3q10 0 16.5 -1.5t9.5 -4.5 q19 -9 28.5 -23.5t9.5 -34.5v-256h384q73 0 146.5 23t139.5 68q65 44 115.5 105t80.5 143q15 41 22.5 84.5t7.5 88.5q0 55 -10.5 108t-31.5 103q-11 24 -24.5 47t-29.5 43l192 166z" />
<glyph unicode="&#x1f508;" d="M1370 1786q18 -5 28 -21.5t10 -36.5v-1408q0 -20 -10 -36.5t-28 -21.5q-3 -3 -9.5 -4.5t-16.5 -1.5q-13 0 -24 5t-21 14l-365 365h-166q-106 0 -181 75t-75 181v256q0 106 75 181t181 75h166l365 365q16 16 34 19.5t37 -6.5z" />
<glyph unicode="&#x1f509;" d="M1143 1764q4 -8 6.5 -17t2.5 -19v-1408q0 -20 -10 -36.5t-28 -21.5q-3 -3 -9.5 -4.5t-16.5 -1.5q-13 0 -24 5t-21 14l-365 365h-166q-106 0 -181 75t-75 181v256q0 106 75 181t181 75h166l365 365q16 16 34 19.5t37 -6.5q9 -3 16.5 -8.5t12.5 -13.5zM1594 384 q-21 -16 -43.5 -24t-46.5 -8q-51 0 -89.5 38.5t-38.5 89.5q0 25 9.5 48t28.5 42q92 92 140 211t48 240t-48 240t-140 211q-38 38 -38 89.5t39 90.5q38 38 89 38t90 -39q129 -130 196.5 -297t67.5 -336q0 -170 -67.5 -337t-196.5 -297z" />
<glyph unicode="&#x1f50a;" d="M1651 70q-14 -14 -39.5 -23t-49.5 -9q-52 0 -90 38.5t-38 90.5q0 25 9.5 47.5t28.5 41.5q208 208 281.5 488t0.5 560q-37 140 -107.5 262t-174.5 226q-38 38 -38 89.5t38 90.5q38 38 89.5 38t89.5 -39q129 -129 218.5 -286.5t132.5 -322.5q42 -166 42 -341.5t-42 -340.5 q-43 -166 -132.5 -323t-218.5 -287zM892 1753q2 -6 3 -12t1 -13v-1408q0 -20 -10 -36.5t-28 -21.5q-3 -3 -9.5 -4.5t-16.5 -1.5q-13 0 -24 5t-21 14l-365 365h-166q-106 0 -181 75t-75 181v256q0 106 75 181t181 75h166l365 365q16 16 34 19.5t37 -6.5q12 -3 21 -12t13 -21z M1338 384q-21 -16 -43.5 -24t-46.5 -8q-51 0 -89.5 38.5t-38.5 89.5q0 25 9.5 48t28.5 42q92 92 140 211t48 240t-48 240t-140 211q-38 38 -38 89.5t39 90.5q38 38 89 38t90 -39q129 -130 196.5 -297t67.5 -336q0 -170 -67.5 -337t-196.5 -297z" />
<glyph unicode="&#x1f50b;" d="M1792 1280h128q53 0 90.5 -37.5t37.5 -90.5v-256q0 -53 -37.5 -90.5t-90.5 -37.5h-128v-192q0 -106 -75 -181t-181 -75h-1280q-106 0 -181 75t-75 181v896q0 106 75 181t181 75h1280q106 0 181 -75t75 -181v-192zM256 576h1280v896h-1280v-896zM1408 704h-1024v640h1024 v-640z" />
<glyph unicode="&#x1f50c;" d="M1344 2048q53 0 90.5 -37.5t37.5 -90.5v-384h-256v384q0 53 37.5 90.5t90.5 37.5zM704 2048q53 0 90.5 -37.5t37.5 -90.5v-384h-256v384q0 53 37.5 90.5t90.5 37.5zM1856 1280q0 -53 -37.5 -90.5t-90.5 -37.5h-64v-128q0 -151 -66.5 -285t-182.5 -224 q-59 -45 -124.5 -74.5t-138.5 -43.5v-397h-256v397q-109 21 -204 79t-162 141q-68 82 -107 188t-39 219v128h-64q-53 0 -90.5 37.5t-37.5 90.5t37.5 90.5t90.5 37.5h1408q53 0 90.5 -37.5t37.5 -90.5z" />
<glyph unicode="&#x1f50d;" d="M1536 781l454 -455q58 -52 58 -134.5t-57 -139.5q-58 -58 -135 -58t-134 57l-455 455q-101 -61 -209.5 -91.5t-225.5 -30.5q-170 0 -324 65.5t-265 177.5q-112 111 -177.5 265t-65.5 324t64.5 324t175.5 266q110 111 263 176.5t323 65.5q113 0 221 -30t200 -83 q91 -54 167.5 -130.5t130.5 -167.5q53 -92 83 -200t30 -221q0 -116 -30.5 -225t-91.5 -210zM302 1441q-46 -107 -46 -225t46 -224q45 -107 122 -184t184 -122q106 -46 224 -46t225 46q106 45 183 122t123 184q45 106 45 224t-45 225q-46 106 -123 183t-183 123 q-107 45 -225 45t-224 -45q-107 -46 -184 -123t-122 -183z" />
<glyph unicode="&#x1f511;" d="M1181 1245q93 -93 227 -93t227 93t93 227t-93 227t-227 93t-227 -93t-93 -227t93 -227zM832 1555q29 184 161 321t313 166q83 13 165 3.5t153 -39.5q70 -30 133 -76.5t108 -107.5t77 -132.5t40 -150.5q3 -39 2.5 -80t-6.5 -83q-29 -186 -166 -317.5t-321 -156.5 q-109 -14 -206.5 7t-183.5 77l-218 -218l173 -179q39 -39 42.5 -90t-29.5 -89q-18 -22 -42 -33.5t-54 -11.5q-25 0 -47.5 9.5t-42.5 28.5l-185 186l-135 -141l160 -160q34 -34 41.5 -81t-15.5 -85q-19 -28 -49 -43t-60 -15q-23 0 -45.5 8t-44.5 24l-166 166 q-77 77 -77 182.5t77 182.5l531 538q-55 91 -76 188.5t-7 201.5z" />
<glyph unicode="&#x1f512;" d="M1600 1152h64q53 0 90.5 -37.5t37.5 -90.5v-768q0 -106 -75 -181t-181 -75h-1024q-106 0 -181 75t-75 181v768q0 53 37.5 90.5t90.5 37.5h64v320q0 106 42 209t116 185q73 81 183 131.5t235 50.5t235 -50.5t184 -131.5q73 -82 115 -185t42 -209v-320zM857 1744 q-75 -49 -114 -121.5t-39 -150.5v-320h640v320q0 78 -39 150.5t-114 121.5q-75 48 -167 48t-167 -48z" />
<glyph unicode="&#x1f513;" d="M1891 1866q73 -82 115 -185t42 -209v-250q0 -48 -30.5 -86t-78.5 -48q-57 -10 -102 30t-45 98v256q0 78 -39 150.5t-114 121.5q-75 48 -167 48t-167 -48q-75 -49 -114 -121.5t-39 -150.5v-320h256q53 0 90.5 -37.5t37.5 -90.5v-768q0 -106 -75 -181t-181 -75h-1024 q-106 0 -181 75t-75 181v768q0 53 37.5 90.5t90.5 37.5h768v320q0 106 42 209t116 185q73 81 183 131.5t235 50.5t235 -50.5t184 -131.5z" />
<glyph unicode="&#x1f514;" d="M1673 947l314 -288q33 -23 51.5 -63t18.5 -84q0 -50 -25 -93t-67 -69q-22 -14 -45 -21t-49 -9h-582v-64q0 -106 -75 -181t-181 -75t-181 75t-75 181v64h-576q-38 0 -73 14t-62 42q-14 14 -25 30.5t-19 35.5q-21 51 -9 109t54 95l326 301v461q0 173 86 320.5t234 233.5 q147 86 320 86t321 -86q147 -86 233 -233.5t86 -320.5v-461zM559 768l-230 -192v-6h1408l-230 192q-45 40 -67.5 89.5t-22.5 108.5v448q0 158 -113 271t-271 113t-271 -113t-113 -271v-448q0 -54 -23.5 -106.5t-66.5 -85.5z" />
<glyph unicode="&#x1f516;" d="M1280 2048q106 0 181 -75t75 -181v-1728q0 -20 -10 -36.5t-28 -21.5q-7 -6 -26 -6t-45 13l-403 352l-410 -346q-9 -14 -26.5 -18t-37.5 5q-18 5 -28 21.5t-10 36.5v1728q0 106 75 181t181 75h512z" />
<glyph unicode="&#x1f517;" d="M1280 1979q118 -69 187 -187t69 -256v-320q-48 68 -112 119t-144 86v115q0 106 -75 181t-181 75t-181 -75t-75 -181v-320q0 -106 75 -181t181 -75q53 0 90.5 -37.5t37.5 -90.5t-37.5 -90.5t-90.5 -37.5q-138 0 -256 69t-187 187q-34 59 -51.5 123t-17.5 133v320 q0 138 69 256t187 187t256 69t256 -69zM1467 1088q35 -59 52 -123t17 -133v-320q0 -138 -69 -256t-187 -187t-256 -69t-256 69t-187 187t-69 256v320q48 -67 112 -118.5t144 -86.5v-115q0 -106 75 -181t181 -75t181 75t75 181v320q0 106 -75 181t-181 75q-53 0 -90.5 37.5 t-37.5 90.5t37.5 90.5t90.5 37.5q138 0 256 -69t187 -187z" />
<glyph unicode="&#x1f525;" d="M1543 1359q2 -20 2.5 -39.5t0.5 -39.5q0 -138 -69 -256t-187 -187t-256 -69t-256 69t-187 187t-69 256q0 80 22.5 160t53.5 139t72.5 115.5t70.5 87.5q14 15 28 29t28 26q16 16 34 19.5t37 -6.5q12 -3 21 -12t13 -21q2 -6 3 -12t1 -13v-333q83 84 122 232.5t6 279.5 q-5 23 1.5 39t24.5 25q15 11 34.5 13t35.5 -6q78 -47 142 -105.5t106 -116.5t74 -124t50 -122q17 -56 27.5 -115.5t13.5 -99.5zM1853 250q49 -25 68 -75t-4 -98q-14 -34 -45.5 -55.5t-69.5 -21.5q-16 0 -28.5 3.5t-22.5 9.5l-717 294l-717 -294q-9 -6 -22 -9.5t-29 -3.5 q-38 0 -69.5 21.5t-45.5 55.5q-19 48 1.5 97.5t68.5 68.5l487 199l-487 204q-48 20 -68.5 69.5t-1.5 97.5t68.5 68.5t97.5 1.5l717 -294l717 301q48 19 97.5 -2t68.5 -69t-1.5 -97.5t-68.5 -68.5l-480 -205z" />
<glyph unicode="&#x1f527;" d="M2022 1632q13 -34 19.5 -74t6.5 -86q0 -118 -47.5 -225.5t-127.5 -184.5q-80 -78 -190 -123t-230 -43q-79 0 -151 22.5t-137 67.5l-634 -634l135 -134q38 -39 38 -90t-38 -89q-39 -39 -90 -39t-90 38l-448 448q-38 39 -38 90t39 90q38 38 89 38t90 -38l134 -135l634 634 q-45 65 -67.5 137t-22.5 151q-2 120 43 230t123 190q77 80 184.5 127.5t225.5 47.5q46 0 86 -6.5t74 -19.5q35 -9 44 -44t-18 -64l-320 -320v-256h256l320 320q23 24 61 15.5t47 -41.5z" />
<glyph unicode="&#x1f528;" d="M1984 1274q42 -43 44.5 -96t-31.5 -90l-269 -269q-38 -38 -92 -38t-87 38l-90 90q39 38 39 91.5t-39 87.5q-38 38 -89.5 38t-89.5 -38l-749 -736l128 -128q35 -35 40 -87.5t-27 -91.5q-18 -22 -42 -33.5t-54 -11.5q-25 0 -47.5 9.5t-42.5 28.5l-448 448q-38 39 -38 90 t39 90q38 38 89 38t90 -38l134 -135l736 736q76 78 62 195.5t-107 214.5q-83 83 -163 139t-157 85q-22 11 -33.5 27t-11.5 37v13q0 16 8 30.5t21 24.5q7 4 14 6.5t15 2.5q190 29 405 -55.5t395 -264.5l179 -180q-38 -38 -38 -91.5t38 -87.5q39 -38 92.5 -38t86.5 38z" />
<glyph unicode="&#x1f52c;" d="M710 1472q-53 32 -102.5 48t-95.5 16q-22 0 -38 -1.5t-26 -4.5q73 174 212.5 301.5t325.5 184.5q7 4 21.5 7t22.5 6q42 9 79 -7t62 -51l237 -429q28 -48 14 -98t-59 -74l-109 -64q-48 -25 -98 -12t-74 56l-192 333q-51 -34 -96 -86.5t-84 -124.5zM376 1080 q-56 56 -56 136t56 136t136 56t136 -56t56 -136t-56 -136t-136 -56t-136 56zM1664 896q0 -53 -37.5 -90.5t-90.5 -37.5h-384q-53 0 -90.5 37.5t-37.5 90.5t37.5 90.5t90.5 37.5h384q53 0 90.5 -37.5t37.5 -90.5zM1920 128q0 -53 -37.5 -90.5t-90.5 -37.5h-1152 q-53 0 -90.5 37.5t-37.5 90.5q0 26 9.5 48.5t28.5 41.5q15 19 37.5 28.5t52.5 9.5h448v141q-218 33 -387.5 170.5t-252.5 341.5q10 -6 26 -9.5t38 -3.5q48 0 96 16t96 48q74 -143 211 -231.5t301 -88.5h320q53 0 90.5 -37.5t37.5 -90.5t-37.5 -90.5t-90.5 -37.5h-192v-128 h448q53 0 90.5 -37.5t37.5 -90.5z" />
<glyph unicode="&#x1f56b;" d="M1856 256q-53 0 -90.5 37.5t-37.5 90.5v1408q0 53 37.5 90.5t90.5 37.5t90.5 -37.5t37.5 -90.5v-1408q0 -53 -37.5 -90.5t-90.5 -37.5zM576 486l256 -64v205l-256 51v-192zM98 1357q15 19 36.5 32.5t44.5 18.5l1421 307v-1254l-512 109v-148q0 -69 -34.5 -128t-93.5 -93 q-29 -18 -61 -26.5t-67 -8.5q-22 0 -38 2t-26 5l-256 64q-86 24 -139 93.5t-53 155.5v244l-141 25q-23 5 -44.5 18.5t-36.5 32.5q-16 19 -25 42.5t-9 47.5v371q0 24 9 47.5t25 42.5z" />
<glyph unicode="&#x1f585;" d="M2022 2035q13 -8 19.5 -24t6.5 -40l-307 -1894q-10 -48 -45 -78.5t-83 -30.5q-17 0 -33 4.5t-31 14.5l-487 282l-249 -250q-9 -9 -20.5 -14t-24.5 -5q-9 0 -15.5 1.5t-10.5 4.5q-12 3 -21 12t-13 21q-2 6 -3 12.5t-1 12.5v416l672 806q14 16 11.5 35.5t-15.5 30.5 t-31 13.5t-35 -15.5l-813 -748l-423 243q-32 21 -48 50t-16 65q0 35 19 65t52 44l1875 973q13 8 30.5 6.5t39.5 -13.5z" />
<glyph unicode="&#x1f5a7;" d="M1984 1728q0 -134 -93 -227t-227 -93q-99 0 -177 52t-117 140h-986v-698q0 -31 -13.5 -59.5t-38.5 -48.5q-12 -10 -26.5 -16.5t-30.5 -9.5q-57 -10 -102 30t-45 98v704q0 106 75 181t181 75h986q39 88 117 140t177 52q134 0 227 -93t93 -227zM1408 1280q53 0 90.5 -37.5 t37.5 -90.5v-256q0 -53 -37.5 -90.5t-90.5 -37.5t-90.5 37.5t-37.5 90.5v256q0 53 37.5 90.5t90.5 37.5zM1024 1280q53 0 90.5 -37.5t37.5 -90.5v-256q0 -53 -37.5 -90.5t-90.5 -37.5t-90.5 37.5t-37.5 90.5v256q0 53 37.5 90.5t90.5 37.5zM640 1280q53 0 90.5 -37.5 t37.5 -90.5v-256q0 -53 -37.5 -90.5t-90.5 -37.5t-90.5 37.5t-37.5 90.5v256q0 53 37.5 90.5t90.5 37.5zM1773 1280q57 10 102 -30t45 -98v-704q0 -106 -75 -181t-181 -75h-986q-39 -88 -117 -140t-177 -52q-134 0 -227 93t-93 227t93 227t227 93q99 0 177 -52t117 -140h986 v698q0 48 30.5 86t78.5 48z" />
<glyph unicode="&#x1f5a9;" d="M576 2048h896q106 0 181 -75t75 -181v-1536q0 -106 -75 -181t-181 -75h-896q-106 0 -181 75t-75 181v1536q0 106 75 181t181 75zM1472 1792h-896v-384h896v384zM1318 998q37 -38 90 -38t91 38q37 37 37 90t-37 91q-38 37 -91 37t-90 -37q-38 -38 -38 -91t38 -90zM934 998 q37 -38 90 -38t91 38q37 37 37 90t-37 91q-38 37 -91 37t-90 -37q-38 -38 -38 -91t38 -90zM550 998q37 -38 90 -38t91 38q37 37 37 90t-37 91q-38 37 -91 37t-90 -37q-38 -38 -38 -91t38 -90zM1318 614q37 -38 90 -38t91 38q37 37 37 90t-37 91q-38 37 -91 37t-90 -37 q-38 -38 -38 -91t38 -90zM934 614q37 -38 90 -38t91 38q37 37 37 90t-37 91q-38 37 -91 37t-90 -37q-38 -38 -38 -91t38 -90zM550 614q37 -38 90 -38t91 38q37 37 37 90t-37 91q-38 37 -91 37t-90 -37q-38 -38 -38 -91t38 -90zM1318 230q37 -38 90 -38t91 38q37 37 37 90 t-37 91q-38 37 -91 37t-90 -37q-38 -38 -38 -91t38 -90zM934 230q37 -38 90 -38t91 38q37 37 37 90t-37 91q-38 37 -91 37t-90 -37q-38 -38 -38 -91t38 -90zM550 230q37 -38 90 -38t91 38q37 37 37 90t-37 91q-38 37 -91 37t-90 -37q-38 -38 -38 -91t38 -90z" />
<glyph unicode="&#x1f5b4;" d="M320 64q-106 0 -181 75t-75 181v410l237 1056q19 86 89 142t160 56h948q90 0 160 -56t89 -142l237 -1056v-410q0 -106 -75 -181t-181 -75h-1408zM1498 1728h-948l-185 -832h1318zM1574 422q37 -38 90 -38t91 38q37 37 37 90t-37 91q-38 37 -91 37t-90 -37 q-38 -38 -38 -91t38 -90zM1126 422q37 -38 90 -38t91 38q37 37 37 90t-37 91q-38 37 -91 37t-90 -37q-38 -38 -38 -91t38 -90z" />
<glyph unicode="&#x1f5bc;" d="M1842 1289q7 -17 10.5 -35.5t3.5 -37.5q0 -82 -55 -137t-137 -55q82 0 137 -55t55 -137q0 -28 -8 -54.5t-23 -48.5t-36.5 -40t-47.5 -30q54 -54 84.5 -124.5t30.5 -150.5q0 -158 -113 -271t-271 -113q-80 0 -150.5 30.5t-124.5 84.5q-19 -52 -67 -83.5t-106 -31.5 q-55 0 -101.5 32.5t-71.5 82.5q-54 -54 -124.5 -84.5t-150.5 -30.5q-158 0 -271 113t-113 271q0 27 3.5 53.5t10.5 51.5q7 24 17 47t23 45q13 21 28.5 41t32.5 37q-34 13 -60.5 39t-40.5 61q-7 18 -10.5 36t-3.5 37q0 82 55 137t137 55q-82 0 -137 55t-55 137q0 38 14 73 t41 61q13 13 28 23t32 16q-36 36 -61 78.5t-39 93.5q-8 25 -11.5 51t-3.5 52q0 158 113 271t271 113q80 0 150.5 -30.5t124.5 -84.5q19 52 67 83.5t106 31.5q38 0 73 -14t61 -40q13 -14 23 -29t16 -32q54 54 124.5 84.5t150.5 30.5q158 0 271 -113t113 -271 q0 -80 -30.5 -150.5t-84.5 -124.5q34 -13 60.5 -39t40.5 -61zM512 320h1024v1408h-1024v-1408z" />
<glyph unicode="&#x1f5d1;" d="M1536 1664h378q48 0 86 -30.5t48 -78.5q10 -57 -30 -102t-98 -45h-1786q-53 0 -91 31.5t-43 83.5q0 32 9.5 58t28.5 45q15 19 37.5 28.5t52.5 9.5h384v128q0 106 75 181t181 75h512q106 0 181 -75t75 -181v-128zM768 1664h512v128h-512v-128zM378 230l-96 1050h1484 l-96 -1050q-9 -96 -82.5 -163t-173.5 -67h-787q-100 0 -172.5 67t-76.5 163zM1280 256h128v768h-128v-768zM960 256h128v768h-128v-768zM640 256h128v768h-128v-768z" />
<glyph unicode="&#x1f5d8;" d="M1946 1850q18 -5 28 -21.5t10 -36.5v-576q0 -53 -37.5 -90.5t-90.5 -37.5h-512q-20 0 -36.5 10t-21.5 28q-9 20 -6 37.5t19 33.5l218 243q-95 104 -222 164t-271 60q-163 0 -305 -77t-230 -209q-45 -66 -71 -138.5t-34 -151.5h-256q12 172 87.5 326.5t194.5 265.5 q119 110 279 175t335 65q193 0 365 -78.5t294 -215.5l186 204q14 19 36 24.5t41 -4.5zM1024 128q-129 0 -251.5 36.5t-224.5 102.5q-51 32 -96.5 71t-86.5 84l-186 -204q-12 -13 -25 -19.5t-26 -6.5q-6 0 -12.5 1.5t-13.5 4.5q-18 5 -28 21.5t-10 36.5v576q0 53 37.5 90.5 t90.5 37.5h512q20 0 36.5 -10t21.5 -28q10 -19 6.5 -37t-19.5 -34l-218 -243q88 -107 216 -168.5t271 -61.5q122 0 235 45t198 123q84 77 139.5 183t67.5 225h262v3v3v-6v0q-13 -170 -88.5 -323t-193.5 -262q-119 -111 -279 -176t-335 -65z" />
<glyph unicode="&#x1f64f;" d="M835 1408q-105 5 -180.5 -69.5t-75.5 -180.5v-320q0 -24 20 -44t44 -20t44 20t20 44v320q0 53 37.5 90.5t90.5 37.5q26 0 49.5 -10t41.5 -27q17 -17 27 -41t10 -50v-825l-109 -333h-531l173 422q-8 9 -35 38.5t-41 45.5t-35 41.5t-36 48.5q-7 11 -13.5 22t-12.5 22 q-21 41 -29 87.5t-4 99.5q4 52 11.5 94.5t21.5 102.5q9 33 63.5 199t112.5 339q28 86 48.5 145t31.5 91q18 67 56 118.5t95 87.5q44 28 85 39.5t79 5.5q31 -4 48 -19t20 -42q1 -2 1 -4.5v-5.5v-602q-32 16 -64 24t-64 8zM1764 827q4 -53 -4 -99.5t-29 -87.5 q-21 -35 -55 -79.5t-54 -66.5q-10 -12 -26 -29.5t-38 -42.5l173 -422h-531l-109 333v825q0 53 37.5 90.5t90.5 37.5t90.5 -37.5t37.5 -90.5v-320q0 -24 20 -44t44 -20t44 20t20 44v320q0 106 -75 181t-181 75q-32 0 -64 -8t-64 -24v596q0 29 15.5 46t45.5 23q36 7 76 -2.5 t84 -36.5q56 -32 95 -78.5t61 -107.5l7 -24q23 -64 80.5 -236.5t112.5 -338.5q27 -83 43 -132.5t20 -66.5q14 -60 21.5 -102.5t11.5 -94.5z" />
<glyph unicode="&#x1f680;" d="M1536 832h128q53 0 90.5 -37.5t37.5 -90.5t-37.5 -90.5t-90.5 -37.5h-1280q-53 0 -90.5 37.5t-37.5 90.5t37.5 90.5t90.5 37.5h128v512q0 107 29 207t76 175q46 75 103 137.5t115 102.5q57 39 106.5 60.5t82.5 21.5q40 0 102 -30t134 -91q71 -62 132.5 -143.5 t102.5 -197.5q21 -59 31 -119t10 -123v-512zM934 1446q37 -38 90 -38t91 38q37 37 37 90t-37 91q-38 37 -91 37t-90 -37q-38 -38 -38 -91t38 -90zM934 1062q37 -38 90 -38t91 38q37 37 37 90t-37 91q-38 37 -91 37t-90 -37q-38 -38 -38 -91t38 -90zM1280 448h256l-58 -192 q-9 -30 -35 -45.5t-54 -5.5q-19 5 -33 18.5t-18 32.5zM512 448h256l-58 -192q-9 -30 -35 -45.5t-54 -5.5q-19 5 -33 18.5t-18 32.5zM896 448h256l-58 -384q-4 -28 -28.5 -46t-54.5 -18q-12 2 -22.5 8t-18.5 15q-9 8 -14.5 18.5t-8.5 22.5z" />
<glyph unicode="&#x1f686;" d="M1738 1664v-1024q0 -71 -34.5 -130.5t-93.5 -93.5l115 -230q24 -48 7.5 -98.5t-64.5 -74.5q-19 -6 -33.5 -9.5t-24.5 -3.5q-35 0 -68 19t-47 51l-154 314h-608l-160 -314q-19 -33 -50 -51.5t-65 -18.5q-9 0 -23.5 3.5t-34.5 9.5q-48 24 -64.5 74.5t7.5 98.5l115 230 q-59 34 -93.5 93.5t-34.5 130.5v1024q0 158 113 271t271 113h640q158 0 271 -113t113 -271zM1354 1152q53 0 90.5 37.5t37.5 90.5v384q0 53 -37.5 90.5t-90.5 37.5h-640q-53 0 -90.5 -37.5t-37.5 -90.5v-384q0 -53 37.5 -90.5t90.5 -37.5h640zM1264 678q37 -38 90 -38t91 38 q37 37 37 90t-37 91q-38 37 -91 37t-90 -37q-38 -38 -38 -91t38 -90zM624 678q37 -38 90 -38t91 38q37 37 37 90t-37 91q-38 37 -91 37t-90 -37q-38 -38 -38 -91t38 -90z" />
<glyph unicode="&#x1f68d;" d="M640 2048h768q158 0 271 -113t113 -271v-1088q0 -106 -75 -181t-181 -75v-192q0 -53 -37.5 -90.5t-90.5 -37.5t-90.5 37.5t-37.5 90.5v192h-512v-192q0 -53 -37.5 -90.5t-90.5 -37.5t-90.5 37.5t-37.5 90.5v192q-106 0 -181 75t-75 181v1088q0 158 113 271t271 113z M1408 1088q53 0 90.5 37.5t37.5 90.5v448q0 53 -37.5 90.5t-90.5 37.5h-768q-53 0 -90.5 -37.5t-37.5 -90.5v-448q0 -53 37.5 -90.5t90.5 -37.5h768zM1318 614q37 -38 90 -38t91 38q37 37 37 90t-37 91q-38 37 -91 37t-90 -37q-38 -38 -38 -91t38 -90zM550 614 q37 -38 90 -38t91 38q37 37 37 90t-37 91q-38 37 -91 37t-90 -37q-38 -38 -38 -91t38 -90z" />
<glyph unicode="&#x1f694;" d="M1344 2048q53 0 90.5 -37.5t37.5 -90.5q0 -51 -38.5 -89.5t-89.5 -38.5h-256v256h256zM576 1920q0 51 38.5 89.5t89.5 38.5h256v-256h-256q-53 0 -90.5 37.5t-37.5 90.5zM1728 1088h64q53 0 90.5 -37.5t37.5 -90.5v-512q0 -53 -37.5 -90.5t-90.5 -37.5h-128v-192 q0 -53 -37.5 -90.5t-90.5 -37.5t-90.5 37.5t-37.5 90.5v192h-768v-192q0 -53 -37.5 -90.5t-90.5 -37.5t-90.5 37.5t-37.5 90.5v192h-128q-53 0 -90.5 37.5t-37.5 90.5v512q0 53 37.5 90.5t90.5 37.5h64l109 384q19 86 87.5 139t155.5 53h704q85 0 155 -54.5t95 -137.5z M678 1408l-89 -320h877l-90 320h-698zM1446 614q37 -38 90 -38t91 38q37 37 37 90t-37 91q-38 37 -91 37t-90 -37q-38 -38 -38 -91t38 -90zM422 614q37 -38 90 -38t91 38q37 37 37 90t-37 91q-38 37 -91 37t-90 -37q-38 -38 -38 -91t38 -90z" />
<glyph unicode="&#x1f696;" d="M1088 2048q24 0 41.5 -13.5t22.5 -37.5l51 -205h-358l51 205q5 24 22.5 37.5t41.5 13.5h128zM1728 1088h64q53 0 90.5 -37.5t37.5 -90.5v-512q0 -53 -37.5 -90.5t-90.5 -37.5h-128v-192q0 -53 -37.5 -90.5t-90.5 -37.5t-90.5 37.5t-37.5 90.5v192h-768v-192 q0 -53 -37.5 -90.5t-90.5 -37.5t-90.5 37.5t-37.5 90.5v192h-128q-53 0 -90.5 37.5t-37.5 90.5v512q0 53 37.5 90.5t90.5 37.5h64l109 384q19 86 87.5 139t155.5 53h704q85 0 155 -54.5t95 -137.5zM678 1408l-89 -320h877l-90 320h-698zM1446 614q37 -38 90 -38t91 38 q37 37 37 90t-37 91q-38 37 -91 37t-90 -37q-38 -38 -38 -91t38 -90zM422 614q37 -38 90 -38t91 38q37 37 37 90t-37 91q-38 37 -91 37t-90 -37q-38 -38 -38 -91t38 -90z" />
<glyph unicode="&#x1f698;" d="M1728 1088h64q53 0 90.5 -37.5t37.5 -90.5v-512q0 -53 -37.5 -90.5t-90.5 -37.5h-128v-192q0 -53 -37.5 -90.5t-90.5 -37.5t-90.5 37.5t-37.5 90.5v192h-768v-192q0 -53 -37.5 -90.5t-90.5 -37.5t-90.5 37.5t-37.5 90.5v192h-128q-53 0 -90.5 37.5t-37.5 90.5v512 q0 53 37.5 90.5t90.5 37.5h64l109 384q19 86 87.5 139t155.5 53h704q85 0 155 -54.5t95 -137.5zM678 1408l-89 -320h877l-90 320h-698zM1446 614q37 -38 90 -38t91 38q37 37 37 90t-37 91q-38 37 -91 37t-90 -37q-38 -38 -38 -91t38 -90zM422 614q37 -38 90 -38t91 38 q37 37 37 90t-37 91q-38 37 -91 37t-90 -37q-38 -38 -38 -91t38 -90z" />
<glyph unicode="&#x1f69a;" d="M448 2048h1152q106 0 181 -75t75 -181v-1280q0 -106 -75 -181t-181 -75v-128q0 -53 -37.5 -90.5t-90.5 -37.5t-90.5 37.5t-37.5 90.5v128h-640v-128q0 -53 -37.5 -90.5t-90.5 -37.5t-90.5 37.5t-37.5 90.5v128q-106 0 -181 75t-75 181v1280q0 106 75 181t181 75z M1472 896q53 0 90.5 37.5t37.5 90.5v256q0 53 -37.5 90.5t-90.5 37.5h-896q-53 0 -90.5 -37.5t-37.5 -90.5v-256q0 -53 37.5 -90.5t90.5 -37.5h896zM1382 550q37 -38 90 -38t91 38q37 37 37 90t-37 91q-38 37 -91 37t-90 -37q-38 -38 -38 -91t38 -90zM486 550q37 -38 90 -38 t91 38q37 37 37 90t-37 91q-38 37 -91 37t-90 -37q-38 -38 -38 -91t38 -90z" />
<glyph unicode="&#x1f69c;" d="M384 1792v-410l557 -38l-141 448h-416zM1728 1286l64 -6q53 -5 91.5 -44.5t42.5 -96.5v-313q-60 35 -124 52.5t-132 17.5q-165 0 -295.5 -90t-184.5 -236h-326q-58 146 -188.5 236t-291.5 90q-67 0 -131 -17.5t-125 -52.5v1094q0 53 37.5 90.5t90.5 37.5h544 q82 0 150.5 -47t92.5 -119l173 -557l256 -19v230q0 106 75 181t181 75h64q53 0 90.5 -37.5t37.5 -90.5t-37.5 -90.5t-90.5 -37.5h-64v-250zM1393 655q113 113 271 113t271 -113t113 -271t-113 -271t-271 -113t-271 113t-113 271t113 271zM113 655q113 113 271 113t271 -113 t113 -271t-113 -271t-271 -113t-271 113t-113 271t113 271zM1574 288q37 -38 90 -38t91 38q37 37 37 89.5t-37 90.5q-38 38 -91 38t-90 -38q-38 -38 -38 -90.5t38 -89.5zM294 288q37 -38 90 -38t91 38q37 37 37 89.5t-37 90.5q-38 38 -91 38t-90 -38q-38 -38 -38 -90.5 t38 -89.5z" />
<glyph unicode="&#x1f6a2;" d="M1107 1440q-38 24 -83 24t-83 -24l-365 -179v339q0 53 37.5 90.5t90.5 37.5h128v192q0 53 37.5 90.5t90.5 37.5h128q53 0 90.5 -37.5t37.5 -90.5v-192h128q53 0 90.5 -37.5t37.5 -90.5v-339zM2048 128q0 -53 -37.5 -90.5t-90.5 -37.5q-132 0 -248.5 57.5t-199.5 160.5 q-85 -100 -201.5 -159t-246.5 -59q-132 0 -248.5 57.5t-199.5 160.5q-85 -100 -201.5 -159t-246.5 -59q-53 0 -90.5 37.5t-37.5 90.5t37.5 90.5t90.5 37.5q134 0 227 93t93 227l-237 269q-9 10 -14 22.5t-5 28.5q3 10 5 15t6 12t9 11.5t12 6.5l768 384q15 5 29.5 5t28.5 -5 l768 -384q9 -3 16.5 -10t11.5 -16q2 -4 3 -9t1 -10q4 -13 1 -27.5t-14 -30.5l-237 -262q0 -134 93 -227t227 -93q53 0 90.5 -37.5t37.5 -90.5z" />
<glyph unicode="&#x1f6ab;" d="M753 2011q132 37 271 37t272 -37q132 -37 244 -103t207 -161t161 -207t103 -244q37 -133 37 -272t-37 -271q-37 -133 -103 -245t-161 -207t-207 -161t-244 -103q-133 -37 -272 -37t-271 37q-133 37 -245 103t-207 161t-161 207t-103 245q-37 132 -37 271t37 272 q37 132 103 244t161 207t207 161t245 103zM481 1567q-103 -103 -164 -245t-61 -298q0 -123 35.5 -235t105.5 -213l1069 1075q-95 71 -205.5 106t-236.5 35q-156 0 -298 -61t-245 -164zM582 397q96 -70 206.5 -105.5t235.5 -35.5q156 0 298 61t245 164t164 245t61 298 q0 124 -35 236t-106 212z" />
<glyph unicode="&#x1f6b0;" d="M1216 2048h512v-640h-512q-53 0 -90.5 -37.5t-37.5 -90.5h-640q0 156 61 298t164 245t245 164t298 61zM1216 1024q0 -53 -37.5 -90.5t-90.5 -37.5h-640q-53 0 -90.5 37.5t-37.5 90.5t37.5 90.5t90.5 37.5h640q53 0 90.5 -37.5t37.5 -90.5zM1037 474q26 -36 38.5 -74.5 t12.5 -79.5q0 -134 -93 -227t-227 -93t-227 93t-93 227q0 38 11.5 76.5t33.5 77.5l224 300q19 24 51 24t51 -24z" />
<glyph unicode="&#x1f6b2;" d="M1536 1728h320q24 0 44 -20t20 -44v-320q0 -24 -20 -44t-44 -20h-96zM1325 1856l473 -941q114 -59 182 -165.5t68 -237.5q0 -187 -130.5 -317.5t-317.5 -130.5t-317.5 130.5t-130.5 317.5q0 157 98 279t248 156l-39 77h-384l64 -134q24 -48 7.5 -98.5t-64.5 -74.5 q-19 -6 -33.5 -9.5t-24.5 -3.5q-35 0 -68 19t-47 51l-314 634h-83q-53 0 -90.5 37.5t-37.5 90.5t37.5 90.5t90.5 37.5h422q53 0 90.5 -37.5t37.5 -90.5t-37.5 -90.5t-90.5 -37.5h-51l64 -128h384l-256 512h-179q-53 0 -90.5 37.5t-37.5 90.5t37.5 90.5t90.5 37.5h179 q48 0 92 -16.5t79 -48.5q17 -16 30.5 -35t22.5 -41zM131 830q130 130 317 130t318 -130q130 -131 130 -318t-130 -317q-131 -131 -318 -131t-317 131q-131 130 -131 317t131 318zM1600 320q81 0 136.5 57t55.5 135q0 82 -55 137t-137 55t-137 -55t-55 -137q0 -78 55.5 -135 t136.5 -57zM448 320q81 0 136.5 57t55.5 135q0 82 -55 137t-137 55t-137 -55t-55 -137q0 -78 55.5 -135t136.5 -57z" />
</font>
</defs>
</svg>
